SplineFontDB: 3.0
FontName: Oxygen-Bold
FullName: Oxygen Bold
FamilyName: Oxygen
Weight: Bold
Copyright: Copyright (c) 2011-12 by vernon adams. All rights reserved.
Version: 0.2
ItalicAngle: 0
UnderlinePosition: -119
UnderlineWidth: 119
Ascent: 1638
Descent: 410
sfntRevision: 0x00003333
LayerCount: 2
Layer: 0 1 "Back"  1
Layer: 1 1 "Fore"  0
XUID: [1021 846 39740748 3131461]
FSType: 8
OS2Version: 4
OS2_WeightWidthSlopeOnly: 0
OS2_UseTypoMetrics: 1
CreationTime: 1333874826
ModificationTime: 1335082549
PfmFamily: 17
TTFWeight: 700
TTFWidth: 5
LineGap: 0
VLineGap: 0
Panose: 2 0 8 3 0 0 0 9 0 4
OS2TypoAscent: 263
OS2TypoAOffset: 1
OS2TypoDescent: -73
OS2TypoDOffset: 1
OS2TypoLinegap: 0
OS2WinAscent: -460
OS2WinAOffset: 1
OS2WinDescent: -192
OS2WinDOffset: 1
HheadAscent: -460
HheadAOffset: 1
HheadDescent: 192
HheadDOffset: 1
OS2SubXSize: 0
OS2SubYSize: 0
OS2SubXOff: 0
OS2SubYOff: 0
OS2SupXSize: 0
OS2SupYSize: 0
OS2SupXOff: 0
OS2SupYOff: 0
OS2StrikeYSize: 0
OS2StrikeYPos: 0
OS2Vendor: 'newt'
OS2CodePages: 20000097.00000000
OS2UnicodeRanges: 800002ff.4000204b.00000000.00000000
Lookup: 258 0 0 "'kern' Horizontal Kerning in Latin lookup 0"  {"'kern' Horizontal Kerning in Latin lookup 0 per glyph data 0"  "'kern' Horizontal Kerning in Latin lookup 0 kerning class 1"  } ['kern' ('DFLT' <'dflt' > 'latn' <'dflt' > ) ]
MarkAttachClasses: 2
"MarkClass-1" 5 h m n
DEI: 91125
KernClass2: 34 26 "'kern' Horizontal Kerning in Latin lookup 0 kerning class 1" 
 89 A Agrave Aacute Acircumflex Atilde Adieresis Aring Amacron Abreve Aogonek uni0200 uni0202
 1 B
 75 D O Q Eth Ograve Oacute Ocircumflex Otilde Odieresis Oslash uni020C uni020E
 1 F
 1 K
 1 L
 7 P Thorn
 44 R Racute Rcommaaccent Rcaron uni0210 uni0212
 22 T uni021A Tcommaaccent
 53 U Ugrave Uacute Ucircumflex Udieresis uni0214 uni0216
 1 V
 1 W
 18 Y Yacute Ydieresis
 89 a agrave aacute acircumflex atilde adieresis aring amacron abreve aogonek uni0201 uni0203
 1 b

StartChar: exclam
Encoding: 33 33 4
Width: 399
GlyphClass: 2
Flags: W
LayerCount: 2
Fore
SplineSet
335 1445 m 1,0,-1
 335 1198 l 1,1,-1
 269 454 l 1,2,-1
 152 454 l 1,3,-1
 79 1198 l 1,4,-1
 79 1445 l 1,5,-1
 335 1445 l 1,0,-1
39 139 m 128,-1,7
 39 205 39 205 87 253 c 0,8,9
 134 301 134 301 200 301 c 128,-1,10
 266 301 266 301 313 253 c 128,-1,11
 360 205 360 205 360 139 c 128,-1,12
 360 73 360 73 313 26.5 c 128,-1,13
 266 -20 266 -20 200 -20 c 128,-1,14
 134 -20 134 -20 86.5 26.5 c 128,-1,6
 39 73 39 73 39 139 c 128,-1,7
EndSplineSet
EndChar

StartChar: quotedbl
Encoding: 34 34 5
Width: 647
GlyphClass: 2
Flags: W
LayerCount: 2
Fore
SplineSet
99 937 m 1,0,-1
 61 1453 l 1,1,-1
 279 1453 l 1,2,-1
 279 937 l 1,3,-1
 99 937 l 1,0,-1
402 937 m 1,4,-1
 369 1453 l 1,5,-1
 581 1453 l 1,6,-1
 581 937 l 1,7,-1
 402 937 l 1,4,-1
EndSplineSet
EndChar

StartChar: numbersign
Encoding: 35 35 6
Width: 1067
GlyphClass: 2
Flags: W
LayerCount: 2
Fore
SplineSet
658 897 m 1,0,-1
 502 897 l 1,1,-1
 441 566 l 1,2,-1
 597 566 l 1,3,-1
 658 897 l 1,0,-1
1033 1080 m 1,4,-1
 1012 897 l 1,5,-1
 853 897 l 1,6,-1
 789 566 l 1,7,-1
 947 566 l 1,8,-1
 928 380 l 1,9,-1
 760 380 l 1,10,-1
 682 -23 l 1,11,-1
 487 -23 l 1,12,-1
 562 380 l 1,13,-1
 411 380 l 1,14,-1
 333 -23 l 1,15,-1
 136 -23 l 1,16,-1
 215 380 l 1,17,-1
 34 380 l 1,18,-1
 49 566 l 1,19,-1
 248 566 l 1,20,-1
 306 895 l 1,21,-1
 117 895 l 1,22,-1
 132 1080 l 1,23,-1
 336 1080 l 1,24,-1
 413 1455 l 1,25,-1
 608 1455 l 1,26,-1
 537 1080 l 1,27,-1
 692 1080 l 1,28,-1
 763 1455 l 1,29,-1
 961 1455 l 1,30,-1
 888 1080 l 1,31,-1
 1033 1080 l 1,4,-1
EndSplineSet
EndChar

StartChar: dollar
Encoding: 36 36 7
Width: 1176
GlyphClass: 2
Flags: W
LayerCount: 2
Fore
SplineSet
561 1639 m 1,0,-1
 663 1639 l 1,1,-1
 663 -196 l 1,2,-1
 561 -196 l 1,3,-1
 561 1639 l 1,0,-1
581 209 m 0,4,5
 850 209 850 209 850 380 c 0,6,7
 850 477 850 477 789 521 c 128,-1,8
 728 565 728 565 622 601 c 2,9,-1
 440 661 l 2,10,11
 238 727 238 727 156 828 c 0,12,13
 75 929 75 929 75 1065.5 c 0,14,15
 76 1202 76 1202 148 1296 c 0,16,17
 287 1478 287 1478 601 1478 c 128,-1,18
 915 1478 915 1478 1075 1363 c 1,19,-1
 998 1164 l 1,20,21
 853 1253 853 1253 613 1253 c 128,-1,22
 373 1253 373 1253 373 1096 c 0,23,24
 373 1020 373 1020 411.5 981.5 c 128,-1,25
 450 943 450 943 525 918 c 2,26,-1
 722 851 l 1,27,28
 901 791 901 791 982 734 c 128,-1,29
 1063 677 1063 677 1105 602 c 0,30,31
 1147 526 1147 526 1147 399 c 128,-1,32
 1147 272 1147 272 1071 172 c 0,33,34
 925 -20 925 -20 591.5 -20 c 129,-1,35
 258 -20 258 -20 63 104 c 1,36,-1
 142 321 l 1,37,38
 220 272 220 272 340.5 240.5 c 128,-1,39
 461 209 461 209 581 209 c 0,4,5
EndSplineSet
EndChar

StartChar: percent
Encoding: 37 37 8
Width: 1734
GlyphClass: 2
Flags: W
LayerCount: 2
Fore
SplineSet
1217.5 214.5 m 128,-1,1
 1258 156 1258 156 1340.5 156 c 128,-1,2
 1423 156 1423 156 1462.5 217 c 128,-1,3
 1502 278 1502 278 1502 379 c 128,-1,4
 1502 480 1502 480 1459 538.5 c 128,-1,5
 1416 597 1416 597 1326 597 c 0,6,7
 1195 597 1195 597 1180 446 c 0,8,9
 1177 415 1177 415 1177 373 c 0,10,0
 1177 273 1177 273 1217.5 214.5 c 128,-1,1
966 374 m 1,11,12
 960 408 960 408 960 442 c 0,13,14
 960 590 960 590 1060.5 680 c 128,-1,15
 1161 770 1161 770 1333.5 770 c 128,-1,16
 1506 770 1506 770 1602 660.5 c 128,-1,17
 1698 551 1698 551 1698 380 c 128,-1,18
 1698 209 1698 209 1600 96 c 128,-1,19
 1502 -17 1502 -17 1334 -17 c 128,-1,20
 1166 -17 1166 -17 1066 93.5 c 128,-1,21
 966 204 966 204 966 373 c 2,22,-1
 966 374 l 1,11,12
666.5 773.5 m 128,-1,24
 563 660 563 660 394.5 660 c 128,-1,25
 226 660 226 660 131.5 771 c 128,-1,26
 37 882 37 882 37 1054 c 128,-1,27
 37 1226 37 1226 134.5 1339 c 128,-1,28
 232 1452 232 1452 402 1452 c 128,-1,29
 572 1452 572 1452 671 1341 c 128,-1,30
 770 1230 770 1230 770 1058 c 2,31,-1
 770 1056 l 2,32,23
 770 887 770 887 666.5 773.5 c 128,-1,24
1196 1450 m 1,33,-1
 1428 1450 l 1,34,-1
 503 -41 l 1,35,-1
 273 -41 l 1,36,-1
 1193 1446 l 1,37,-1
 1196 1450 l 1,33,-1
273.5 893 m 128,-1,39
 313 833 313 833 395.5 833 c 128,-1,40
 478 833 478 833 519.5 894.5 c 128,-1,41
 561 956 561 956 561 1057.5 c 128,-1,42
 561 1159 561 1159 520 1219 c 128,-1,43
 479 1279 479 1279 397 1279 c 128,-1,44
 315 1279 315 1279 274.5 1218 c 128,-1,45
 234 1157 234 1157 234 1055 c 128,-1,38
 234 953 234 953 273.5 893 c 128,-1,39
EndSplineSet
EndChar

StartChar: ampersand
Encoding: 38 38 9
Width: 1400
GlyphClass: 2
Flags: W
LayerCount: 2
Fore
SplineSet
698.5 1247.5 m 128,-1,1
 659 1283 659 1283 591.5 1283 c 128,-1,2
 524 1283 524 1283 483 1246.5 c 128,-1,3
 442 1210 442 1210 442 1141.5 c 128,-1,4
 442 1073 442 1073 470 1023 c 128,-1,5
 498 973 498 973 549 917 c 1,6,7
 666 983 666 983 702 1031 c 128,-1,8
 738 1079 738 1079 738 1145.5 c 128,-1,0
 738 1212 738 1212 698.5 1247.5 c 128,-1,1
484 714 m 1,9,10
 290 600 290 600 290 451 c 128,-1,11
 290 302 290 302 370.5 248 c 128,-1,12
 451 194 451 194 579.5 194 c 128,-1,13
 708 194 708 194 849 291 c 1,14,-1
 484 714 l 1,9,10
359 840 m 1,15,16
 288 922 288 922 252 989 c 128,-1,17
 216 1056 216 1056 216 1144 c 0,18,19
 216 1318 216 1318 328 1400.5 c 128,-1,20
 440 1483 440 1483 589 1483 c 0,21,22
 738 1484 738 1484 856 1410 c 0,23,24
 914 1374 914 1374 949.5 1309.5 c 128,-1,25
 985 1245 985 1245 985 1176 c 0,26,27
 985 1008 985 1008 858 904 c 0,28,29
 783 843 783 843 679 789 c 1,30,-1
 1012 432 l 1,31,32
 1087 517 1087 517 1154 645 c 1,33,-1
 1335 525 l 1,34,35
 1261 383 1261 383 1165 274 c 1,36,-1
 1373 55 l 1,37,-1
 1143 -17 l 1,38,-1
 1003 129 l 1,39,40
 798 -23 798 -23 547.5 -23 c 0,41,42
 297 -22 297 -22 152 118 c 0,43,44
 41 226 41 226 41 396 c 128,-1,45
 41 566 41 566 131 665.5 c 128,-1,46
 221 765 221 765 359 840 c 1,15,16
EndSplineSet
EndChar

StartChar: quotesingle
Encoding: 39 39 10
Width: 345
GlyphClass: 2
Flags: W
LayerCount: 2
Fore
SplineSet
278 937 m 1,0,-1
 98 937 l 1,1,-1
 61 1453 l 1,2,-1
 278 1453 l 1,3,-1
 278 937 l 1,0,-1
EndSplineSet
EndChar

StartChar: parenleft
Encoding: 40 40 11
Width: 624
GlyphClass: 2
Flags: W
LayerCount: 2
Fore
SplineSet
94 634 m 0,0,1
 94 900 94 900 172 1105 c 128,-1,2
 250 1310 250 1310 365 1498 c 1,3,-1
 630 1498 l 1,4,5
 472 1214 472 1214 404 884 c 0,6,7
 376 750 376 750 377 634 c 0,8,9
 377 402 377 402 458.5 170 c 128,-1,10
 540 -62 540 -62 604 -182 c 1,11,-1
 630 -230 l 1,12,-1
 365 -230 l 1,13,14
 163 101 163 101 115 380 c 0,15,16
 94 502 94 502 94 634 c 0,0,1
EndSplineSet
EndChar

StartChar: parenright
Encoding: 41 41 12
Width: 624
GlyphClass: 2
Flags: W
LayerCount: 2
Fore
SplineSet
259 -230 m 1,0,-1
 -6 -230 l 1,1,2
 152 54 152 54 220 384 c 0,3,4
 248 518 248 518 247 634 c 0,5,6
 247 868 247 868 163 1103.5 c 128,-1,7
 79 1339 79 1339 20 1450 c 1,8,-1
 -6 1498 l 1,9,-1
 259 1498 l 1,10,11
 461 1167 461 1167 509 888 c 0,12,13
 530 766 530 766 530 634 c 0,14,15
 530 368 530 368 452 163 c 128,-1,16
 374 -42 374 -42 259 -230 c 1,0,-1
EndSplineSet
EndChar

StartChar: asterisk
Encoding: 42 42 13
Width: 1060
GlyphClass: 2
Flags: W
LayerCount: 2
Fore
SplineSet
638 1444 m 1,0,-1
 612 1097 l 1,1,-1
 916 1246 l 1,2,-1
 1010 1058 l 1,3,-1
 670 935 l 1,4,-1
 922 637 l 1,5,-1
 722 517 l 1,6,-1
 530 826 l 1,7,-1
 338 517 l 1,8,-1
 138 637 l 1,9,-1
 390 935 l 1,10,-1
 50 1058 l 1,11,-1
 144 1246 l 1,12,-1
 448 1097 l 1,13,-1
 422 1444 l 1,14,-1
 638 1444 l 1,0,-1
EndSplineSet
EndChar

StartChar: plus
Encoding: 43 43 14
Width: 1200
GlyphClass: 2
Flags: W
LayerCount: 2
Fore
SplineSet
67 659 m 1,0,-1
 492 659 l 1,1,-1
 492 1057 l 1,2,-1
 710 1057 l 1,3,-1
 710 659 l 1,4,-1
 1133 659 l 1,5,-1
 1133 460 l 1,6,-1
 708 460 l 1,7,-1
 708 62 l 1,8,-1
 489 62 l 1,9,-1
 489 460 l 1,10,-1
 68 460 l 1,11,-1
 67 659 l 1,0,-1
EndSplineSet
EndChar

StartChar: comma
Encoding: 44 44 15
Width: 424
GlyphClass: 2
Flags: W
LayerCount: 2
Fore
SplineSet
391 224 m 1,0,-1
 218 -306 l 1,1,-1
 36 -306 l 1,2,-1
 151 224 l 1,3,-1
 391 224 l 1,0,-1
EndSplineSet
EndChar

StartChar: hyphen
Encoding: 45 45 16
Width: 698
GlyphClass: 2
Flags: W
LayerCount: 2
Fore
SplineSet
70 433 m 1,0,-1
 70 627 l 1,1,-1
 628 627 l 1,2,-1
 628 433 l 1,3,-1
 70 433 l 1,0,-1
EndSplineSet
EndChar

StartChar: period
Encoding: 46 46 17
Width: 426
GlyphClass: 2
Flags: W
LayerCount: 2
Fore
SplineSet
331 26.5 m 128,-1,1
 284 -20 284 -20 218.5 -20 c 128,-1,2
 153 -20 153 -20 105 26.5 c 128,-1,3
 57 73 57 73 57 139 c 128,-1,4
 57 205 57 205 105 253 c 128,-1,5
 153 301 153 301 218.5 301 c 128,-1,6
 284 301 284 301 331 253 c 128,-1,7
 378 205 378 205 378 139 c 128,-1,0
 378 73 378 73 331 26.5 c 128,-1,1
EndSplineSet
EndChar

StartChar: slash
Encoding: 47 47 18
Width: 922
GlyphClass: 2
Flags: W
LayerCount: 2
Fore
SplineSet
280 -179 m 1,0,-1
 51 -179 l 1,1,-1
 636 1497 l 1,2,-1
 869 1497 l 1,3,-1
 280 -179 l 1,0,-1
EndSplineSet
EndChar

StartChar: zero
Encoding: 48 48 19
Width: 1298
GlyphClass: 2
Flags: W
LayerCount: 2
Fore
SplineSet
538.5 241 m 128,-1,1
 586 210 586 210 644 210 c 0,2,3
 756 210 756 210 814 291 c 0,4,5
 906 421 906 421 906 696.5 c 128,-1,6
 906 972 906 972 860 1083 c 0,7,8
 842 1129 842 1129 814 1166 c 0,9,10
 757 1243 757 1243 649 1243 c 0,11,12
 428 1242 428 1242 398 886 c 0,13,14
 392 820 392 820 392 739 c 1,15,-1
 394 739 l 1,16,-1
 394 734 l 2,17,18
 394 446 394 446 464 320 c 0,19,0
 491 272 491 272 538.5 241 c 128,-1,1
649 1478 m 0,20,21
 770 1478 770 1478 866 1436 c 128,-1,22
 962 1394 962 1394 1024 1324 c 128,-1,23
 1086 1254 1086 1254 1127 1156 c 128,-1,24
 1168 1058 1168 1058 1185.5 952 c 128,-1,25
 1203 846 1203 846 1203 726 c 128,-1,26
 1203 606 1203 606 1186 501 c 128,-1,27
 1169 396 1169 396 1128 298.5 c 128,-1,28
 1087 201 1087 201 1025 132 c 128,-1,29
 963 63 963 63 867 21.5 c 128,-1,30
 771 -20 771 -20 649 -20 c 128,-1,31
 527 -20 527 -20 431 22 c 0,32,33
 254 98 254 98 174.5 287.5 c 128,-1,34
 95 477 95 477 95 726 c 0,35,36
 95 1123 95 1123 274 1325 c 0,37,38
 410 1478 410 1478 649 1478 c 0,20,21
EndSplineSet
EndChar

StartChar: one
Encoding: 49 49 20
Width: 698
GlyphClass: 2
Flags: W
LayerCount: 2
Fore
SplineSet
337 1447 m 1,0,-1
 577 1447 l 1,1,-1
 577 1 l 1,2,-1
 299 1 l 1,3,-1
 299 1189 l 1,4,-1
 44 1080 l 1,5,-1
 44 1292 l 1,6,-1
 337 1447 l 1,0,-1
EndSplineSet
EndChar

StartChar: two
Encoding: 50 50 21
Width: 1014
GlyphClass: 2
Flags: W
LayerCount: 2
Fore
SplineSet
50 1335 m 1,0,1
 211 1478 211 1478 437.5 1478 c 128,-1,2
 664 1478 664 1478 801.5 1361 c 128,-1,3
 939 1244 939 1244 939 1032 c 0,4,5
 940 820 940 820 736 588 c 0,6,7
 704 552 704 552 661 507 c 2,8,-1
 377 211 l 1,9,-1
 924 211 l 1,10,-1
 904 0 l 1,11,-1
 53 0 l 1,12,-1
 53 233 l 1,13,-1
 494 720 l 2,14,15
 566 799 566 799 605.5 875 c 128,-1,16
 645 951 645 951 645 1038.5 c 128,-1,17
 645 1126 645 1126 582 1184.5 c 128,-1,18
 519 1243 519 1243 431 1243 c 0,19,20
 268 1243 268 1243 129 1122 c 1,21,-1
 50 1335 l 1,0,1
EndSplineSet
EndChar

StartChar: three
Encoding: 51 51 22
Width: 1049
GlyphClass: 2
Flags: W
LayerCount: 2
Fore
SplineSet
990 406 m 1,0,-1
 990 394 l 2,1,2
 990 191 990 191 841 85 c 0,3,4
 691 -20 691 -20 470 -20 c 1,5,6
 345 -20 345 -20 231.5 12.5 c 128,-1,7
 118 45 118 45 47 106 c 1,8,-1
 122 309 l 1,9,10
 174 264 174 264 271 237.5 c 128,-1,11
 368 211 368 211 468 211 c 128,-1,12
 568 211 568 211 630.5 267 c 0,13,14
 693 322 693 322 693 396 c 0,15,16
 693 576 693 576 552 617 c 0,17,18
 463 642 463 642 317 644 c 1,19,-1
 260 644 l 1,20,-1
 260 864 l 1,21,-1
 317 864 l 2,22,23
 483 864 483 864 552 893 c 128,-1,24
 621 922 621 922 646.5 961 c 128,-1,25
 672 1000 672 1000 672 1065 c 128,-1,26
 672 1130 672 1130 612 1186.5 c 128,-1,27
 552 1243 552 1243 445 1243 c 0,28,29
 253 1243 253 1243 121 1162 c 1,30,-1
 46 1367 l 1,31,32
 128 1429 128 1429 228 1453.5 c 128,-1,33
 328 1478 328 1478 469 1478 c 0,34,35
 683 1478 683 1478 815 1364.5 c 128,-1,36
 947 1251 947 1251 947 1078 c 0,37,38
 947 965 947 965 888 882 c 128,-1,39
 829 799 829 799 715 761 c 1,40,41
 845 728 845 728 916 634.5 c 128,-1,42
 987 541 987 541 990 406 c 1,0,-1
EndSplineSet
EndChar

StartChar: four
Encoding: 52 52 23
Width: 1241
GlyphClass: 2
Flags: W
LayerCount: 2
Fore
SplineSet
719 1179 m 1,0,-1
 362 524 l 1,1,-1
 719 524 l 1,2,-1
 719 1179 l 1,0,-1
1177 309 m 1,3,-1
 1016 309 l 1,4,-1
 1016 0 l 1,5,-1
 718 0 l 1,6,-1
 718 309 l 1,7,-1
 83 309 l 1,8,-1
 83 496 l 1,9,-1
 637 1445 l 1,10,-1
 1016 1445 l 1,11,-1
 1016 525 l 1,12,-1
 1190 525 l 1,13,-1
 1177 309 l 1,3,-1
EndSplineSet
EndChar

StartChar: five
Encoding: 53 53 24
Width: 1104
GlyphClass: 2
Flags: W
LayerCount: 2
Fore
SplineSet
975 1445 m 1,0,-1
 960 1225 l 1,1,-1
 441 1225 l 1,2,-1
 429 900 l 1,3,4
 510 938 510 938 590 938 c 0,5,6
 783 938 783 938 906 807.5 c 128,-1,7
 1029 677 1029 677 1029 460.5 c 128,-1,8
 1029 244 1029 244 900.5 112 c 128,-1,9
 772 -20 772 -20 535 -20 c 0,10,11
 374 -20 374 -20 186 71 c 0,12,13
 142 92 142 92 119 106 c 2,14,-1
 96 121 l 1,15,-1
 178 324 l 1,16,17
 261 255 261 255 398 219 c 0,18,19
 448 206 448 206 494 206 c 0,20,21
 622 206 622 206 684 278 c 128,-1,22
 746 350 746 350 746 466.5 c 128,-1,23
 746 583 746 583 687.5 651.5 c 128,-1,24
 629 720 629 720 529.5 720 c 128,-1,25
 430 720 430 720 332 609 c 1,26,-1
 152 648 l 1,27,-1
 188 1445 l 1,28,-1
 975 1445 l 1,0,-1
EndSplineSet
EndChar

StartChar: six
Encoding: 54 54 25
Width: 1191
GlyphClass: 2
Flags: W
LayerCount: 2
Fore
SplineSet
855 452 m 0,0,1
 855 710 855 710 597 710 c 0,2,3
 346 710 346 710 346 447 c 0,4,5
 346 329 346 329 410 262 c 128,-1,6
 474 195 474 195 595 195 c 128,-1,7
 716 195 716 195 785.5 264 c 128,-1,8
 855 333 855 333 855 452 c 0,0,1
638 1445 m 1,9,-1
 992 1445 l 1,10,-1
 576 907 l 1,11,12
 628 918 628 918 659 918 c 0,13,14
 879 918 879 918 1018 791 c 128,-1,15
 1157 664 1157 664 1157 459 c 0,16,17
 1157 315 1157 315 1084 205 c 128,-1,18
 1011 95 1011 95 886.5 37.5 c 128,-1,19
 762 -20 762 -20 604.5 -20 c 128,-1,20
 447 -20 447 -20 321 36.5 c 128,-1,21
 195 93 195 93 122.5 203 c 128,-1,22
 50 313 50 313 50 469 c 0,23,24
 50 624 50 624 162 800 c 0,25,26
 186 836 186 836 226 893 c 1,27,-1
 638 1445 l 1,9,-1
EndSplineSet
EndChar

StartChar: seven
Encoding: 55 55 26
Width: 1001
GlyphClass: 2
Flags: W
LayerCount: 2
Fore
SplineSet
210 -1 m 1,0,-1
 664 1230 l 1,1,-1
 52 1230 l 1,2,-1
 52 1446 l 1,3,-1
 983 1446 l 1,4,-1
 983 1283 l 1,5,-1
 497 -1 l 1,6,-1
 210 -1 l 1,0,-1
EndSplineSet
EndChar

StartChar: eight
Encoding: 56 56 27
Width: 1125
GlyphClass: 2
Flags: W
LayerCount: 2
Fore
SplineSet
563 1266 m 128,-1,1
 457 1266 457 1266 390 1218 c 128,-1,2
 323 1170 323 1170 323 1086 c 0,3,4
 323 885 323 885 563 829 c 1,5,6
 802 886 802 886 802 1086 c 0,7,8
 802 1170 802 1170 735.5 1218 c 128,-1,0
 669 1266 669 1266 563 1266 c 128,-1,1
563 671 m 1,9,10
 316 605 316 605 316 399 c 128,-1,11
 316 193 316 193 562.5 193 c 128,-1,12
 809 193 809 193 809 403 c 0,13,14
 809 603 809 603 563 671 c 1,9,10
761 6.5 m 128,-1,16
 669 -20 669 -20 544.5 -20 c 128,-1,17
 420 -20 420 -20 305 25.5 c 128,-1,18
 190 71 190 71 119.5 165.5 c 128,-1,19
 49 260 49 260 49 390 c 0,20,21
 49 638 49 638 290 760 c 1,22,23
 76 875 76 875 76 1098 c 0,24,25
 76 1191 76 1191 114.5 1265 c 0,26,27
 153 1338 153 1338 220 1384 c 0,28,29
 358 1478 358 1478 564 1478 c 128,-1,30
 770 1478 770 1478 910 1382 c 128,-1,31
 1050 1286 1050 1286 1050 1098 c 0,32,33
 1050 877 1050 877 851 760 c 1,34,35
 1076 638 1076 638 1076 389 c 0,36,37
 1076 291 1076 291 1035.5 212 c 128,-1,38
 995 133 995 133 924 83 c 128,-1,15
 853 33 853 33 761 6.5 c 128,-1,16
EndSplineSet
EndChar

StartChar: nine
Encoding: 57 57 28
Width: 1216
GlyphClass: 2
Flags: W
LayerCount: 2
Fore
SplineSet
583 0 m 1,0,-1
 229 0 l 1,1,-1
 645 551 l 1,2,3
 593 540 593 540 562 540 c 0,4,5
 342 540 342 540 203 667 c 128,-1,6
 64 794 64 794 64 999 c 0,7,8
 64 1143 64 1143 137 1253 c 128,-1,9
 210 1363 210 1363 334.5 1420.5 c 128,-1,10
 459 1478 459 1478 616.5 1478 c 128,-1,11
 774 1478 774 1478 900 1421.5 c 128,-1,12
 1026 1365 1026 1365 1098.5 1255 c 128,-1,13
 1171 1145 1171 1145 1171 989 c 0,14,15
 1170 834 1170 834 1058 658 c 0,16,17
 1034 622 1034 622 995 565 c 2,18,-1
 583 0 l 1,0,-1
366 1006 m 0,19,20
 366 748 366 748 624 748 c 0,21,22
 875 748 875 748 875 1011 c 0,23,24
 875 1129 875 1129 811 1196 c 128,-1,25
 747 1263 747 1263 626 1263 c 128,-1,26
 505 1263 505 1263 435.5 1194 c 128,-1,27
 366 1125 366 1125 366 1006 c 0,19,20
EndSplineSet
EndChar

StartChar: colon
Encoding: 58 58 29
Width: 448
GlyphClass: 2
Flags: W
LayerCount: 2
Fore
SplineSet
85 0 m 1,0,-1
 85 276 l 1,1,-1
 369 276 l 1,2,-1
 369 0 l 1,3,-1
 85 0 l 1,0,-1
85 789 m 1,4,-1
 85 1065 l 1,5,-1
 369 1065 l 1,6,-1
 369 789 l 1,7,-1
 85 789 l 1,4,-1
EndSplineSet
EndChar

StartChar: semicolon
Encoding: 59 59 30
Width: 425
GlyphClass: 2
Flags: W
LayerCount: 2
Fore
SplineSet
390 244 m 1,0,-1
 266 -326 l 1,1,-1
 94 -326 l 1,2,-1
 149 244 l 1,3,-1
 390 244 l 1,0,-1
105 788 m 1,4,-1
 105 1064 l 1,5,-1
 389 1064 l 1,6,-1
 389 788 l 1,7,-1
 105 788 l 1,4,-1
EndSplineSet
EndChar

StartChar: less
Encoding: 60 60 31
Width: 1082
GlyphClass: 2
Flags: W
LayerCount: 2
Fore
SplineSet
1043 876 m 1,0,-1
 341 557 l 1,1,-1
 1040 247 l 1,2,-1
 1040 29 l 1,3,-1
 35 493 l 1,4,-1
 35 619 l 1,5,-1
 1043 1096 l 1,6,-1
 1043 876 l 1,0,-1
EndSplineSet
EndChar

StartChar: equal
Encoding: 61 61 32
Width: 1184
GlyphClass: 2
Flags: W
LayerCount: 2
Fore
SplineSet
71 480 m 1,0,-1
 1114 480 l 1,1,-1
 1114 283 l 1,2,-1
 71 283 l 1,3,-1
 71 480 l 1,0,-1
70 837 m 1,4,-1
 1113 837 l 1,5,-1
 1113 639 l 1,6,-1
 70 639 l 1,7,-1
 70 837 l 1,4,-1
EndSplineSet
EndChar

StartChar: greater
Encoding: 62 62 33
Width: 1085
GlyphClass: 2
Flags: W
LayerCount: 2
Fore
SplineSet
40 259 m 1,0,-1
 744 562 l 1,1,-1
 45 890 l 1,2,-1
 45 1110 l 1,3,-1
 1051 619 l 1,4,-1
 1051 490 l 1,5,-1
 40 39 l 1,6,-1
 40 259 l 1,0,-1
EndSplineSet
EndChar

StartChar: question
Encoding: 63 63 34
Width: 887
GlyphClass: 2
Flags: W
LayerCount: 2
Fore
SplineSet
207 139 m 128,-1,1
 207 205 207 205 255 253 c 128,-1,2
 303 301 303 301 368.5 301 c 128,-1,3
 434 301 434 301 481 253 c 128,-1,4
 528 205 528 205 528 139 c 128,-1,5
 528 73 528 73 481 26.5 c 128,-1,6
 434 -20 434 -20 368.5 -20 c 128,-1,7
 303 -20 303 -20 255 26.5 c 128,-1,0
 207 73 207 73 207 139 c 128,-1,1
43 1369 m 1,8,9
 216 1478 216 1478 392 1478 c 0,10,11
 612 1478 612 1478 734 1358 c 0,12,13
 822 1270 822 1270 822 1138.5 c 128,-1,14
 822 1007 822 1007 731 876 c 0,15,16
 688 814 688 814 641 754 c 0,17,18
 507 584 507 584 437 452 c 1,19,-1
 318 452 l 1,20,21
 342 606 342 606 438 757 c 0,22,23
 476 816 476 816 514 872 c 0,24,25
 598 1000 598 1000 598 1087 c 128,-1,26
 598 1174 598 1174 545.5 1226.5 c 128,-1,27
 493 1279 493 1279 399 1279 c 0,28,29
 252 1279 252 1279 118 1193 c 1,30,-1
 43 1369 l 1,8,9
EndSplineSet
EndChar

StartChar: at
Encoding: 64 64 35
Width: 1633
GlyphClass: 2
Flags: W
LayerCount: 2
Fore
SplineSet
737 324 m 2,0,-1
 747 324 l 1,1,2
 831 328 831 328 883 407 c 0,3,4
 935 486 935 486 957 571 c 0,5,6
 1010 783 1010 783 1010 829 c 1,7,8
 956 837 956 837 889.5 837 c 128,-1,9
 823 837 823 837 758 785 c 128,-1,10
 693 733 693 733 658.5 649.5 c 128,-1,11
 624 566 624 566 624 472 c 0,12,13
 624 324 624 324 737 324 c 2,0,-1
945 246 m 1,14,15
 843 139 843 139 708.5 139 c 128,-1,16
 574 139 574 139 493.5 236.5 c 128,-1,17
 413 334 413 334 413 478 c 128,-1,18
 413 622 413 622 478 744 c 128,-1,19
 543 866 543 866 656 938 c 128,-1,20
 769 1010 769 1010 893.5 1010 c 128,-1,21
 1018 1010 1018 1010 1193 951 c 1,22,-1
 1217 942 l 1,23,-1
 1212 916 l 2,24,25
 1202 868 1202 868 1169 727 c 0,26,27
 1136 586 1136 586 1120 493 c 128,-1,28
 1104 400 1104 400 1104 366 c 128,-1,29
 1104 332 1104 332 1117.5 316.5 c 128,-1,30
 1131 301 1131 301 1167 301 c 0,31,32
 1236 301 1236 301 1286 358 c 0,33,34
 1384 468 1384 468 1384 693 c 128,-1,35
 1384 918 1384 918 1241.5 1053.5 c 128,-1,36
 1099 1189 1099 1189 856 1189 c 2,37,-1
 855 1189 l 1,38,39
 830 1215 830 1215 781 1215 c 128,-1,40
 732 1215 732 1215 628 1160 c 0,41,42
 524 1105 524 1105 425 1018 c 1,43,-1
 423 1018 l 2,44,45
 384 1018 384 1018 318.5 830.5 c 128,-1,46
 253 643 253 643 253 571 c 0,47,48
 253 285 253 285 421 117 c 128,-1,49
 589 -51 589 -51 862.5 -51 c 128,-1,50
 1136 -51 1136 -51 1311 91 c 1,51,-1
 1331 107 l 1,52,-1
 1442 -20 l 1,53,-1
 1418 -41 l 1,54,55
 1206 -230 1206 -230 875 -230 c 0,56,57
 699 -230 699 -230 546 -170.5 c 128,-1,58
 393 -111 393 -111 287.5 -8 c 128,-1,59
 182 95 182 95 119 242 c 128,-1,60
 56 389 56 389 56 566 c 0,61,62
 56 896 56 896 290 1137 c 0,63,64
 391 1240 391 1240 539.5 1304.5 c 128,-1,65
 688 1369 688 1369 847 1369 c 0,66,67
 1147 1369 1147 1369 1363 1174 c 128,-1,68
 1579 979 1579 979 1579 674 c 0,69,70
 1579 500 1579 500 1504.5 366.5 c 128,-1,71
 1430 233 1430 233 1307 166 c 0,72,73
 1228 122 1228 122 1143 122 c 0,74,75
 1003 122 1003 122 945 246 c 1,14,15
EndSplineSet
EndChar

StartChar: A
Encoding: 65 65 36
Width: 1300
GlyphClass: 2
Flags: W
LayerCount: 2
Fore
SplineSet
506 626 m 1,0,-1
 800 626 l 1,1,-1
 658 1117 l 1,2,-1
 506 626 l 1,0,-1
1029 0 m 1,3,-1
 870 444 l 1,4,-1
 442 444 l 1,5,-1
 285 0 l 1,6,-1
 -10 0 l 1,7,-1
 516 1445 l 1,8,-1
 796 1445 l 1,9,-1
 1310 0 l 1,10,-1
 1029 0 l 1,3,-1
EndSplineSet
EndChar

StartChar: B
Encoding: 66 66 37
Width: 1310
GlyphClass: 2
Flags: W
LayerCount: 2
Fore
SplineSet
419 672 m 1,0,-1
 419 202 l 1,1,-1
 630 202 l 2,2,3
 794 202 794 202 873 253 c 128,-1,4
 952 304 952 304 952 435.5 c 128,-1,5
 952 567 952 567 881 619.5 c 128,-1,6
 810 672 810 672 650 672 c 2,7,-1
 419 672 l 1,0,-1
419 1242 m 1,8,-1
 419 871 l 1,9,-1
 648 871 l 2,10,11
 780 871 780 871 845.5 908 c 128,-1,12
 911 945 911 945 911 1044 c 0,13,14
 911 1143 911 1143 857 1187 c 0,15,16
 803 1231 803 1231 682 1239 c 0,17,18
 635 1242 635 1242 560 1242 c 2,19,-1
 419 1242 l 1,8,-1
1015 785 m 1,20,21
 1248 687 1248 687 1248 423 c 0,22,23
 1248 102 1248 102 904 24 c 0,24,25
 800 0 800 0 670 0 c 2,26,-1
 121 0 l 1,27,-1
 121 1445 l 1,28,-1
 612 1445 l 2,29,30
 829 1445 829 1445 933.5 1411 c 128,-1,31
 1038 1377 1038 1377 1089 1337 c 0,32,33
 1200 1250 1200 1250 1200 1072 c 128,-1,34
 1200 894 1200 894 1015 785 c 1,20,21
EndSplineSet
EndChar

StartChar: C
Encoding: 67 67 38
Width: 1277
GlyphClass: 2
Flags: W
LayerCount: 2
Fore
SplineSet
792 1478 m 0,0,1
 1071 1478 1071 1478 1231 1337 c 1,2,-1
 1154 1127 l 1,3,4
 1084 1185 1084 1185 1006 1214 c 128,-1,5
 928 1243 928 1243 808 1243 c 0,6,7
 616 1243 616 1243 495 1104 c 128,-1,8
 374 965 374 965 374 723 c 128,-1,9
 374 481 374 481 493 346 c 128,-1,10
 612 211 612 211 814 211 c 128,-1,11
 1016 211 1016 211 1159 320 c 1,12,-1
 1232 107 l 1,13,14
 1128 32 1128 32 1022.5 6 c 0,15,16
 916 -20 916 -20 780 -20 c 128,-1,17
 644 -20 644 -20 514.5 30.5 c 128,-1,18
 385 81 385 81 286 175 c 128,-1,19
 187 269 187 269 129.5 413 c 0,20,21
 72 558 72 558 72 730 c 128,-1,22
 72 902 72 902 127.5 1042.5 c 128,-1,23
 183 1183 183 1183 279.5 1278 c 128,-1,24
 376 1373 376 1373 508 1425.5 c 128,-1,25
 640 1478 640 1478 792 1478 c 0,0,1
EndSplineSet
EndChar

StartChar: D
Encoding: 68 68 39
Width: 1497
GlyphClass: 2
Flags: W
LayerCount: 2
Fore
SplineSet
419 1220 m 1,0,-1
 419 223 l 1,1,-1
 620 223 l 2,2,3
 864 223 864 223 995 350 c 128,-1,4
 1126 477 1126 477 1126 715 c 0,5,6
 1126 997 1126 997 981 1108 c 0,7,8
 836 1220 836 1220 534 1220 c 2,9,-1
 419 1220 l 1,0,-1
121 1 m 1,10,-1
 121 1445 l 1,11,-1
 512 1445 l 2,12,13
 1423 1445 1423 1445 1423 719 c 0,14,15
 1423 545 1423 545 1363 408.5 c 0,16,17
 1302 272 1302 272 1194 183 c 0,18,19
 972 1 972 1 602 1 c 2,20,-1
 121 1 l 1,10,-1
EndSplineSet
EndChar

StartChar: E
Encoding: 69 69 40
Width: 1129
GlyphClass: 2
Flags: W
LayerCount: 2
Fore
SplineSet
1016 869 m 1,0,-1
 1016 651 l 1,1,-1
 419 651 l 1,2,-1
 419 219 l 1,3,-1
 1092 210 l 1,4,-1
 1080 0 l 1,5,-1
 121 0 l 1,6,-1
 121 1445 l 1,7,-1
 1062 1445 l 1,8,-1
 1039 1227 l 1,9,-1
 419 1227 l 1,10,-1
 419 869 l 1,11,-1
 1016 869 l 1,0,-1
EndSplineSet
EndChar

StartChar: F
Encoding: 70 70 41
Width: 1039
GlyphClass: 2
Flags: W
LayerCount: 2
Fore
SplineSet
987 853 m 1,0,-1
 987 636 l 1,1,-1
 419 636 l 1,2,-1
 419 1 l 1,3,-1
 121 1 l 1,4,-1
 121 1445 l 1,5,-1
 1028 1445 l 1,6,-1
 1007 1227 l 1,7,-1
 418 1227 l 1,8,-1
 418 853 l 1,9,-1
 987 853 l 1,0,-1
EndSplineSet
EndChar

StartChar: G
Encoding: 71 71 42
Width: 1431
GlyphClass: 2
Flags: W
LayerCount: 2
Fore
SplineSet
806 -20 m 0,0,1
 473 -20 473 -20 272.5 184.5 c 128,-1,2
 72 389 72 389 72 721.5 c 128,-1,3
 72 1054 72 1054 262 1264 c 0,4,5
 354 1364 354 1364 493.5 1421 c 128,-1,6
 633 1478 633 1478 804 1478 c 0,7,8
 1109 1478 1109 1478 1285 1337 c 1,9,-1
 1197 1142 l 1,10,11
 1023 1243 1023 1243 817 1243 c 0,12,13
 612 1243 612 1243 494 1113 c 0,14,15
 375 982 375 982 375 740 c 0,16,17
 375 505 375 505 479 359 c 0,18,19
 584 211 584 211 796 211 c 1,20,21
 954 211 954 211 1056 268 c 1,22,-1
 1056 583 l 1,23,-1
 745 583 l 1,24,-1
 757 791 l 1,25,-1
 1322 791 l 1,26,-1
 1322 115 l 1,27,28
 1188 49 1188 49 1070.5 14.5 c 128,-1,29
 953 -20 953 -20 806 -20 c 0,0,1
EndSplineSet
EndChar

StartChar: H
Encoding: 72 72 43
Width: 1474
GlyphClass: 2
Flags: W
LayerCount: 2
Fore
SplineSet
1055 645 m 1,0,-1
 419 645 l 1,1,-1
 419 1 l 1,2,-1
 121 1 l 1,3,-1
 121 1445 l 1,4,-1
 419 1445 l 1,5,-1
 419 855 l 1,6,-1
 1055 855 l 1,7,-1
 1055 1445 l 1,8,-1
 1353 1445 l 1,9,-1
 1353 0 l 1,10,-1
 1055 0 l 1,11,-1
 1055 645 l 1,0,-1
EndSplineSet
EndChar

StartChar: I
Encoding: 73 73 44
Width: 566
GlyphClass: 2
Flags: W
LayerCount: 2
Fore
SplineSet
432 1445 m 1,0,-1
 432 0 l 1,1,-1
 134 0 l 1,2,-1
 134 1445 l 1,3,-1
 432 1445 l 1,0,-1
EndSplineSet
EndChar

StartChar: J
Encoding: 74 74 45
Width: 636
GlyphClass: 2
Flags: W
LayerCount: 2
Fore
SplineSet
217 130 m 2,0,-1
 217 1445 l 1,1,-1
 515 1445 l 1,2,-1
 515 139 l 2,3,4
 515 14 515 14 492 -67 c 0,5,6
 470 -148 470 -148 412 -202 c 0,7,8
 306 -302 306 -302 18 -303 c 2,9,-1
 -28 -303 l 1,10,-1
 -45 -89 l 1,11,-1
 37 -89 l 2,12,13
 148 -89 148 -89 182.5 -42 c 128,-1,14
 217 5 217 5 217 130 c 2,0,-1
EndSplineSet
EndChar

StartChar: K
Encoding: 75 75 46
Width: 1307
GlyphClass: 2
Flags: W
LayerCount: 2
Fore
SplineSet
730 787 m 1,0,-1
 1337 0 l 1,1,-1
 992 0 l 1,2,-1
 495 658 l 1,3,-1
 419 582 l 1,4,-1
 419 0 l 1,5,-1
 121 0 l 1,6,-1
 121 1445 l 1,7,-1
 419 1445 l 1,8,-1
 419 844 l 1,9,-1
 924 1445 l 1,10,-1
 1277 1445 l 1,11,-1
 730 787 l 1,0,-1
EndSplineSet
EndChar

StartChar: L
Encoding: 76 76 47
Width: 1005
GlyphClass: 2
Flags: W
LayerCount: 2
Fore
SplineSet
121 1445 m 1,0,-1
 419 1445 l 1,1,-1
 419 218 l 1,2,-1
 1007 218 l 1,3,-1
 991 0 l 1,4,-1
 121 0 l 1,5,-1
 121 1445 l 1,0,-1
EndSplineSet
EndChar

StartChar: M
Encoding: 77 77 48
Width: 1736
GlyphClass: 2
Flags: W
LayerCount: 2
Fore
SplineSet
386 959 m 1,0,-1
 386 0 l 1,1,-1
 121 0 l 1,2,-1
 121 1445 l 1,3,-1
 402 1445 l 1,4,-1
 873 535 l 1,5,-1
 1340 1445 l 1,6,-1
 1615 1445 l 1,7,-1
 1615 0 l 1,8,-1
 1349 0 l 1,9,-1
 1349 950 l 1,10,-1
 978 206 l 1,11,-1
 763 206 l 1,12,-1
 386 959 l 1,0,-1
EndSplineSet
EndChar

StartChar: N
Encoding: 78 78 49
Width: 1448
GlyphClass: 2
Flags: W
LayerCount: 2
Fore
SplineSet
1327 0 m 1,0,-1
 1073 0 l 1,1,-1
 394 975 l 1,2,-1
 394 0 l 1,3,-1
 121 0 l 1,4,-1
 121 1445 l 1,5,-1
 369 1445 l 1,6,-1
 1054 471 l 1,7,-1
 1054 1445 l 1,8,-1
 1327 1445 l 1,9,-1
 1327 0 l 1,0,-1
EndSplineSet
EndChar

StartChar: O
Encoding: 79 79 50
Width: 1595
GlyphClass: 2
Flags: W
LayerCount: 2
Fore
SplineSet
1116.5 1101 m 128,-1,1
 1007 1243 1007 1243 799.5 1243 c 128,-1,2
 592 1243 592 1243 483 1101 c 128,-1,3
 374 959 374 959 374 722.5 c 128,-1,4
 374 486 374 486 483 348.5 c 128,-1,5
 592 211 592 211 799.5 211 c 128,-1,6
 1007 211 1007 211 1116.5 348.5 c 128,-1,7
 1226 486 1226 486 1226 722.5 c 128,-1,0
 1226 959 1226 959 1116.5 1101 c 128,-1,1
797 -20 m 128,-1,9
 589 -20 589 -20 426 67.5 c 128,-1,10
 263 155 263 155 167.5 326 c 128,-1,11
 72 497 72 497 72 728 c 128,-1,12
 72 959 72 959 167.5 1131 c 128,-1,13
 263 1303 263 1303 426 1390.5 c 128,-1,14
 589 1478 589 1478 797.5 1478 c 128,-1,15
 1006 1478 1006 1478 1169 1390.5 c 128,-1,16
 1332 1303 1332 1303 1427.5 1131 c 128,-1,17
 1523 959 1523 959 1523 728 c 128,-1,18
 1523 497 1523 497 1427.5 326 c 128,-1,19
 1332 155 1332 155 1168.5 67.5 c 128,-1,8
 1005 -20 1005 -20 797 -20 c 128,-1,9
EndSplineSet
EndChar

StartChar: P
Encoding: 80 80 51
Width: 1206
GlyphClass: 2
Flags: W
LayerCount: 2
Fore
SplineSet
419 737 m 1,0,1
 435 735 435 735 546.5 735 c 0,2,3
 658 736 658 736 714 750 c 0,4,5
 814 776 814 776 851.5 838.5 c 128,-1,6
 889 901 889 901 889 1002 c 128,-1,7
 889 1103 889 1103 816 1166 c 128,-1,8
 743 1229 743 1229 607 1229 c 2,9,-1
 419 1229 l 1,10,-1
 419 737 l 1,0,1
419 0 m 1,11,-1
 121 0 l 1,12,-1
 121 1445 l 1,13,-1
 605 1445 l 2,14,15
 877 1445 877 1445 1027.5 1335 c 128,-1,16
 1178 1225 1178 1225 1178 996 c 0,17,18
 1178 525 1178 525 628 525 c 0,19,20
 482 525 482 525 419 531 c 1,21,-1
 419 0 l 1,11,-1
EndSplineSet
EndChar

StartChar: Q
Encoding: 81 81 52
Width: 1595
GlyphClass: 2
Flags: W
LayerCount: 2
Fore
SplineSet
1257 -470 m 1,0,1
 1159 -399 1159 -399 1055 -267 c 128,-1,2
 951 -135 951 -135 886 -13 c 1,3,-1
 1061 103 l 1,4,5
 1118 0 1118 0 1196.5 -97.5 c 128,-1,6
 1275 -195 1275 -195 1410 -319 c 1,7,-1
 1257 -470 l 1,0,1
1116.5 1101 m 128,-1,9
 1007 1243 1007 1243 799.5 1243 c 128,-1,10
 592 1243 592 1243 483 1101 c 128,-1,11
 374 959 374 959 374 722.5 c 128,-1,12
 374 486 374 486 483 348.5 c 128,-1,13
 592 211 592 211 799.5 211 c 128,-1,14
 1007 211 1007 211 1116.5 348.5 c 128,-1,15
 1226 486 1226 486 1226 722.5 c 128,-1,8
 1226 959 1226 959 1116.5 1101 c 128,-1,9
797 -20 m 128,-1,17
 589 -20 589 -20 426 67.5 c 128,-1,18
 263 155 263 155 167.5 326 c 128,-1,19
 72 497 72 497 72 728 c 128,-1,20
 72 959 72 959 167.5 1131 c 128,-1,21
 263 1303 263 1303 426 1390.5 c 128,-1,22
 589 1478 589 1478 797.5 1478 c 128,-1,23
 1006 1478 1006 1478 1169 1390.5 c 128,-1,24
 1332 1303 1332 1303 1427.5 1131 c 128,-1,25
 1523 959 1523 959 1523 728 c 128,-1,26
 1523 497 1523 497 1427.5 326 c 128,-1,27
 1332 155 1332 155 1168.5 67.5 c 128,-1,16
 1005 -20 1005 -20 797 -20 c 128,-1,17
EndSplineSet
EndChar

StartChar: R
Encoding: 82 82 53
Width: 1303
GlyphClass: 2
Flags: W
LayerCount: 2
Fore
SplineSet
420 1228 m 1,0,-1
 420 809 l 1,1,-1
 686 809 l 2,2,3
 826 809 826 809 889.5 860.5 c 128,-1,4
 953 912 953 912 953 1022.5 c 128,-1,5
 953 1133 953 1133 888 1180.5 c 128,-1,6
 823 1228 823 1228 693 1228 c 2,7,-1
 420 1228 l 1,0,-1
1314 0 m 1,8,-1
 1001 0 l 1,9,-1
 843 345 l 1,10,-1
 717 595 l 1,11,12
 697 598 697 598 627 598 c 2,13,-1
 420 598 l 1,14,-1
 420 0 l 1,15,-1
 121 0 l 1,16,-1
 121 1445 l 1,17,-1
 678 1445 l 2,18,19
 1014 1444 1014 1444 1133 1324 c 0,20,21
 1229 1227 1229 1227 1229 1035 c 0,22,23
 1229 748 1229 748 970 651 c 1,24,25
 981 638 981 638 992 623.5 c 128,-1,26
 1003 609 1003 609 1013 596 c 128,-1,27
 1023 583 1023 583 1042.5 549.5 c 128,-1,28
 1062 516 1062 516 1314 0 c 1,8,-1
EndSplineSet
EndChar

StartChar: S
Encoding: 83 83 54
Width: 1193
GlyphClass: 2
Flags: W
LayerCount: 2
Fore
SplineSet
581 209 m 0,0,1
 850 209 850 209 850 380 c 0,2,3
 850 477 850 477 789 521 c 128,-1,4
 728 565 728 565 622 601 c 2,5,-1
 440 661 l 2,6,7
 238 727 238 727 156 828 c 0,8,9
 75 929 75 929 75 1065.5 c 0,10,11
 76 1202 76 1202 148 1296 c 0,12,13
 287 1478 287 1478 601 1478 c 128,-1,14
 915 1478 915 1478 1075 1363 c 1,15,-1
 998 1164 l 1,16,17
 853 1253 853 1253 613 1253 c 128,-1,18
 373 1253 373 1253 373 1096 c 0,19,20
 373 1020 373 1020 411.5 981.5 c 128,-1,21
 450 943 450 943 525 918 c 2,22,-1
 722 851 l 1,23,24
 901 791 901 791 982 734 c 128,-1,25
 1063 677 1063 677 1105 602 c 0,26,27
 1147 526 1147 526 1147 399 c 128,-1,28
 1147 272 1147 272 1071 172 c 0,29,30
 925 -20 925 -20 591.5 -20 c 129,-1,31
 258 -20 258 -20 63 104 c 1,32,-1
 142 321 l 1,33,34
 220 272 220 272 340.5 240.5 c 128,-1,35
 461 209 461 209 581 209 c 0,0,1
EndSplineSet
EndChar

StartChar: T
Encoding: 84 84 55
Width: 1090
GlyphClass: 2
Flags: W
LayerCount: 2
Fore
SplineSet
-27 1227 m 1,0,-1
 -27 1445 l 1,1,-1
 1117 1445 l 1,2,-1
 1117 1227 l 1,3,-1
 693 1227 l 1,4,-1
 693 0 l 1,5,-1
 395 0 l 1,6,-1
 395 1227 l 1,7,-1
 -27 1227 l 1,0,-1
EndSplineSet
EndChar

StartChar: U
Encoding: 85 85 56
Width: 1390
GlyphClass: 2
Flags: W
LayerCount: 2
Fore
SplineSet
695 -20 m 128,-1,1
 400 -20 400 -20 253.5 122 c 128,-1,2
 107 264 107 264 107 538 c 2,3,-1
 107 1445 l 1,4,-1
 405 1445 l 1,5,-1
 405 553 l 2,6,7
 405 369 405 369 469.5 288.5 c 128,-1,8
 534 208 534 208 695 208 c 128,-1,9
 856 208 856 208 920.5 288.5 c 128,-1,10
 985 369 985 369 985 553 c 2,11,-1
 985 1445 l 1,12,-1
 1283 1445 l 1,13,-1
 1283 538 l 2,14,15
 1283 264 1283 264 1136.5 122 c 128,-1,0
 990 -20 990 -20 695 -20 c 128,-1,1
EndSplineSet
EndChar

StartChar: V
Encoding: 86 86 57
Width: 1320
GlyphClass: 2
Flags: W
LayerCount: 2
Fore
SplineSet
674 358 m 1,0,-1
 1043 1445 l 1,1,-1
 1331 1445 l 1,2,-1
 803 0 l 1,3,-1
 539 0 l 1,4,-1
 -11 1445 l 1,5,-1
 286 1445 l 1,6,-1
 674 358 l 1,0,-1
EndSplineSet
EndChar

StartChar: W
Encoding: 87 87 58
Width: 2080
GlyphClass: 2
Flags: W
LayerCount: 2
Fore
SplineSet
1489 377 m 1,0,-1
 1808 1445 l 1,1,-1
 2094 1445 l 1,2,-1
 1629 0 l 1,3,-1
 1348 0 l 1,4,-1
 1038 1062 l 1,5,-1
 683 0 l 1,6,-1
 405 0 l 1,7,-1
 -14 1445 l 1,8,-1
 273 1445 l 1,9,-1
 558 387 l 1,10,-1
 918 1445 l 1,11,-1
 1163 1445 l 1,12,-1
 1489 377 l 1,0,-1
EndSplineSet
EndChar

StartChar: X
Encoding: 88 88 59
Width: 1327
GlyphClass: 2
Flags: W
LayerCount: 2
Fore
SplineSet
-33 0 m 1,0,-1
 495 729 l 1,1,-1
 14 1445 l 1,2,-1
 338 1445 l 1,3,-1
 678 920 l 1,4,-1
 1037 1445 l 1,5,-1
 1342 1445 l 1,6,-1
 841 732 l 1,7,-1
 1360 0 l 1,8,-1
 1020 0 l 1,9,-1
 663 524 l 1,10,-1
 288 0 l 1,11,-1
 -33 0 l 1,0,-1
EndSplineSet
EndChar

StartChar: Y
Encoding: 89 89 60
Width: 1242
GlyphClass: 2
Flags: W
LayerCount: 2
Fore
SplineSet
1278 1445 m 1,0,-1
 777 586 l 1,1,-1
 777 0 l 1,2,-1
 479 0 l 1,3,-1
 479 586 l 1,4,-1
 -36 1445 l 1,5,-1
 273 1445 l 1,6,-1
 624 842 l 1,7,-1
 973 1445 l 1,8,-1
 1278 1445 l 1,0,-1
EndSplineSet
EndChar

StartChar: Z
Encoding: 90 90 61
Width: 1212
GlyphClass: 2
Flags: W
LayerCount: 2
Fore
SplineSet
1181 1445 m 1,0,-1
 1181 1287 l 1,1,-1
 423 218 l 1,2,-1
 1173 218 l 1,3,-1
 1173 0 l 1,4,-1
 57 0 l 1,5,-1
 57 173 l 1,6,-1
 811 1227 l 1,7,-1
 90 1227 l 1,8,-1
 90 1445 l 1,9,-1
 1181 1445 l 1,0,-1
EndSplineSet
EndChar

StartChar: bracketleft
Encoding: 91 91 62
Width: 606
GlyphClass: 2
Flags: W
LayerCount: 2
Fore
SplineSet
573 -7 m 1,0,-1
 573 -189 l 1,1,-1
 121 -189 l 1,2,-1
 121 1569 l 1,3,-1
 573 1569 l 1,4,-1
 573 1387 l 1,5,-1
 419 1387 l 1,6,-1
 419 -7 l 1,7,-1
 573 -7 l 1,0,-1
EndSplineSet
EndChar

StartChar: backslash
Encoding: 92 92 63
Width: 972
GlyphClass: 2
Flags: W
LayerCount: 2
Fore
SplineSet
939 -119 m 1,0,-1
 716 -119 l 1,1,-1
 34 1461 l 1,2,-1
 259 1461 l 1,3,-1
 939 -119 l 1,0,-1
EndSplineSet
EndChar

StartChar: bracketright
Encoding: 93 93 64
Width: 606
GlyphClass: 2
Flags: W
LayerCount: 2
Fore
SplineSet
187 1387 m 1,0,-1
 33 1387 l 1,1,-1
 33 1569 l 1,2,-1
 485 1569 l 1,3,-1
 485 -189 l 1,4,-1
 33 -189 l 1,5,-1
 33 -7 l 1,6,-1
 187 -7 l 1,7,-1
 187 1387 l 1,0,-1
EndSplineSet
EndChar

StartChar: asciicircum
Encoding: 94 94 65
Width: 1181
GlyphClass: 2
Flags: W
LayerCount: 2
Fore
SplineSet
258 550 m 1,0,-1
 41 550 l 1,1,-1
 524 1442 l 1,2,-1
 651 1442 l 1,3,-1
 1140 550 l 1,4,-1
 925 550 l 1,5,-1
 586 1192 l 1,6,-1
 258 550 l 1,0,-1
EndSplineSet
EndChar

StartChar: underscore
Encoding: 95 95 66
Width: 1145
GlyphClass: 2
Flags: W
LayerCount: 2
Fore
SplineSet
1075 -135 m 1,0,-1
 1075 -323 l 1,1,-1
 70 -323 l 1,2,-1
 70 -135 l 1,3,-1
 1075 -135 l 1,0,-1
EndSplineSet
EndChar

StartChar: grave
Encoding: 96 96 67
Width: 471
GlyphClass: 2
Flags: W
LayerCount: 2
Fore
SplineSet
295 1176 m 1,0,1
 246 1227 246 1227 144 1330 c 0,2,3
 42 1433 42 1433 -39 1516 c 1,4,-1
 275 1516 l 1,5,-1
 504 1176 l 1,6,-1
 295 1176 l 1,0,1
EndSplineSet
EndChar

StartChar: a
Encoding: 97 97 68
Width: 1070
GlyphClass: 2
Flags: W
LayerCount: 2
Fore
SplineSet
354 197.5 m 128,-1,1
 387 162 387 162 453.5 162 c 128,-1,2
 520 162 520 162 569.5 183 c 128,-1,3
 619 204 619 204 685 250 c 1,4,-1
 685 501 l 1,5,-1
 608 489 l 1,6,7
 453 466 453 466 417.5 445 c 128,-1,8
 382 424 382 424 361 405 c 0,9,10
 321 369 321 369 321 301 c 128,-1,0
 321 233 321 233 354 197.5 c 128,-1,1
722 92 m 1,11,12
 658 40 658 40 570 11 c 128,-1,13
 482 -18 482 -18 404 -18 c 0,14,15
 258 -18 258 -18 162.5 54.5 c 128,-1,16
 67 127 67 127 67 284 c 0,17,18
 67 371 67 371 97.5 434.5 c 128,-1,19
 128 498 128 498 165 534 c 128,-1,20
 202 570 202 570 293 599.5 c 128,-1,21
 384 629 384 629 442 640 c 128,-1,22
 500 651 500 651 584 664.5 c 128,-1,23
 668 678 668 678 685 681 c 1,24,-1
 685 720 l 2,25,26
 685 899 685 899 500 899 c 0,27,28
 416 899 416 899 301 869.5 c 128,-1,29
 186 840 186 840 176 838 c 1,30,-1
 130 1023 l 1,31,32
 306 1103 306 1103 564 1103 c 0,33,34
 753 1103 753 1103 860.5 1015.5 c 128,-1,35
 968 928 968 928 968 758 c 2,36,-1
 968 0 l 1,37,-1
 751 0 l 1,38,-1
 722 92 l 1,11,12
EndSplineSet
EndChar

StartChar: b
Encoding: 98 98 69
Width: 1240
GlyphClass: 2
Flags: W
LayerCount: 2
Fore
SplineSet
956.5 57 m 128,-1,1
 850 -18 850 -18 725.5 -18 c 128,-1,2
 601 -18 601 -18 514.5 29 c 128,-1,3
 428 76 428 76 388 151 c 1,4,-1
 382 2 l 1,5,-1
 104 2 l 1,6,-1
 104 1496 l 1,7,-1
 387 1516 l 1,8,-1
 387 944 l 1,9,10
 420 1009 420 1009 506 1056.5 c 128,-1,11
 592 1104 592 1104 726 1104 c 0,12,-1
 728 1105 l 0,13,14
 860 1105 860 1105 966 1027 c 0,15,16
 1072 949 1072 949 1125 824 c 128,-1,17
 1178 699 1178 699 1178 544.5 c 128,-1,18
 1178 390 1178 390 1120.5 261 c 128,-1,0
 1063 132 1063 132 956.5 57 c 128,-1,1
544 208 m 0,19,20
 588 192 588 192 640 191 c 0,21,22
 746 191 746 191 826 268 c 128,-1,23
 906 345 906 345 906 540 c 0,24,25
 906 814 906 814 734 880 c 0,26,27
 690 896 690 896 640 896 c 0,28,29
 536 896 536 896 459.5 815.5 c 128,-1,30
 383 735 383 735 383 540 c 0,31,32
 384 269 384 269 544 208 c 0,19,20
EndSplineSet
EndChar

StartChar: c
Encoding: 99 99 70
Width: 957
GlyphClass: 2
Flags: W
LayerCount: 2
Fore
SplineSet
919 74 m 1,0,1
 777 -21 777 -21 606 -21 c 1,2,3
 366 -21 366 -21 214 123.5 c 128,-1,4
 62 268 62 268 62 567 c 128,-1,5
 62 866 62 866 285 1016 c 0,6,7
 413 1102 413 1102 595 1102 c 0,8,-1
 599 1102 l 0,9,10
 783 1101 783 1101 907 1008 c 1,11,-1
 862 819 l 1,12,13
 823 847 823 847 753.5 871 c 128,-1,14
 684 895 684 895 620 895 c 0,15,16
 494 895 494 895 414 807.5 c 128,-1,17
 334 720 334 720 334 539.5 c 128,-1,18
 334 359 334 359 411 272 c 128,-1,19
 488 185 488 185 621 185 c 128,-1,20
 754 185 754 185 866 264 c 1,21,-1
 919 74 l 1,0,1
EndSplineSet
EndChar

StartChar: d
Encoding: 100 100 71
Width: 1237
GlyphClass: 2
Flags: W
LayerCount: 2
Fore
SplineSet
504 206 m 0,0,1
 548 189 548 189 600 189 c 0,2,3
 707 189 707 189 782 265 c 128,-1,4
 857 341 857 341 857 538 c 0,5,6
 856 809 856 809 694 876 c 0,7,8
 650 894 650 894 600 894 c 0,9,10
 498 894 498 894 416 818 c 128,-1,11
 334 742 334 742 334 538 c 0,12,13
 334 271 334 271 504 206 c 0,0,1
549 -20 m 1,14,15
 324 -15 324 -15 193 143.5 c 128,-1,16
 62 302 62 302 62 540 c 128,-1,17
 62 778 62 778 188 940 c 0,18,19
 314 1103 314 1103 548 1103 c 0,20,21
 666 1103 666 1103 742 1056.5 c 128,-1,22
 818 1010 818 1010 853 942 c 1,23,-1
 853 1496 l 1,24,-1
 1136 1516 l 1,25,-1
 1136 0 l 1,26,-1
 859 0 l 1,27,-1
 853 149 l 1,28,29
 763 -20 763 -20 549 -20 c 1,14,15
EndSplineSet
EndChar

StartChar: e
Encoding: 101 101 72
Width: 1109
GlyphClass: 2
Flags: W
LayerCount: 2
Fore
SplineSet
341 475 m 1,0,1
 349 184 349 184 660 184 c 0,2,3
 820 184 820 184 945 278 c 1,4,-1
 1024 105 l 1,5,6
 860 -20 860 -20 630 -20 c 0,7,8
 358 -20 358 -20 210 130 c 128,-1,9
 62 280 62 280 62 541 c 0,10,11
 62 699 62 699 122.5 825.5 c 128,-1,12
 183 952 183 952 302.5 1027.5 c 128,-1,13
 422 1103 422 1103 561 1103 c 0,14,15
 818 1103 818 1103 936.5 944.5 c 128,-1,16
 1055 786 1055 786 1055 563 c 1,17,-1
 1053 475 l 1,18,-1
 341 475 l 1,0,1
344 627 m 1,19,-1
 798 627 l 1,20,21
 798 756 798 756 743 825.5 c 128,-1,22
 688 895 688 895 597 895 c 128,-1,23
 506 895 506 895 430 836 c 128,-1,24
 354 777 354 777 344 627 c 1,19,-1
EndSplineSet
EndChar

StartChar: f
Encoding: 102 102 73
Width: 708
GlyphClass: 2
Flags: W
LayerCount: 2
Fore
SplineSet
7 894 m 1,0,-1
 7 1063 l 1,1,-1
 178 1063 l 1,2,-1
 178 1096 l 2,3,4
 178 1288 178 1288 209 1366 c 128,-1,5
 240 1444 240 1444 302 1485 c 0,6,7
 395 1546 395 1546 588 1546 c 2,8,-1
 683 1546 l 1,9,-1
 706 1336 l 1,10,-1
 614 1336 l 2,11,12
 523 1336 523 1336 492 1295.5 c 128,-1,13
 461 1255 461 1255 461 1152 c 2,14,-1
 461 1063 l 1,15,-1
 699 1063 l 1,16,-1
 699 894 l 1,17,-1
 461 894 l 1,18,-1
 461 0 l 1,19,-1
 178 0 l 1,20,-1
 178 894 l 1,21,-1
 7 894 l 1,0,-1
EndSplineSet
EndChar

StartChar: g
Encoding: 103 103 74
Width: 1235
GlyphClass: 2
Flags: W
LayerCount: 2
Fore
SplineSet
350 -488 m 1,0,-1
 330 -269 l 1,1,-1
 442 -269 l 2,2,3
 637 -270 637 -270 672 -260 c 0,4,5
 767 -235 767 -235 786 -212 c 0,6,7
 835 -153 835 -153 843 -114 c 0,8,9
 860 -34 860 -34 860 57 c 2,10,-1
 860 143 l 1,11,12
 784 36 784 36 670 11 c 0,13,14
 620 0 620 0 538 0 c 128,-1,15
 456 0 456 0 366 37.5 c 128,-1,16
 276 75 276 75 208 143.5 c 128,-1,17
 140 212 140 212 101 317 c 128,-1,18
 62 422 62 422 62 539 c 0,19,20
 62 859 62 859 265 1010 c 0,21,22
 391 1103 391 1103 540 1103 c 0,23,24
 760 1102 760 1102 860 958 c 1,25,-1
 860 1063 l 1,26,-1
 1143 1063 l 1,27,-1
 1143 65 l 2,28,29
 1143 -84 1143 -84 1112 -184.5 c 0,30,31
 1082 -285 1082 -285 1006 -355 c 0,32,33
 863 -488 863 -488 488 -488 c 2,34,-1
 350 -488 l 1,0,-1
410.5 301.5 m 128,-1,36
 487 206 487 206 605 206 c 128,-1,37
 723 206 723 206 797.5 299 c 128,-1,38
 872 392 872 392 872 547 c 2,39,-1
 872 559 l 1,40,41
 869 713 869 713 794 803 c 128,-1,42
 719 893 719 893 596 894 c 0,43,-1
 593 894 l 0,44,45
 472 894 472 894 404 802 c 0,46,47
 334 709 334 709 334 553 c 128,-1,35
 334 397 334 397 410.5 301.5 c 128,-1,36
EndSplineSet
EndChar

StartChar: h
Encoding: 104 104 75
Width: 1197
GlyphClass: 2
Flags: W
LayerCount: 2
Fore
SplineSet
384 0 m 1,0,-1
 101 0 l 1,1,-1
 101 1496 l 1,2,-1
 384 1516 l 1,3,-1
 384 946 l 1,4,5
 539 1103 539 1103 734 1103 c 0,6,7
 929 1104 929 1104 1030 954 c 0,8,9
 1105 844 1105 844 1105 647 c 2,10,-1
 1105 0 l 1,11,-1
 822 0 l 1,12,-1
 822 640 l 2,13,14
 822 769 822 769 788 831.5 c 128,-1,15
 754 894 754 894 666.5 894 c 128,-1,16
 579 894 579 894 504 841.5 c 128,-1,17
 429 789 429 789 384 715 c 1,18,-1
 384 0 l 1,0,-1
EndSplineSet
EndChar

StartChar: i
Encoding: 105 105 76
Width: 527
GlyphClass: 2
Flags: W
LayerCount: 2
Fore
SplineSet
403 1478 m 1,0,-1
 403 1246 l 1,1,-1
 119 1246 l 1,2,-1
 119 1478 l 1,3,-1
 403 1478 l 1,0,-1
402 1063 m 1,4,-1
 402 0 l 1,5,-1
 119 0 l 1,6,-1
 119 1063 l 1,7,-1
 402 1063 l 1,4,-1
EndSplineSet
EndChar

StartChar: j
Encoding: 106 106 77
Width: 547
GlyphClass: 2
Flags: W
LayerCount: 2
Fore
SplineSet
442 1478 m 1,0,-1
 442 1246 l 1,1,-1
 159 1246 l 1,2,-1
 159 1478 l 1,3,-1
 442 1478 l 1,0,-1
442 1063 m 1,4,-1
 442 81 l 2,5,6
 442 -189 442 -189 371 -277 c 0,7,8
 300 -365 300 -365 176 -389 c 0,9,10
 108 -402 108 -402 16 -402 c 2,11,-1
 -45 -402 l 1,12,-1
 -75 -193 l 1,13,-1
 -16 -193 l 2,14,15
 42 -193 42 -193 76 -184 c 128,-1,16
 110 -175 110 -175 129 -148 c 128,-1,17
 148 -121 148 -121 153.5 -84.5 c 128,-1,18
 159 -48 159 -48 159 19 c 2,19,-1
 159 1063 l 1,20,-1
 442 1063 l 1,4,-1
EndSplineSet
EndChar

StartChar: k
Encoding: 107 107 78
Width: 1105
GlyphClass: 2
Flags: W
LayerCount: 2
Fore
SplineSet
101 1496 m 1,0,-1
 384 1516 l 1,1,-1
 384 659 l 1,2,-1
 783 1063 l 1,3,-1
 1121 1063 l 1,4,-1
 696 627 l 1,5,-1
 1168 0 l 1,6,-1
 822 0 l 1,7,-1
 458 518 l 1,8,-1
 384 463 l 1,9,-1
 384 0 l 1,10,-1
 101 0 l 1,11,-1
 101 1496 l 1,0,-1
EndSplineSet
EndChar

StartChar: l
Encoding: 108 108 79
Width: 678
GlyphClass: 2
Flags: W
LayerCount: 2
Fore
SplineSet
118 456 m 2,0,-1
 118 1496 l 1,1,-1
 401 1516 l 1,2,-1
 401 440 l 2,3,4
 401 289 401 289 426 252 c 128,-1,5
 451 215 451 215 489 208.5 c 128,-1,6
 527 202 527 202 567 202 c 1,7,-1
 656 208 l 1,8,-1
 672 1 l 1,9,10
 568 -13 568 -13 491.5 -13 c 0,11,12
 416 -14 416 -14 346 6 c 0,13,14
 211 44 211 44 164.5 153 c 128,-1,15
 118 262 118 262 118 456 c 2,0,-1
EndSplineSet
EndChar

StartChar: m
Encoding: 109 109 80
Width: 1836
GlyphClass: 2
Flags: W
LayerCount: 2
Fore
SplineSet
101 0 m 1,0,-1
 101 1063 l 1,1,-1
 340 1063 l 1,2,-1
 364 921 l 1,3,4
 423 997 423 997 523.5 1048.5 c 128,-1,5
 624 1100 624 1100 736 1103 c 1,6,7
 942 1103 942 1103 1011 924 c 1,8,9
 1163 1102 1163 1102 1394 1103 c 1,10,11
 1662 1103 1662 1103 1726 831 c 0,12,13
 1744 752 1744 752 1744 652 c 2,14,-1
 1744 0 l 1,15,-1
 1461 0 l 1,16,-1
 1461 592 l 2,17,18
 1461 760 1461 760 1434 827 c 128,-1,19
 1407 894 1407 894 1319 894 c 1,20,21
 1158 889 1158 889 1068 726 c 1,22,-1
 1068 0 l 1,23,-1
 785 0 l 1,24,-1
 785 611 l 2,25,26
 785 782 785 782 745 838 c 0,27,28
 705 894 705 894 625 894 c 0,29,30
 481 894 481 894 384 727 c 1,31,-1
 384 0 l 1,32,-1
 101 0 l 1,0,-1
EndSplineSet
EndChar

StartChar: n
Encoding: 110 110 81
Width: 1197
GlyphClass: 2
Flags: W
LayerCount: 2
Fore
SplineSet
738 1103 m 0,0,1
 924 1099 924 1099 1014.5 976.5 c 128,-1,2
 1105 854 1105 854 1105 647 c 2,3,-1
 1105 0 l 1,4,-1
 822 0 l 1,5,-1
 822 620 l 2,6,7
 822 790 822 790 779.5 842 c 128,-1,8
 737 894 737 894 654 894 c 128,-1,9
 571 894 571 894 495.5 842.5 c 128,-1,10
 420 791 420 791 384 724 c 1,11,-1
 384 0 l 1,12,-1
 101 0 l 1,13,-1
 101 1063 l 1,14,-1
 337 1063 l 1,15,-1
 360 922 l 1,16,17
 429 1003 429 1003 527 1054 c 0,18,19
 621 1103 621 1103 729 1103 c 0,20,21
 734 1103 734 1103 738 1103 c 0,0,1
EndSplineSet
EndChar

StartChar: o
Encoding: 111 111 82
Width: 1174
GlyphClass: 2
Flags: W
LayerCount: 2
Fore
SplineSet
771.5 277 m 128,-1,1
 840 368 840 368 840 539.5 c 128,-1,2
 840 711 840 711 771 802.5 c 128,-1,3
 702 894 702 894 587 894 c 128,-1,4
 472 894 472 894 403 802.5 c 128,-1,5
 334 711 334 711 334 539.5 c 128,-1,6
 334 368 334 368 402.5 277 c 128,-1,7
 471 186 471 186 587 186 c 128,-1,0
 703 186 703 186 771.5 277 c 128,-1,1
1054 831 m 128,-1,9
 1112 705 1112 705 1112 539.5 c 128,-1,10
 1112 374 1112 374 1054 250 c 128,-1,11
 996 126 996 126 876 53 c 128,-1,12
 756 -20 756 -20 587 -20 c 128,-1,13
 418 -20 418 -20 298 53 c 0,14,15
 62 198 62 198 62 542 c 0,16,17
 62 887 62 887 298 1030 c 0,18,19
 418 1103 418 1103 587 1103 c 128,-1,20
 756 1103 756 1103 876 1030 c 128,-1,8
 996 957 996 957 1054 831 c 128,-1,9
EndSplineSet
EndChar

StartChar: p
Encoding: 112 112 83
Width: 1241
GlyphClass: 2
Flags: W
LayerCount: 2
Fore
SplineSet
460 264 m 0,0,1
 575 196 575 196 646 189 c 1,2,3
 752 189 752 189 827.5 268 c 128,-1,4
 903 347 903 347 903 538 c 0,5,6
 903 814 903 814 735 878 c 0,7,8
 692 894 692 894 641 894 c 0,9,10
 537 894 537 894 458.5 813.5 c 128,-1,11
 380 733 380 733 380 536 c 128,-1,12
 380 339 380 339 460 264 c 0,0,1
101 -410 m 1,13,-1
 101 1063 l 1,14,-1
 357 1063 l 1,15,-1
 377 921 l 1,16,17
 463 1103 463 1103 693 1103 c 0,18,19
 964 1104 964 1104 1098 862 c 0,20,21
 1174 724 1174 724 1175 546 c 0,22,23
 1175 311 1175 311 1053 150 c 0,24,25
 994 72 994 72 902 26.5 c 128,-1,26
 810 -19 810 -19 697 -20 c 1,27,28
 478 -20 478 -20 384 132 c 1,29,-1
 384 -381 l 1,30,-1
 101 -410 l 1,13,-1
EndSplineSet
EndChar

StartChar: q
Encoding: 113 113 84
Width: 1237
GlyphClass: 2
Flags: W
LayerCount: 2
Fore
SplineSet
780 813 m 0,0,1
 671 885 671 885 601 894 c 1,2,3
 498 894 498 894 416 818 c 128,-1,4
 334 742 334 742 334 538 c 0,5,6
 334 271 334 271 504 206 c 0,7,8
 548 189 548 189 600 189 c 0,9,10
 707 189 707 189 782 265 c 128,-1,11
 857 341 857 341 857 536.5 c 128,-1,12
 857 732 857 732 780 813 c 0,0,1
678 1 m 0,13,14
 618 -20 618 -20 524 -20 c 0,15,16
 522 -20 522 -20 519 -20 c 0,17,18
 421 -20 421 -20 330 26 c 128,-1,19
 239 72 239 72 181 150 c 0,20,21
 62 310 62 310 62 546 c 0,22,23
 62 722 62 722 141.5 867.5 c 0,24,25
 220 1014 220 1014 368 1072 c 0,26,27
 448 1104 448 1104 543 1103 c 0,28,29
 774 1103 774 1103 860 921 c 1,30,-1
 880 1063 l 1,31,-1
 1136 1063 l 1,32,-1
 1136 -379 l 1,33,-1
 853 -410 l 1,34,-1
 853 150 l 1,35,36
 818 93 818 93 779 57.5 c 128,-1,37
 740 22 740 22 678 1 c 0,13,14
EndSplineSet
EndChar

StartChar: r
Encoding: 114 114 85
Width: 692
GlyphClass: 2
Flags: W
LayerCount: 2
Fore
SplineSet
101 0 m 1,0,-1
 101 1063 l 1,1,-1
 363 1063 l 1,2,-1
 383 918 l 1,3,4
 437 993 437 993 498 1028 c 128,-1,5
 559 1063 559 1063 655 1063 c 2,6,-1
 683 1063 l 1,7,-1
 697 848 l 1,8,-1
 622 848 l 2,9,10
 476 848 476 848 430 779 c 0,11,12
 384 710 384 710 384 586 c 2,13,-1
 384 0 l 1,14,-1
 101 0 l 1,0,-1
EndSplineSet
EndChar

StartChar: s
Encoding: 115 115 86
Width: 928
GlyphClass: 2
Flags: W
LayerCount: 2
Fore
SplineSet
332 798 m 0,0,1
 332 754 332 754 357.5 732 c 128,-1,2
 383 710 383 710 452 686 c 2,3,-1
 617 629 l 2,4,5
 724 592 724 592 802 516 c 0,6,7
 880 440 880 440 880 309 c 128,-1,8
 880 178 880 178 785.5 80 c 128,-1,9
 691 -18 691 -18 514 -18 c 0,10,11
 216 -18 216 -18 67 88 c 1,12,-1
 123 273 l 1,13,14
 172 241 172 241 274.5 211 c 128,-1,15
 377 181 377 181 463 181 c 0,16,17
 622 181 622 181 622 293 c 0,18,19
 622 339 622 339 601 361.5 c 128,-1,20
 580 384 580 384 518 407 c 2,21,-1
 358 466 l 2,22,23
 152 540 152 540 102 664 c 0,24,25
 82 714 82 714 81 779 c 0,26,27
 81 940 81 940 187.5 1021.5 c 128,-1,28
 294 1103 294 1103 474 1103 c 0,29,30
 713 1103 713 1103 833 1018 c 1,31,-1
 785 833 l 1,32,33
 739 858 739 858 653.5 879.5 c 128,-1,34
 568 901 568 901 493 901 c 0,35,36
 332 901 332 901 332 798 c 0,0,1
EndSplineSet
EndChar

StartChar: t
Encoding: 116 116 87
Width: 773
GlyphClass: 2
Flags: W
LayerCount: 2
Fore
SplineSet
477 892 m 1,0,-1
 477 440 l 2,1,2
 477 289 477 289 502 252 c 128,-1,3
 527 215 527 215 565 208.5 c 128,-1,4
 603 202 603 202 643 202 c 1,5,-1
 732 208 l 1,6,-1
 748 1 l 1,7,8
 644 -13 644 -13 567.5 -13 c 0,9,10
 492 -14 492 -14 422 6 c 0,11,12
 287 44 287 44 240.5 153 c 128,-1,13
 194 262 194 262 194 456 c 2,14,-1
 194 892 l 1,15,-1
 9 892 l 1,16,-1
 26 1063 l 1,17,-1
 214 1063 l 1,18,-1
 311 1354 l 1,19,-1
 477 1354 l 1,20,-1
 477 1063 l 1,21,-1
 739 1063 l 1,22,-1
 739 892 l 1,23,-1
 477 892 l 1,0,-1
EndSplineSet
EndChar

StartChar: u
Encoding: 117 117 88
Width: 1126
GlyphClass: 2
Flags: W
LayerCount: 2
Fore
SplineSet
563 186 m 128,-1,1
 754 186 754 186 754 389 c 2,2,-1
 754 1063 l 1,3,-1
 1037 1063 l 1,4,-1
 1037 386 l 2,5,6
 1037 186 1037 186 909.5 83 c 128,-1,7
 782 -20 782 -20 563 -20 c 128,-1,8
 344 -20 344 -20 216.5 82 c 128,-1,9
 89 184 89 184 89 386 c 2,10,-1
 89 1063 l 1,11,-1
 372 1063 l 1,12,-1
 372 389 l 2,13,0
 372 186 372 186 563 186 c 128,-1,1
EndSplineSet
EndChar

StartChar: v
Encoding: 118 118 89
Width: 1112
GlyphClass: 2
Flags: W
LayerCount: 2
Fore
SplineSet
452 0 m 1,0,-1
 6 1063 l 1,1,-1
 302 1063 l 1,2,-1
 587 296 l 1,3,-1
 813 1063 l 1,4,-1
 1106 1063 l 1,5,-1
 716 0 l 1,6,-1
 452 0 l 1,0,-1
EndSplineSet
EndChar

StartChar: w
Encoding: 119 119 90
Width: 1691
GlyphClass: 2
Flags: W
LayerCount: 2
Fore
SplineSet
2 1063 m 1,0,-1
 285 1063 l 1,1,-1
 475 380 l 1,2,-1
 727 1063 l 1,3,-1
 973 1063 l 1,4,-1
 1186 385 l 1,5,-1
 1409 1063 l 1,6,-1
 1689 1063 l 1,7,-1
 1303 0 l 1,8,-1
 1068 0 l 1,9,-1
 843 765 l 1,10,-1
 574 0 l 1,11,-1
 339 0 l 1,12,-1
 2 1063 l 1,0,-1
EndSplineSet
EndChar

StartChar: x
Encoding: 120 120 91
Width: 1162
GlyphClass: 2
Flags: W
LayerCount: 2
Fore
SplineSet
833 1063 m 1,0,-1
 1127 1063 l 1,1,-1
 765 543 l 1,2,-1
 1139 0 l 1,3,-1
 821 0 l 1,4,-1
 587 376 l 1,5,-1
 333 0 l 1,6,-1
 27 0 l 1,7,-1
 399 539 l 1,8,-1
 47 1063 l 1,9,-1
 356 1063 l 1,10,-1
 587 696 l 1,11,-1
 833 1063 l 1,0,-1
EndSplineSet
EndChar

StartChar: y
Encoding: 121 121 92
Width: 1079
GlyphClass: 2
Flags: W
LayerCount: 2
Fore
SplineSet
549 355 m 1,0,-1
 790 1063 l 1,1,-1
 1084 1063 l 1,2,-1
 647 -72 l 2,3,4
 569 -274 569 -274 469 -342 c 0,5,6
 369 -410 369 -410 194 -410 c 2,7,-1
 57 -410 l 1,8,-1
 30 -206 l 1,9,-1
 104 -206 l 2,10,11
 223 -206 223 -206 250 -201 c 0,12,13
 313 -190 313 -190 346 -136 c 128,-1,14
 379 -82 379 -82 412 34 c 1,15,-1
 -17 1063 l 1,16,-1
 268 1063 l 1,17,-1
 549 355 l 1,0,-1
EndSplineSet
EndChar

StartChar: z
Encoding: 122 122 93
Width: 970
GlyphClass: 2
Flags: W
LayerCount: 2
Fore
SplineSet
558 883 m 1,0,-1
 100 883 l 1,1,-1
 100 1063 l 1,2,-1
 907 1063 l 1,3,-1
 907 917 l 1,4,-1
 424 189 l 1,5,-1
 923 189 l 1,6,-1
 923 0 l 1,7,-1
 74 0 l 1,8,-1
 74 161 l 1,9,-1
 558 883 l 1,0,-1
EndSplineSet
EndChar

StartChar: braceleft
Encoding: 123 123 94
Width: 789
GlyphClass: 2
Flags: W
LayerCount: 2
Fore
SplineSet
55 763 m 1,0,-1
 149 763 l 2,1,2
 214 763 214 763 233 809.5 c 128,-1,3
 252 856 252 856 252 965 c 2,4,-1
 252 1252 l 2,5,6
 252 1410 252 1410 344 1476.5 c 128,-1,7
 436 1543 436 1543 609 1543 c 2,8,-1
 709 1543 l 1,9,-1
 709 1325 l 1,10,-1
 679 1325 l 2,11,12
 632 1325 632 1325 606 1318 c 128,-1,13
 580 1311 580 1311 567.5 1287.5 c 128,-1,14
 555 1264 555 1264 552.5 1238 c 128,-1,15
 550 1212 550 1212 550 1154 c 2,16,-1
 550 914 l 2,17,18
 550 748 550 748 452 686 c 0,19,20
 408 658 408 658 342 645 c 1,21,22
 408 632 408 632 452 604 c 0,23,24
 550 542 550 542 550 376 c 2,25,-1
 550 136 l 2,26,27
 550 78 550 78 552.5 52 c 128,-1,28
 555 26 555 26 567.5 2.5 c 128,-1,29
 580 -21 580 -21 606 -28 c 128,-1,30
 632 -35 632 -35 679 -35 c 2,31,-1
 709 -35 l 1,32,-1
 709 -253 l 1,33,-1
 609 -253 l 2,34,35
 436 -253 436 -253 344 -186.5 c 128,-1,36
 252 -120 252 -120 252 38 c 2,37,-1
 252 325 l 2,38,39
 252 434 252 434 233 480.5 c 128,-1,40
 214 527 214 527 149 527 c 2,41,-1
 55 527 l 1,42,-1
 55 763 l 1,0,-1
EndSplineSet
EndChar

StartChar: bar
Encoding: 124 124 95
Width: 364
GlyphClass: 2
Flags: W
LayerCount: 2
Fore
SplineSet
294 1499 m 1,0,-1
 294 -280 l 1,1,-1
 70 -280 l 1,2,-1
 70 1499 l 1,3,-1
 294 1499 l 1,0,-1
EndSplineSet
EndChar

StartChar: braceright
Encoding: 125 125 96
Width: 789
GlyphClass: 2
Flags: W
LayerCount: 2
Fore
SplineSet
734 527 m 1,0,-1
 640 527 l 2,1,2
 575 527 575 527 556 480.5 c 128,-1,3
 537 434 537 434 537 325 c 2,4,-1
 537 38 l 2,5,6
 537 -120 537 -120 445 -186.5 c 128,-1,7
 353 -253 353 -253 180 -253 c 2,8,-1
 80 -253 l 1,9,-1
 80 -35 l 1,10,-1
 110 -35 l 2,11,12
 157 -35 157 -35 183 -28 c 128,-1,13
 209 -21 209 -21 221.5 2.5 c 128,-1,14
 234 26 234 26 236.5 52 c 128,-1,15
 239 78 239 78 239 136 c 2,16,-1
 239 376 l 2,17,18
 240 542 240 542 338 604 c 0,19,20
 382 632 382 632 447 645 c 1,21,22
 382 658 382 658 338 686 c 0,23,24
 240 748 240 748 239 914 c 2,25,-1
 239 1154 l 2,26,27
 239 1212 239 1212 236.5 1238 c 128,-1,28
 234 1264 234 1264 221.5 1287.5 c 128,-1,29
 209 1311 209 1311 183 1318 c 128,-1,30
 157 1325 157 1325 110 1325 c 2,31,-1
 80 1325 l 1,32,-1
 80 1543 l 1,33,-1
 180 1543 l 2,34,35
 353 1543 353 1543 445 1476.5 c 128,-1,36
 537 1410 537 1410 537 1252 c 2,37,-1
 537 965 l 2,38,39
 537 856 537 856 556 809.5 c 128,-1,40
 575 763 575 763 640 763 c 2,41,-1
 734 763 l 1,42,-1
 734 527 l 1,0,-1
EndSplineSet
EndChar

StartChar: asciitilde
Encoding: 126 126 97
Width: 1419
GlyphClass: 2
Flags: W
LayerCount: 2
Fore
SplineSet
1057 710 m 1,0,1
 1059 716 1059 716 1064 742 c 1,2,-1
 1240 687 l 1,3,-1
 1233 662 l 1,4,5
 1205 544 1205 544 1128 464.5 c 128,-1,6
 1051 385 1051 385 928 385 c 0,7,8
 805 385 805 385 695 455 c 0,9,10
 584 525 584 525 495 526 c 1,11,-1
 494 525 l 1,12,-1
 492 525 l 2,13,14
 433 525 433 525 396 491 c 128,-1,15
 359 457 359 457 345 407 c 1,16,-1
 338 370 l 1,17,-1
 172 443 l 1,18,-1
 177 464 l 1,19,20
 200 570 200 570 282 644.5 c 128,-1,21
 364 719 364 719 487 719 c 0,22,23
 610 719 610 719 748 649 c 0,24,25
 886 579 886 579 930 579 c 128,-1,26
 974 579 974 579 1008 617 c 128,-1,27
 1042 655 1042 655 1056 710 c 1,28,-1
 1057 710 l 1,0,1
EndSplineSet
EndChar

StartChar: exclamdown
Encoding: 161 161 99
Width: 399
GlyphClass: 2
Flags: W
LayerCount: 2
Fore
SplineSet
335 -20 m 1,0,-1
 79 -20 l 1,1,-1
 79 227 l 1,2,-1
 152 971 l 1,3,-1
 269 971 l 1,4,-1
 335 227 l 1,5,-1
 335 -20 l 1,0,-1
39 1286 m 128,-1,7
 39 1352 39 1352 87 1398.5 c 128,-1,8
 135 1445 135 1445 200.5 1445 c 128,-1,9
 266 1445 266 1445 313 1398.5 c 128,-1,10
 360 1352 360 1352 360 1286 c 128,-1,11
 360 1220 360 1220 313 1172 c 128,-1,12
 266 1124 266 1124 200.5 1124 c 128,-1,13
 135 1124 135 1124 87 1172 c 128,-1,6
 39 1220 39 1220 39 1286 c 128,-1,7
EndSplineSet
EndChar

StartChar: cent
Encoding: 162 162 100
Width: 966
GlyphClass: 2
Flags: W
LayerCount: 2
Fore
SplineSet
940 172 m 1,0,1
 813.083 87.0909 813.083 87.0909 663 78.0719 c 1,2,-1
 663 -196 l 1,3,-1
 561 -196 l 1,4,-1
 561 79.879 l 1,5,6
 365.545 97.3966 365.545 97.3966 235 221.5 c 0,7,8
 83 366 83 366 83 665 c 128,-1,9
 83 964 83 964 306 1114 c 0,10,11
 414.205 1186.7 414.205 1186.7 561 1197.94 c 1,12,-1
 561 1445 l 1,13,-1
 663 1445 l 1,14,-1
 663 1198.46 l 1,15,16
 818.776 1187.92 818.776 1187.92 928 1106 c 1,17,-1
 883 917 l 1,18,19
 844 945 844 945 774.5 969 c 0,20,21
 716.858 988.905 716.858 988.905 663 992.301 c 1,22,-1
 663 283.499 l 1,23,24
 783.898 289.276 783.898 289.276 887 362 c 1,25,-1
 940 172 l 1,0,1
561 292.304 m 1,26,27
 561 982.982 l 1,28,29
 487.931 963.394 487.931 963.394 435 905.5 c 0,30,31
 355 818 355 818 355 637.5 c 128,-1,32
 355 457 355 457 432 370 c 0,33,34
 483.819 311.451 483.819 311.451 561 292.304 c 1,26,27
EndSplineSet
EndChar

StartChar: sterling
Encoding: 163 163 101
Width: 1115
GlyphClass: 2
Flags: W
LayerCount: 2
Fore
SplineSet
473 503 m 2,0,1
 473 321 473 321 405 209 c 1,2,-1
 1065 209 l 1,3,-1
 1065 0 l 1,4,-1
 77 0 l 1,5,-1
 45 167 l 1,6,-1
 67 177 l 1,7,8
 154 214 154 214 189 271.5 c 128,-1,9
 224 329 224 329 224 445 c 2,10,-1
 224 630 l 1,11,-1
 38 630 l 1,12,-1
 38 822 l 1,13,-1
 224 822 l 1,14,-1
 224 906 l 2,15,16
 224 1238 224 1238 370 1374 c 0,17,18
 484 1480 484 1480 697 1480 c 0,19,20
 941 1480 941 1480 1071 1295 c 1,21,-1
 1083 1276 l 1,22,-1
 957 1135 l 1,23,24
 852 1240 852 1240 778 1260 c 0,25,26
 740 1270 740 1270 696 1270 c 0,27,28
 472 1270 472 1270 472 988 c 2,29,-1
 472 823 l 1,30,-1
 851 823 l 1,31,-1
 851 631 l 1,32,-1
 473 631 l 1,33,-1
 473 503 l 2,0,1
EndSplineSet
EndChar

StartChar: currency
Encoding: 164 164 102
Width: 880
GlyphClass: 2
Flags: W
LayerCount: 2
Fore
SplineSet
675 655 m 1,0,-1
 675 665 l 2,1,2
 675 800 675 800 617 877 c 128,-1,3
 559 954 559 954 439.5 954 c 128,-1,4
 320 954 320 954 261.5 875 c 128,-1,5
 203 796 203 796 203 665 c 128,-1,6
 203 534 203 534 262.5 457 c 128,-1,7
 322 380 322 380 439.5 380 c 128,-1,8
 557 380 557 380 615 454.5 c 128,-1,9
 673 529 673 529 675 655 c 1,0,-1
825 669 m 0,10,11
 825 464 825 464 683 346 c 1,12,-1
 828 72 l 1,13,-1
 742 31 l 1,14,-1
 607 303 l 1,15,16
 530 270 530 270 459 270 c 128,-1,17
 388 270 388 270 342 277 c 1,18,-1
 252 31 l 1,19,-1
 169 69 l 1,20,-1
 253 305 l 1,21,22
 54 413 54 413 54 652.5 c 128,-1,23
 54 892 54 892 219 1009 c 1,24,-1
 74 1282 l 1,25,-1
 167 1319 l 1,26,-1
 299 1066 l 1,27,28
 366 1087 366 1087 424 1087 c 128,-1,29
 482 1087 482 1087 550 1075 c 1,30,-1
 644 1320 l 1,31,32
 671 1308 671 1308 735 1284 c 1,33,-1
 639 1025 l 1,34,35
 825 914 825 914 825 669 c 0,10,11
EndSplineSet
EndChar

StartChar: yen
Encoding: 165 165 103
Width: 1224
GlyphClass: 2
Flags: W
LayerCount: 2
Fore
SplineSet
1119 448 m 1,0,-1
 1119 286 l 1,1,-1
 146 286 l 1,2,-1
 146 448 l 1,3,-1
 1119 448 l 1,0,-1
1119 737 m 1,4,-1
 1119 575 l 1,5,-1
 146 575 l 1,6,-1
 146 737 l 1,7,-1
 1119 737 l 1,4,-1
1278 1445 m 1,8,-1
 777 586 l 1,9,-1
 777 0 l 1,10,-1
 479 0 l 1,11,-1
 479 586 l 1,12,-1
 -36 1445 l 1,13,-1
 273 1445 l 1,14,-1
 624 842 l 1,15,-1
 973 1445 l 1,16,-1
 1278 1445 l 1,8,-1
EndSplineSet
EndChar

StartChar: brokenbar
Encoding: 166 166 104
Width: 524
GlyphClass: 2
Flags: W
LayerCount: 2
Fore
SplineSet
371 -279 m 1,0,-1
 147 -279 l 1,1,-1
 147 351 l 1,2,-1
 371 351 l 1,3,-1
 371 -279 l 1,0,-1
371 869 m 1,4,-1
 147 869 l 1,5,-1
 147 1499 l 1,6,-1
 371 1499 l 1,7,-1
 371 869 l 1,4,-1
EndSplineSet
EndChar

StartChar: section
Encoding: 167 167 105
Width: 908
GlyphClass: 2
Flags: W
LayerCount: 2
Fore
SplineSet
52 734 m 0,0,1
 52 878 52 878 191 975 c 1,2,3
 86 1066 86 1066 86 1218.5 c 128,-1,4
 86 1371 86 1371 213 1445.5 c 128,-1,5
 340 1520 340 1520 512 1520 c 0,6,7
 611 1520 611 1520 691.5 1495 c 128,-1,8
 772 1470 772 1470 783 1467 c 1,9,-1
 786 1202 l 1,10,11
 778 1205 778 1205 748 1220 c 0,12,13
 618 1284 618 1284 518 1284 c 0,14,15
 347 1284 347 1284 347 1206 c 0,16,17
 346 1128 346 1128 448 1081 c 0,18,19
 494 1060 494 1060 589 1024 c 128,-1,20
 684 988 684 988 758 937 c 0,21,22
 860 866 860 866 859.5 732 c 128,-1,23
 859 598 859 598 724 492 c 1,24,25
 838 406 838 406 838 270 c 0,26,27
 838 185 838 185 800 118.5 c 128,-1,28
 762 52 762 52 698 12 c 0,29,30
 564 -70 564 -70 401 -69 c 0,31,32
 251 -69 251 -69 78 0 c 1,33,-1
 77 268 l 1,34,35
 156 220 156 220 226 193 c 128,-1,36
 296 166 296 166 384.5 166 c 128,-1,37
 473 166 473 166 523 193 c 128,-1,38
 573 220 573 220 573 258 c 0,39,40
 573 326 573 326 489.5 368.5 c 128,-1,41
 406 411 406 411 308 448.5 c 128,-1,42
 210 486 210 486 131 554 c 128,-1,43
 52 622 52 622 52 734 c 0,0,1
495 582 m 1,44,45
 609 652 609 652 609 714 c 128,-1,46
 609 776 609 776 564.5 803.5 c 128,-1,47
 520 831 520 831 469 851 c 128,-1,48
 418 871 418 871 400 879 c 1,49,50
 300 822 300 822 300 740.5 c 128,-1,51
 300 659 300 659 436 605 c 0,52,53
 456 597 456 597 495 582 c 1,44,45
EndSplineSet
EndChar

StartChar: dieresis
Encoding: 168 168 106
Width: 766
GlyphClass: 2
Flags: W
LayerCount: 2
Fore
SplineSet
271 1230 m 1,0,-1
 63 1230 l 1,1,-1
 63 1498 l 1,2,-1
 271 1498 l 1,3,-1
 271 1230 l 1,0,-1
696 1230 m 1,4,-1
 487 1230 l 1,5,-1
 487 1498 l 1,6,-1
 696 1498 l 1,7,-1
 696 1230 l 1,4,-1
EndSplineSet
EndChar

StartChar: copyright
Encoding: 169 169 107
Width: 1673
GlyphClass: 2
Flags: W
LayerCount: 2
Fore
SplineSet
1069 446 m 1,0,-1
 1113 330 l 1,1,2
 994 249 994 249 810 249 c 128,-1,3
 626 249 626 249 499.5 384.5 c 128,-1,4
 373 520 373 520 373 729 c 0,5,6
 373 863 373 863 428 974 c 128,-1,7
 483 1085 483 1085 584.5 1151 c 128,-1,8
 686 1217 686 1217 814 1217 c 0,9,10
 995 1217 995 1217 1113 1137 c 1,11,-1
 1069 1025 l 1,12,13
 954 1092 954 1092 819 1092 c 128,-1,14
 684 1092 684 1092 602.5 986 c 128,-1,15
 521 880 521 880 521 727 c 0,16,17
 521 522 521 522 655 428 c 0,18,19
 725 379 725 379 839.5 379 c 128,-1,20
 954 379 954 379 1069 446 c 1,0,-1
514 168.5 m 128,-1,22
 662 82 662 82 815 82 c 128,-1,23
 968 82 968 82 1086.5 133 c 128,-1,24
 1205 184 1205 184 1290.5 270.5 c 128,-1,25
 1376 357 1376 357 1426.5 476.5 c 128,-1,26
 1477 596 1477 596 1477 728 c 128,-1,27
 1477 860 1477 860 1426.5 979.5 c 128,-1,28
 1376 1099 1376 1099 1290.5 1185.5 c 128,-1,29
 1205 1272 1205 1272 1086.5 1323 c 128,-1,30
 968 1374 968 1374 815 1374 c 128,-1,31
 662 1374 662 1374 514 1287.5 c 128,-1,32
 366 1201 366 1201 281 1052.5 c 128,-1,33
 196 904 196 904 196 728 c 128,-1,34
 196 552 196 552 281 403.5 c 128,-1,21
 366 255 366 255 514 168.5 c 128,-1,22
1534 1020.5 m 128,-1,36
 1594 881 1594 881 1594 727.5 c 128,-1,37
 1594 574 1594 574 1534 435 c 128,-1,38
 1474 296 1474 296 1372 196 c 128,-1,39
 1270 96 1270 96 1130 37.5 c 128,-1,40
 990 -21 990 -21 837 -21 c 0,41,42
 631 -21 631 -21 456.5 78.5 c 128,-1,43
 282 178 282 178 180.5 350.5 c 128,-1,44
 79 523 79 523 79 728 c 128,-1,45
 79 933 79 933 180.5 1105.5 c 128,-1,46
 282 1278 282 1278 456.5 1378 c 128,-1,47
 631 1478 631 1478 837 1478 c 0,48,49
 990 1478 990 1478 1130 1419 c 128,-1,50
 1270 1360 1270 1360 1372 1260 c 128,-1,35
 1474 1160 1474 1160 1534 1020.5 c 128,-1,36
EndSplineSet
EndChar

StartChar: ordfeminine
Encoding: 170 170 108
Width: 732
GlyphClass: 2
Flags: W
LayerCount: 2
Fore
SplineSet
478 1055 m 1,0,1
 461 1053 461 1053 428.5 1049 c 128,-1,2
 396 1045 396 1045 380 1043 c 0,3,4
 246 1027 246 1027 245 956 c 0,5,6
 245 880 245 880 336 880 c 0,7,8
 404 880 404 880 436.5 925.5 c 128,-1,9
 469 971 469 971 478 1055 c 1,0,1
93 1326 m 1,10,11
 180 1487 180 1487 382 1487 c 0,12,13
 508 1487 508 1487 586 1416 c 128,-1,14
 664 1345 664 1345 663 1215 c 2,15,-1
 661 894 l 2,16,17
 661 852 661 852 668 768 c 1,18,-1
 670 736 l 1,19,-1
 485 736 l 1,20,-1
 483 773 l 1,21,22
 412 717 412 717 322 717 c 2,23,-1
 318 717 l 2,24,25
 209 717 209 717 132.5 780 c 128,-1,26
 56 843 56 843 56 952.5 c 128,-1,27
 56 1062 56 1062 132 1132 c 0,28,29
 158 1156 158 1156 230 1176.5 c 128,-1,30
 302 1197 302 1197 382 1206 c 128,-1,31
 462 1215 462 1215 478 1217 c 1,32,33
 473 1280 473 1280 455.5 1299.5 c 128,-1,34
 438 1319 438 1319 378 1319 c 0,35,36
 270 1319 270 1319 219 1238 c 1,37,-1
 197 1205 l 1,38,-1
 93 1326 l 1,10,11
EndSplineSet
EndChar

StartChar: guillemotleft
Encoding: 171 171 109
Width: 933
GlyphClass: 2
Flags: W
LayerCount: 2
Fore
SplineSet
675 924 m 1,0,-1
 899 924 l 1,1,-1
 628 546 l 1,2,-1
 891 171 l 1,3,-1
 670 171 l 1,4,-1
 390 546 l 1,5,-1
 675 924 l 1,0,-1
317 924 m 1,6,-1
 546 924 l 1,7,-1
 270 546 l 1,8,-1
 537 171 l 1,9,-1
 311 171 l 1,10,-1
 33 546 l 1,11,-1
 317 924 l 1,6,-1
EndSplineSet
EndChar

StartChar: logicalnot
Encoding: 172 172 110
Width: 1419
GlyphClass: 2
Flags: W
LayerCount: 2
Fore
SplineSet
1224 238 m 1,0,-1
 1022 238 l 1,1,-1
 1022 609 l 1,2,-1
 185 609 l 1,3,-1
 185 808 l 1,4,-1
 1224 808 l 1,5,-1
 1224 238 l 1,0,-1
EndSplineSet
EndChar

StartChar: registered
Encoding: 174 174 111
Width: 1673
GlyphClass: 2
Flags: W
LayerCount: 2
Fore
SplineSet
821 678 m 2,0,-1
 684 678 l 1,1,-1
 684 261 l 1,2,-1
 531 261 l 1,3,-1
 531 1209 l 1,4,-1
 840 1209 l 2,5,6
 1163 1209 1163 1209 1163 950 c 0,7,8
 1163 838 1163 838 1118 780.5 c 128,-1,9
 1073 723 1073 723 966 695 c 1,10,11
 1057 560 1057 560 1209 261 c 1,12,-1
 1039 261 l 1,13,-1
 916 492 l 1,14,15
 825 678 825 678 821 678 c 2,0,-1
798 803 m 2,16,17
 911 803 911 803 963.5 831.5 c 128,-1,18
 1016 860 1016 860 1016 947 c 0,19,20
 1016 1034 1016 1034 973 1057 c 0,21,22
 930 1081 930 1081 879 1082 c 128,-1,23
 828 1083 828 1083 789 1083 c 2,24,-1
 683 1083 l 1,25,-1
 683 803 l 1,26,-1
 798 803 l 2,16,17
514 168.5 m 128,-1,28
 662 82 662 82 815 82 c 128,-1,29
 968 82 968 82 1086.5 133 c 128,-1,30
 1205 184 1205 184 1290.5 270.5 c 128,-1,31
 1376 357 1376 357 1426.5 476.5 c 128,-1,32
 1477 596 1477 596 1477 728 c 128,-1,33
 1477 860 1477 860 1426.5 979.5 c 128,-1,34
 1376 1099 1376 1099 1290.5 1185.5 c 128,-1,35
 1205 1272 1205 1272 1086.5 1323 c 128,-1,36
 968 1374 968 1374 815 1374 c 128,-1,37
 662 1374 662 1374 514 1287.5 c 128,-1,38
 366 1201 366 1201 281 1052.5 c 128,-1,39
 196 904 196 904 196 728 c 128,-1,40
 196 552 196 552 281 403.5 c 128,-1,27
 366 255 366 255 514 168.5 c 128,-1,28
1534 1020.5 m 128,-1,42
 1594 881 1594 881 1594 727.5 c 128,-1,43
 1594 574 1594 574 1534 435 c 128,-1,44
 1474 296 1474 296 1372 196 c 128,-1,45
 1270 96 1270 96 1130 37.5 c 128,-1,46
 990 -21 990 -21 837 -21 c 0,47,48
 631 -21 631 -21 456.5 78.5 c 128,-1,49
 282 178 282 178 180.5 350.5 c 128,-1,50
 79 523 79 523 79 728 c 128,-1,51
 79 933 79 933 180.5 1105.5 c 128,-1,52
 282 1278 282 1278 456.5 1378 c 128,-1,53
 631 1478 631 1478 837 1478 c 0,54,55
 990 1478 990 1478 1130 1419 c 128,-1,56
 1270 1360 1270 1360 1372 1260 c 128,-1,41
 1474 1160 1474 1160 1534 1020.5 c 128,-1,42
EndSplineSet
EndChar

StartChar: uni00AF
Encoding: 175 175 112
Width: 862
GlyphClass: 2
Flags: W
LayerCount: 2
Fore
SplineSet
777 1498 m 1,0,-1
 777 1335 l 1,1,-1
 98 1335 l 1,2,-1
 98 1498 l 1,3,-1
 777 1498 l 1,0,-1
EndSplineSet
EndChar

StartChar: degree
Encoding: 176 176 113
Width: 842
GlyphClass: 2
Flags: W
LayerCount: 2
Fore
SplineSet
423 1277 m 1,0,-1
 413 1277 l 2,1,2
 348 1277 348 1277 306 1242.5 c 128,-1,3
 264 1208 264 1208 264 1154 c 128,-1,4
 264 1100 264 1100 306 1065 c 128,-1,5
 348 1030 348 1030 413.5 1030 c 128,-1,6
 479 1030 479 1030 521.5 1065.5 c 128,-1,7
 564 1101 564 1101 564 1154 c 128,-1,8
 564 1207 564 1207 524 1240.5 c 128,-1,9
 484 1274 484 1274 423 1277 c 1,0,-1
180.5 1368 m 128,-1,11
 276 1453 276 1453 412 1453 c 128,-1,12
 548 1453 548 1453 645 1371 c 128,-1,13
 742 1289 742 1289 742 1157 c 128,-1,14
 742 1025 742 1025 645.5 939.5 c 128,-1,15
 549 854 549 854 413 854 c 128,-1,16
 277 854 277 854 181 940 c 128,-1,17
 85 1026 85 1026 85 1154.5 c 128,-1,10
 85 1283 85 1283 180.5 1368 c 128,-1,11
EndSplineSet
EndChar

StartChar: plusminus
Encoding: 177 177 114
Width: 1444
GlyphClass: 2
Flags: W
LayerCount: 2
Fore
SplineSet
189 570 m 1,0,-1
 173 768 l 1,1,-1
 605 768 l 1,2,-1
 605 1117 l 1,3,-1
 823 1117 l 1,4,-1
 823 768 l 1,5,-1
 1248 768 l 1,6,-1
 1248 570 l 1,7,-1
 828 570 l 1,8,-1
 828 198 l 1,9,-1
 1252 198 l 1,10,-1
 1252 0 l 1,11,-1
 187 0 l 1,12,-1
 187 198 l 1,13,-1
 607 198 l 1,14,-1
 607 570 l 1,15,-1
 189 570 l 1,0,-1
EndSplineSet
EndChar

StartChar: twosuperior
Encoding: 178 178 115
Width: 806
GlyphClass: 2
Flags: W
LayerCount: 2
Fore
SplineSet
698 553 m 1,0,-1
 102 553 l 1,1,-1
 102 697 l 1,2,3
 356 971 356 971 428 1057 c 0,4,5
 500 1143 500 1143 500 1213 c 0,6,7
 500 1299 500 1299 407 1299 c 0,8,9
 352 1299 352 1299 294.5 1268 c 128,-1,10
 237 1237 237 1237 192 1189 c 1,11,-1
 86 1332 l 1,12,13
 116 1376 116 1376 179 1413 c 0,14,15
 295 1479 295 1479 419.5 1479 c 128,-1,16
 544 1479 544 1479 629.5 1410.5 c 128,-1,17
 715 1342 715 1342 715 1217 c 0,18,19
 714 1027 714 1027 496 847 c 0,20,21
 464 821 464 821 408.5 776.5 c 128,-1,22
 353 732 353 732 334 716 c 1,23,-1
 698 716 l 1,24,-1
 698 553 l 1,0,-1
EndSplineSet
EndChar

StartChar: threesuperior
Encoding: 179 179 116
Width: 791
GlyphClass: 2
Flags: W
LayerCount: 2
Fore
SplineSet
472 1283 m 128,-1,1
 440 1311 440 1311 404.5 1311 c 128,-1,2
 369 1311 369 1311 350.5 1308.5 c 128,-1,3
 332 1306 332 1306 317.5 1303.5 c 128,-1,4
 303 1301 303 1301 284.5 1294 c 128,-1,5
 266 1287 266 1287 256 1283.5 c 128,-1,6
 246 1280 246 1280 227 1270 c 128,-1,7
 208 1260 208 1260 202 1256.5 c 128,-1,8
 196 1253 196 1253 175.5 1241 c 128,-1,9
 155 1229 155 1229 151 1227 c 1,10,-1
 67 1350 l 1,11,12
 206 1479 206 1479 391 1479 c 0,13,14
 519 1479 519 1479 609.5 1418.5 c 128,-1,15
 700 1358 700 1358 700 1219.5 c 128,-1,16
 700 1081 700 1081 575 1028 c 1,17,18
 647 987 647 987 680.5 933.5 c 128,-1,19
 714 880 714 880 714 802 c 0,20,21
 714 665 714 665 622 598 c 128,-1,22
 530 531 530 531 375 531 c 128,-1,23
 220 531 220 531 88 620 c 1,24,-1
 152 762 l 1,25,26
 160 759 160 759 184 749 c 0,27,28
 294 702 294 702 366.5 702 c 128,-1,29
 439 702 439 702 472 736.5 c 128,-1,30
 505 771 505 771 505 820.5 c 128,-1,31
 505 870 505 870 473.5 905.5 c 128,-1,32
 442 941 442 941 387 941 c 2,33,-1
 259 941 l 1,34,-1
 259 1092 l 1,35,-1
 386 1092 l 2,36,37
 504 1092 504 1092 504 1198 c 0,38,0
 504 1255 504 1255 472 1283 c 128,-1,1
EndSplineSet
EndChar

StartChar: acute
Encoding: 180 180 117
Width: 612
GlyphClass: 2
Flags: W
LayerCount: 2
Fore
SplineSet
692 1558 m 1,0,-1
 381 1176 l 1,1,-1
 212 1176 l 1,2,-1
 378 1558 l 1,3,-1
 692 1558 l 1,0,-1
EndSplineSet
EndChar

StartChar: paragraph
Encoding: 182 182 118
Width: 1238
GlyphClass: 2
Flags: W
LayerCount: 2
Fore
SplineSet
641 -148 m 1,0,-1
 425 -147 l 1,1,-1
 425 760 l 1,2,3
 274 776 274 776 185.5 874.5 c 128,-1,4
 97 973 97 973 97 1121 c 0,5,6
 97 1410 97 1410 480 1452 c 0,7,8
 556 1460 556 1460 649 1461 c 2,9,-1
 1048 1461 l 1,10,-1
 1048 1277 l 1,11,-1
 966 1277 l 1,12,-1
 966 -148 l 1,13,-1
 783 -148 l 1,14,-1
 783 1277 l 1,15,-1
 641 1277 l 1,16,-1
 641 -148 l 1,0,-1
EndSplineSet
EndChar

StartChar: periodcentered
Encoding: 183 183 119
Width: 406
GlyphClass: 2
Flags: W
LayerCount: 2
Fore
SplineSet
336 733 m 1,0,-1
 336 463 l 1,1,-1
 70 463 l 1,2,-1
 70 733 l 1,3,-1
 336 733 l 1,0,-1
EndSplineSet
EndChar

StartChar: cedilla
Encoding: 184 184 120
Width: 586
GlyphClass: 2
Flags: W
LayerCount: 2
Fore
SplineSet
272 -339 m 1,0,-1
 44 -339 l 1,1,-1
 171 27 l 1,2,-1
 334 27 l 1,3,-1
 272 -339 l 1,0,-1
EndSplineSet
EndChar

StartChar: onesuperior
Encoding: 185 185 121
Width: 695
GlyphClass: 2
Flags: W
LayerCount: 2
Fore
SplineSet
463 1465 m 1,0,-1
 463 723 l 1,1,-1
 599 723 l 1,2,-1
 599 553 l 1,3,-1
 112 553 l 1,4,-1
 112 723 l 1,5,-1
 246 723 l 1,6,-1
 246 1244 l 1,7,-1
 102 1218 l 1,8,-1
 103 1386 l 1,9,10
 214 1416 214 1416 300 1445 c 1,11,-1
 463 1465 l 1,0,-1
EndSplineSet
EndChar

StartChar: ordmasculine
Encoding: 186 186 122
Width: 842
GlyphClass: 2
Flags: W
LayerCount: 2
Fore
SplineSet
239 1103 m 2,0,1
 239 885 239 885 424 885 c 0,2,3
 609 884 609 884 609 1100 c 0,4,5
 609 1202 609 1202 563 1260.5 c 128,-1,6
 517 1319 517 1319 424.5 1319 c 128,-1,7
 332 1319 332 1319 286.5 1263 c 128,-1,8
 241 1207 241 1207 239 1113 c 1,9,-1
 239 1103 l 2,0,1
700 1380.5 m 128,-1,11
 800 1275 800 1275 800 1102.5 c 128,-1,12
 800 930 800 930 699 823.5 c 128,-1,13
 598 717 598 717 423 717 c 128,-1,14
 248 717 248 717 147 822.5 c 128,-1,15
 46 928 46 928 46 1102 c 128,-1,16
 46 1276 46 1276 149 1381 c 128,-1,17
 252 1486 252 1486 426 1486 c 128,-1,10
 600 1486 600 1486 700 1380.5 c 128,-1,11
EndSplineSet
EndChar

StartChar: guillemotright
Encoding: 187 187 123
Width: 1152
GlyphClass: 2
Flags: W
LayerCount: 2
Fore
SplineSet
656 547 m 1,0,-1
 371 171 l 1,1,-1
 146 171 l 1,2,-1
 418 547 l 1,3,-1
 153 924 l 1,4,-1
 376 924 l 1,5,-1
 656 547 l 1,0,-1
1035 547 m 1,6,-1
 751 171 l 1,7,-1
 527 171 l 1,8,-1
 798 547 l 1,9,-1
 535 924 l 1,10,-1
 758 924 l 1,11,-1
 1035 547 l 1,6,-1
EndSplineSet
EndChar

StartChar: onequarter
Encoding: 188 188 124
Width: 2016
GlyphClass: 2
Flags: W
LayerCount: 2
Fore
SplineSet
404 0 m 1,0,-1
 1431 1446 l 1,1,-1
 1643 1446 l 1,2,3
 1641 1443 1641 1443 1639 1439 c 2,4,-1
 624 0 l 1,5,-1
 404 0 l 1,0,-1
1619 200 m 1,6,-1
 1618 37 l 1,7,-1
 1444 37 l 1,8,-1
 1444 200 l 1,9,-1
 1049 200 l 1,10,-1
 1049 326 l 1,11,-1
 1446 844 l 1,12,-1
 1620 844 l 1,13,-1
 1620 367 l 1,14,-1
 1721 367 l 1,15,-1
 1737 200 l 1,16,-1
 1619 200 l 1,6,-1
345 1019 m 1,17,-1
 344 1167 l 1,18,-1
 344 1184 l 1,19,20
 320 1174 320 1174 268 1155 c 1,21,-1
 200 1128 l 1,22,-1
 201 1356 l 1,23,-1
 236 1366 l 1,24,25
 308 1388 308 1388 387 1436 c 1,26,-1
 387 1439 l 1,27,28
 393 1440 393 1440 398 1445 c 1,29,30
 399 1444 399 1444 402 1442 c 1,31,-1
 561 1465 l 1,32,-1
 561 791 l 1,33,-1
 689 791 l 1,34,-1
 689 584 l 1,35,-1
 230 584 l 1,36,-1
 230 803 l 1,37,-1
 345 803 l 1,38,-1
 345 1019 l 1,17,-1
1442 569 m 1,39,-1
 1290 367 l 1,40,-1
 1442 367 l 1,41,-1
 1442 569 l 1,39,-1
EndSplineSet
EndChar

StartChar: onehalf
Encoding: 189 189 125
Width: 1900
GlyphClass: 2
Flags: W
LayerCount: 2
Fore
SplineSet
407 1420 m 1,0,-1
 541 1441 l 1,1,-1
 541 771 l 1,2,-1
 669 771 l 1,3,-1
 669 604 l 1,4,-1
 250 604 l 1,5,-1
 250 783 l 1,6,-1
 365 783 l 1,7,-1
 364 1216 l 1,8,9
 329 1200 329 1200 220 1158 c 1,10,-1
 221 1340 l 1,11,12
 263 1351 263 1351 372 1403 c 1,13,-1
 407 1420 l 1,0,-1
349 0 m 1,14,-1
 1371 1446 l 1,15,-1
 1592 1446 l 1,16,17
 1590 1443 1590 1443 1588 1439 c 2,18,-1
 565 0 l 1,19,-1
 349 0 l 1,14,-1
1051 615 m 1,20,21
 1145 821 1145 821 1380 821 c 0,22,23
 1507 821 1507 821 1587.5 756.5 c 128,-1,24
 1668 692 1668 692 1668 581 c 0,25,26
 1668 509 1668 509 1648.5 466.5 c 128,-1,27
 1629 424 1629 424 1616 400 c 128,-1,28
 1603 376 1603 376 1579 348.5 c 128,-1,29
 1555 321 1555 321 1539.5 303.5 c 128,-1,30
 1524 286 1524 286 1493.5 260 c 128,-1,31
 1463 234 1463 234 1448.5 222.5 c 128,-1,32
 1434 211 1434 211 1401.5 186 c 128,-1,33
 1369 161 1369 161 1359 153 c 1,34,-1
 1666 153 l 1,35,-1
 1666 -25 l 1,36,-1
 1048 -25 l 1,37,-1
 1048 119 l 1,38,39
 1072 138 1072 138 1170 207 c 0,40,41
 1268 276 1268 276 1377 374.5 c 128,-1,42
 1486 473 1486 473 1486 568 c 0,43,44
 1486 644 1486 644 1382 644 c 128,-1,45
 1278 644 1278 644 1222 550 c 0,46,47
 1208 528 1208 528 1192 491 c 1,48,-1
 1051 615 l 1,20,21
EndSplineSet
EndChar

StartChar: threequarters
Encoding: 190 190 126
Width: 1933
GlyphClass: 2
Flags: W
LayerCount: 2
Fore
SplineSet
1620 1426 m 1,0,-1
 1620 1425 l 1,1,-1
 617 -22 l 1,2,-1
 355 -22 l 1,3,-1
 1382 1457 l 1,4,-1
 1382 1464 l 1,5,-1
 1645 1464 l 1,6,7
 1641 1458 1641 1458 1620 1426 c 1,0,-1
544 1202 m 0,8,9
 544 1272 544 1272 440 1272 c 0,10,11
 360 1272 360 1272 277 1200 c 1,12,-1
 249 1178 l 1,13,-1
 165 1324 l 1,14,-1
 180 1340 l 1,15,16
 289 1451 289 1451 426.5 1451 c 128,-1,17
 564 1451 564 1451 647 1385.5 c 128,-1,18
 730 1320 730 1320 730 1207 c 2,19,-1
 730 1205 l 1,20,21
 726 1099 726 1099 653 1036 c 1,22,23
 748 963 748 963 748 844.5 c 128,-1,24
 748 726 748 726 657 655.5 c 128,-1,25
 566 585 566 585 423.5 585 c 128,-1,26
 281 585 281 585 179 692 c 1,27,-1
 163 708 l 1,28,-1
 252 856 l 1,29,-1
 279 830 l 2,30,31
 352 760 352 760 424 760 c 0,32,33
 568 760 568 760 567 854 c 0,34,35
 567 905 567 905 524 925.5 c 128,-1,36
 481 946 481 946 393 946 c 1,37,-1
 365 945 l 1,38,-1
 310 945 l 1,39,-1
 310 1124 l 1,40,-1
 387 1124 l 2,41,42
 466 1124 466 1124 505 1141.5 c 128,-1,43
 544 1159 544 1159 544 1202 c 0,8,9
1567 202 m 1,44,-1
 1566 39 l 1,45,-1
 1392 39 l 1,46,-1
 1392 202 l 1,47,-1
 998 202 l 1,48,-1
 998 328 l 1,49,-1
 1395 846 l 1,50,-1
 1568 846 l 1,51,-1
 1568 369 l 1,52,-1
 1669 369 l 1,53,-1
 1685 202 l 1,54,-1
 1567 202 l 1,44,-1
1390 571 m 1,55,-1
 1239 369 l 1,56,-1
 1390 369 l 1,57,-1
 1390 571 l 1,55,-1
EndSplineSet
EndChar

StartChar: AE
Encoding: 198 198 134
Width: 1937
GlyphClass: 2
Flags: W
LayerCount: 2
Fore
SplineSet
1204 647 m 1,0,-1
 1238 223 l 1,1,-1
 1834 223 l 1,2,-1
 1834 15 l 1,3,-1
 1048 15 l 1,4,-1
 1019 373 l 1,5,-1
 478 373 l 1,6,-1
 274 15 l 1,7,-1
 21 15 l 1,8,-1
 815 1461 l 1,9,-1
 1813 1461 l 1,10,-1
 1813 1253 l 1,11,-1
 1154 1253 l 1,12,-1
 1184 855 l 1,13,-1
 1773 855 l 1,14,-1
 1773 647 l 1,15,-1
 1204 647 l 1,0,-1
999 581 m 1,16,-1
 948 1263 l 1,17,-1
 581 581 l 1,18,-1
 999 581 l 1,16,-1
EndSplineSet
EndChar

StartChar: Eth
Encoding: 208 208 144
AltUni2: 000110.ffffffff.0
Width: 1549
GlyphClass: 2
Flags: W
LayerCount: 2
Fore
SplineSet
1135 715 m 0,0,1
 1135 997 1135 997 990 1108 c 0,2,3
 845 1220 845 1220 543 1220 c 2,4,-1
 428 1220 l 1,5,-1
 428 828 l 1,6,-1
 597 828 l 1,7,-1
 597 634 l 1,8,-1
 428 634 l 1,9,-1
 428 223 l 1,10,-1
 629 223 l 2,11,12
 873 223 873 223 1004 350 c 128,-1,13
 1135 477 1135 477 1135 715 c 0,0,1
-2 634 m 1,14,-1
 -2 828 l 1,15,-1
 130 828 l 1,16,-1
 130 1445 l 1,17,-1
 521 1445 l 2,18,19
 1432 1445 1432 1445 1432 719 c 0,20,21
 1432 545 1432 545 1372 408.5 c 128,-1,22
 1312 272 1312 272 1204 183 c 0,23,24
 982 1 982 1 611 1 c 2,25,-1
 130 1 l 1,26,-1
 130 634 l 1,27,-1
 -2 634 l 1,14,-1
EndSplineSet
EndChar

StartChar: multiply
Encoding: 215 215 151
Width: 1501
GlyphClass: 2
Flags: W
LayerCount: 2
Fore
SplineSet
915 559 m 1,0,1
 1107 373 1107 373 1200 280 c 1,2,-1
 1060 136 l 1,3,-1
 760 412 l 1,4,-1
 459 136 l 1,5,-1
 321 279 l 1,6,-1
 605 559 l 1,7,-1
 321 836 l 1,8,-1
 460 982 l 1,9,-1
 760 705 l 1,10,-1
 1059 982 l 1,11,-1
 1200 835 l 1,12,-1
 915 559 l 1,0,1
EndSplineSet
EndChar

StartChar: Oslash
Encoding: 216 216 152
Width: 1712
GlyphClass: 2
Flags: W
LayerCount: 2
Fore
SplineSet
1148 1649 m 1,0,-1
 1244 1609 l 1,1,-1
 1152 1398 l 1,2,3
 1326 1310 1326 1310 1424.5 1137.5 c 128,-1,4
 1523 965 1523 965 1523 731 c 128,-1,5
 1523 497 1523 497 1427.5 326 c 128,-1,6
 1332 155 1332 155 1168.5 67.5 c 128,-1,7
 1005 -20 1005 -20 797 -20 c 0,8,9
 666 -20 666 -20 550 16 c 1,10,-1
 454 -204 l 1,11,-1
 365 -162 l 1,12,-1
 458 52 l 1,13,14
 278 138 278 138 175 312 c 128,-1,15
 72 486 72 486 72 722.5 c 128,-1,16
 72 959 72 959 167.5 1131 c 128,-1,17
 263 1303 263 1303 426 1390.5 c 128,-1,18
 589 1478 589 1478 797 1478 c 0,19,20
 936 1478 936 1478 1057 1438 c 1,21,-1
 1148 1649 l 1,0,-1
799 1243 m 0,22,23
 592 1243 592 1243 483 1101 c 128,-1,24
 374 959 374 959 374 722 c 0,25,26
 374 407 374 407 556 280 c 1,27,-1
 961 1215 l 1,28,29
 888 1243 888 1243 799 1243 c 0,22,23
1051 1166 m 1,30,-1
 645 235 l 1,31,32
 715 211 715 211 799 211 c 0,33,34
 1007 211 1007 211 1116.5 348.5 c 128,-1,35
 1226 486 1226 486 1226 722 c 0,36,37
 1226 1032 1226 1032 1051 1166 c 1,30,-1
EndSplineSet
EndChar

StartChar: Thorn
Encoding: 222 222 158
Width: 1319
GlyphClass: 2
Flags: W
LayerCount: 2
Fore
SplineSet
419 1012 m 1,0,-1
 420 534 l 1,1,-1
 731 534 l 2,2,3
 866 534 866 534 946.5 596 c 128,-1,4
 1027 658 1027 658 1027 772 c 0,5,6
 1027 1012 1027 1012 708 1012 c 2,7,-1
 419 1012 l 1,0,-1
182 15 m 1,8,-1
 182 1440 l 1,9,-1
 419 1440 l 1,10,-1
 419 1198 l 1,11,-1
 688 1198 l 2,12,13
 939 1198 939 1198 1105 1094 c 0,14,15
 1270 990 1270 990 1270 759 c 0,16,17
 1270 618 1270 618 1192 517 c 0,18,19
 1041 321 1041 321 713 321 c 2,20,-1
 419 321 l 1,21,-1
 419 15 l 1,22,-1
 182 15 l 1,8,-1
EndSplineSet
EndChar

StartChar: germandbls
Encoding: 223 223 159
Width: 1259
GlyphClass: 2
Flags: W
LayerCount: 2
Fore
SplineSet
753 189 m 2,0,1
 831 189 831 189 873.5 231 c 128,-1,2
 916 273 916 273 916 346.5 c 128,-1,3
 916 420 916 420 865 471 c 128,-1,4
 814 522 814 522 717 573.5 c 128,-1,5
 620 625 620 625 579 649 c 0,6,7
 492 699 492 699 492 768.5 c 128,-1,8
 492 838 492 838 564 893 c 0,9,10
 577 903 577 903 608.5 925.5 c 128,-1,11
 640 948 640 948 675 974 c 128,-1,12
 710 1000 710 1000 737 1041 c 128,-1,13
 764 1082 764 1082 764 1140.5 c 128,-1,14
 764 1199 764 1199 713 1236.5 c 128,-1,15
 662 1274 662 1274 589 1274 c 0,16,17
 456 1274 456 1274 421 1204.5 c 128,-1,18
 386 1135 386 1135 386 1003 c 2,19,-1
 386 0 l 1,20,-1
 101 0 l 1,21,-1
 101 1017 l 2,22,23
 101 1236 101 1236 225.5 1357 c 128,-1,24
 350 1478 350 1478 557 1478 c 128,-1,25
 764 1478 764 1478 899.5 1391.5 c 128,-1,26
 1035 1305 1035 1305 1035 1135.5 c 0,27,28
 1036 966 1036 966 838 834 c 0,29,30
 810 816 810 816 763 786 c 1,31,32
 824 758 824 758 936 695 c 128,-1,33
 1048 632 1048 632 1102 570.5 c 128,-1,34
 1156 509 1156 509 1177 456.5 c 128,-1,35
 1198 404 1198 404 1198 342 c 0,36,37
 1198 175 1198 175 1084 87.5 c 128,-1,38
 970 0 970 0 785 0 c 2,39,-1
 513 0 l 1,40,-1
 542 189 l 1,41,-1
 753 189 l 2,0,1
EndSplineSet
EndChar

StartChar: ae
Encoding: 230 230 166
Width: 1651
GlyphClass: 2
Flags: W
LayerCount: 2
Fore
SplineSet
100.5 150.5 m 128,-1,1
 62 225 62 225 62 285 c 128,-1,2
 62 345 62 345 67 373.5 c 128,-1,3
 72 402 72 402 84.5 425 c 128,-1,4
 97 448 97 448 110 466.5 c 128,-1,5
 123 485 123 485 148.5 500.5 c 128,-1,6
 174 516 174 516 194.5 527.5 c 128,-1,7
 215 539 215 539 253.5 549.5 c 128,-1,8
 292 560 292 560 319.5 566.5 c 128,-1,9
 347 573 347 573 397.5 580.5 c 128,-1,10
 448 588 448 588 482.5 592.5 c 128,-1,11
 517 597 517 597 578 605 c 1,12,-1
 667 614 l 1,13,-1
 667 710 l 2,14,15
 667 809 667 809 629.5 854.5 c 128,-1,16
 592 900 592 900 488 905 c 1,17,18
 376 905 376 905 217 846 c 0,19,20
 182 833 182 833 181 833 c 2,21,-1
 127 1023 l 1,22,23
 289 1096 289 1096 499 1103 c 1,24,25
 505 1103 505 1103 510 1103 c 0,26,27
 632 1103 632 1103 714 1061 c 0,28,29
 800 1017 800 1017 832 933 c 1,30,31
 890 1007 890 1007 983 1055.5 c 128,-1,32
 1076 1104 1076 1104 1175 1104 c 0,33,34
 1435 1104 1435 1104 1535 893 c 0,35,36
 1597 761 1597 761 1597 586 c 0,37,38
 1597 525 1597 525 1450 521 c 1,39,40
 1388 517 1388 517 942 482 c 1,41,42
 946 337 946 337 1017 261.5 c 128,-1,43
 1088 186 1088 186 1197 185 c 0,44,45
 1202 185 1202 185 1207 185 c 0,46,47
 1399 185 1399 185 1487 253 c 1,48,-1
 1566 80 l 1,49,50
 1495 30 1495 30 1412 5 c 128,-1,51
 1329 -20 1329 -20 1202 -20 c 0,52,53
 939 -20 939 -20 812 147 c 1,54,55
 655 -21 655 -21 401 -21 c 0,56,57
 297 -21 297 -21 218 27.5 c 128,-1,0
 139 76 139 76 100.5 150.5 c 128,-1,1
711 290 m 1,58,59
 674 401 674 401 674 454 c 1,60,-1
 577 440 l 2,61,62
 450 421 450 421 431.5 415 c 128,-1,63
 413 409 413 409 389.5 401.5 c 128,-1,64
 366 394 366 394 342 369.5 c 128,-1,65
 318 345 318 345 318 291.5 c 128,-1,66
 318 238 318 238 351 200 c 128,-1,67
 384 162 384 162 449 162 c 0,68,69
 579 162 579 162 711 290 c 1,58,59
1342 708 m 0,70,71
 1342 841 1342 841 1255 882 c 0,72,73
 1224 896 1224 896 1190 896 c 0,74,75
 1074 896 1074 896 1005 817 c 0,76,77
 953 757 953 757 943 632 c 1,78,-1
 1340 672 l 1,79,80
 1342 686 1342 686 1342 708 c 0,70,71
EndSplineSet
EndChar

StartChar: eth
Encoding: 240 240 176
Width: 1215
GlyphClass: 2
Flags: W
LayerCount: 2
Fore
SplineSet
567 915 m 0,0,1
 598 915 598 915 673 903 c 2,2,-1
 698 899 l 1,3,-1
 525 1094 l 1,4,-1
 289 997 l 1,5,-1
 223 1179 l 1,6,-1
 393 1250 l 1,7,-1
 201 1478 l 1,8,-1
 518 1478 l 1,9,-1
 626 1345 l 1,10,-1
 883 1451 l 1,11,-1
 951 1270 l 1,12,-1
 756 1189 l 1,13,14
 967 952 967 952 1060 802 c 0,15,16
 1154 651 1154 651 1156 433 c 0,17,18
 1156 222 1156 222 1012 102 c 0,19,20
 868 -19 868 -19 624.5 -19 c 128,-1,21
 381 -19 381 -19 230.5 112 c 128,-1,22
 80 243 80 243 80 455 c 128,-1,23
 80 667 80 667 212.5 791 c 128,-1,24
 345 915 345 915 567 915 c 0,0,1
833.5 678.5 m 128,-1,26
 757 754 757 754 621.5 754 c 128,-1,27
 486 754 486 754 412 680.5 c 128,-1,28
 338 607 338 607 338 478 c 128,-1,29
 338 349 338 349 417 274 c 128,-1,30
 496 199 496 199 628 199 c 128,-1,31
 760 199 760 199 835 272 c 128,-1,32
 910 345 910 345 910 474 c 128,-1,25
 910 603 910 603 833.5 678.5 c 128,-1,26
EndSplineSet
EndChar

StartChar: divide
Encoding: 247 247 183
Width: 1511
GlyphClass: 2
Flags: W
LayerCount: 2
Fore
SplineSet
906 291 m 1,0,-1
 906 21 l 1,1,-1
 603 21 l 1,2,-1
 603 291 l 1,3,-1
 906 291 l 1,0,-1
906 1088 m 1,4,-1
 906 818 l 1,5,-1
 603 818 l 1,6,-1
 603 1088 l 1,7,-1
 906 1088 l 1,4,-1
1300 460 m 1,8,-1
 198 460 l 1,9,-1
 198 659 l 1,10,-1
 1300 659 l 1,11,-1
 1300 460 l 1,8,-1
EndSplineSet
EndChar

StartChar: oslash
Encoding: 248 248 184
Width: 1184
GlyphClass: 2
Flags: W
LayerCount: 2
Fore
SplineSet
305 -188 m 1,0,-1
 246 -156 l 1,1,-1
 875 1278 l 1,2,-1
 942 1244 l 1,3,-1
 305 -188 l 1,0,-1
771.5 277 m 128,-1,5
 840 368 840 368 840 539.5 c 128,-1,6
 840 711 840 711 771 802.5 c 128,-1,7
 702 894 702 894 587 894 c 128,-1,8
 472 894 472 894 403 802.5 c 128,-1,9
 334 711 334 711 334 539.5 c 128,-1,10
 334 368 334 368 402.5 277 c 128,-1,11
 471 186 471 186 587 186 c 128,-1,4
 703 186 703 186 771.5 277 c 128,-1,5
1054 831 m 128,-1,13
 1112 705 1112 705 1112 539.5 c 128,-1,14
 1112 374 1112 374 1054 250 c 128,-1,15
 996 126 996 126 876 53 c 128,-1,16
 756 -20 756 -20 587 -20 c 128,-1,17
 418 -20 418 -20 298 53 c 0,18,19
 62 198 62 198 62 542 c 0,20,21
 62 887 62 887 298 1030 c 0,22,23
 418 1103 418 1103 587 1103 c 128,-1,24
 756 1103 756 1103 876 1030 c 128,-1,12
 996 957 996 957 1054 831 c 128,-1,13
EndSplineSet
EndChar

StartChar: thorn
Encoding: 254 254 190
Width: 1298
GlyphClass: 2
Flags: W
LayerCount: 2
Fore
SplineSet
481.5 283.5 m 128,-1,1
 553 197 553 197 695.5 197 c 128,-1,2
 838 197 838 197 902.5 286 c 128,-1,3
 967 375 967 375 967 523.5 c 128,-1,4
 967 672 967 672 902.5 761.5 c 128,-1,5
 838 851 838 851 695.5 851 c 128,-1,6
 553 851 553 851 481.5 764 c 128,-1,7
 410 677 410 677 410 523.5 c 128,-1,0
 410 370 410 370 481.5 283.5 c 128,-1,1
411 103 m 1,8,-1
 411 -422 l 1,9,-1
 167 -422 l 1,10,-1
 167 1202 l 1,11,-1
 160 1494 l 1,12,-1
 411 1494 l 1,13,-1
 411 940 l 1,14,15
 481 1010 481 1010 615 1042 c 0,16,17
 667 1054 667 1054 721 1055 c 0,18,19
 969 1055 969 1055 1093 898 c 0,20,21
 1217 741 1217 741 1217 511 c 0,22,23
 1217 281 1217 281 1100 132 c 0,24,25
 983 -17 983 -17 741 -17 c 0,26,27
 588 -18 588 -18 464 60 c 0,28,29
 436 78 436 78 411 103 c 1,8,-1
EndSplineSet
EndChar

StartChar: gcedilla
Encoding: 291 291 226
Width: 1295
GlyphClass: 2
Flags: W
LayerCount: 2
Fore
SplineSet
769 1723 m 1,0,-1
 660 1200 l 1,1,-1
 430 1200 l 1,2,-1
 595 1723 l 1,3,-1
 769 1723 l 1,0,-1
350 -488 m 1,4,-1
 330 -269 l 1,5,-1
 442 -269 l 2,6,7
 637 -270 637 -270 672 -260 c 0,8,9
 767 -235 767 -235 786 -212 c 0,10,11
 835 -153 835 -153 843 -114 c 0,12,13
 860 -34 860 -34 860 57 c 2,14,-1
 860 143 l 1,15,16
 784 36 784 36 670 11 c 0,17,18
 620 0 620 0 538 0 c 128,-1,19
 456 0 456 0 366 37.5 c 128,-1,20
 276 75 276 75 208 143.5 c 128,-1,21
 140 212 140 212 101 317 c 128,-1,22
 62 422 62 422 62 539 c 0,23,24
 62 859 62 859 265 1010 c 0,25,26
 391 1103 391 1103 540 1103 c 0,27,28
 760 1102 760 1102 860 958 c 1,29,-1
 860 1063 l 1,30,-1
 1143 1063 l 1,31,-1
 1143 65 l 2,32,33
 1143 -84 1143 -84 1112 -184.5 c 0,34,35
 1082 -285 1082 -285 1006 -355 c 0,36,37
 863 -488 863 -488 488 -488 c 2,38,-1
 350 -488 l 1,4,-1
410.5 301.5 m 128,-1,40
 487 206 487 206 605 206 c 128,-1,41
 723 206 723 206 797.5 299 c 128,-1,42
 872 392 872 392 872 547 c 2,43,-1
 872 559 l 1,44,45
 869 713 869 713 794 803 c 128,-1,46
 719 893 719 893 596 894 c 0,47,-1
 593 894 l 0,48,49
 472 894 472 894 404 802 c 0,50,51
 334 709 334 709 334 553 c 128,-1,39
 334 397 334 397 410.5 301.5 c 128,-1,40
EndSplineSet
EndChar

StartChar: hbar
Encoding: 295 295 229
Width: 1216
GlyphClass: 2
Flags: W
LayerCount: 2
Fore
SplineSet
521 812 m 128,-1,1
 439 755 439 755 414 680 c 1,2,-1
 414 25 l 1,3,-1
 171 25 l 1,4,-1
 171 1168 l 5,5,-1
 12 1168 l 5,6,-1
 12 1322 l 5,7,-1
 171 1322 l 5,8,-1
 171 1492 l 1,9,-1
 414 1492 l 1,10,-1
 414 1322 l 5,11,-1
 607 1322 l 5,12,-1
 607 1168 l 5,13,-1
 414 1168 l 5,14,-1
 414 938 l 1,15,-1
 430 951 l 1,16,17
 552 1052 552 1052 744.5 1052 c 128,-1,18
 937 1052 937 1052 1032 935 c 128,-1,19
 1127 818 1127 818 1127 620 c 2,20,-1
 1127 25 l 1,21,-1
 884 25 l 1,22,-1
 885 538 l 2,23,24
 885 697 885 697 867 756 c 128,-1,25
 849 815 849 815 810 842 c 128,-1,26
 771 869 771 869 687 869 c 128,-1,0
 603 869 603 869 521 812 c 128,-1,1
EndSplineSet
EndChar

StartChar: dotlessi
Encoding: 305 305 239
Width: 587
GlyphClass: 2
Flags: W
LayerCount: 2
Fore
SplineSet
410 1063 m 1,0,-1
 410 0 l 1,1,-1
 127 0 l 1,2,-1
 127 1063 l 1,3,-1
 410 1063 l 1,0,-1
EndSplineSet
EndChar

StartChar: IJ
Encoding: 306 306 240
Width: 1494
GlyphClass: 2
Flags: W
LayerCount: 2
Fore
SplineSet
1077 390 m 2,0,-1
 1077 1430 l 1,1,-1
 1329 1431 l 1,2,-1
 1329 439 l 2,3,4
 1329 314 1329 314 1308.5 231 c 128,-1,5
 1288 148 1288 148 1238 90 c 0,6,7
 1144 -18 1144 -18 892 -18 c 2,8,-1
 836 -18 l 1,9,-1
 836 183 l 1,10,-1
 910 185 l 2,11,12
 1014 188 1014 188 1045.5 229 c 128,-1,13
 1077 270 1077 270 1077 390 c 2,0,-1
445 1440 m 1,14,-1
 445 15 l 1,15,-1
 194 15 l 1,16,-1
 194 1440 l 1,17,-1
 445 1440 l 1,14,-1
EndSplineSet
EndChar

StartChar: ij
Encoding: 307 307 241
Width: 1041
GlyphClass: 2
Flags: W
LayerCount: 2
Fore
SplineSet
878 189 m 2,0,1
 878 104 878 104 876 60 c 0,2,3
 865 -174 865 -174 687 -236 c 0,4,5
 605 -264 605 -264 473 -280 c 1,6,-1
 439 -285 l 1,7,-1
 437 -70 l 1,8,-1
 464 -66 l 1,9,10
 523 -59 523 -59 554 -49.5 c 128,-1,11
 585 -40 585 -40 604 -15.5 c 128,-1,12
 623 9 623 9 628 43 c 128,-1,13
 633 77 633 77 633 142 c 2,14,-1
 633 1036 l 1,15,-1
 878 1036 l 1,16,-1
 878 189 l 2,0,1
397 1045 m 1,17,-1
 397 15 l 1,18,-1
 153 15 l 1,19,-1
 153 1045 l 1,20,-1
 397 1045 l 1,17,-1
397 1450 m 1,21,-1
 397 1206 l 1,22,-1
 153 1206 l 1,23,-1
 153 1450 l 1,24,-1
 397 1450 l 1,21,-1
878 1451 m 1,25,-1
 878 1207 l 1,26,-1
 633 1207 l 1,27,-1
 633 1451 l 1,28,-1
 878 1451 l 1,25,-1
EndSplineSet
EndChar

StartChar: kgreenlandic
Encoding: 312 312 246
Width: 1137
GlyphClass: 2
Flags: W
LayerCount: 2
Fore
SplineSet
868 15 m 1,0,-1
 396 446 l 1,1,-1
 396 15 l 1,2,-1
 179 15 l 1,3,-1
 178 1050 l 1,4,-1
 395 1050 l 1,5,-1
 395 625 l 1,6,-1
 821 1050 l 1,7,-1
 1125 1050 l 1,8,-1
 571 533 l 1,9,10
 684 438 684 438 1057 110 c 1,11,-1
 1164 15 l 1,12,-1
 868 15 l 1,0,-1
EndSplineSet
EndChar

StartChar: Lslash
Encoding: 321 321 255
Width: 1175
GlyphClass: 2
Flags: W
LayerCount: 2
Fore
SplineSet
724 1080 m 1,0,-1
 724 884 l 1,1,-1
 446 716 l 1,2,-1
 446 229 l 1,3,-1
 1122 230 l 1,4,-1
 1122 26 l 1,5,-1
 202 26 l 1,6,-1
 202 575 l 1,7,-1
 24 465 l 1,8,-1
 24 662 l 1,9,-1
 202 772 l 1,10,-1
 202 1461 l 1,11,-1
 446 1461 l 1,12,-1
 446 912 l 1,13,-1
 724 1080 l 1,0,-1
EndSplineSet
EndChar

StartChar: lslash
Encoding: 322 322 256
Width: 558
GlyphClass: 2
Flags: W
LayerCount: 2
Fore
SplineSet
169 656 m 1,0,-1
 10 561 l 1,1,-1
 10 757 l 1,2,-1
 169 852 l 1,3,-1
 169 1496 l 1,4,-1
 386 1496 l 1,5,-1
 386 960 l 1,6,-1
 549 1061 l 1,7,-1
 549 867 l 1,8,-1
 386 772 l 1,9,-1
 386 25 l 1,10,-1
 169 25 l 1,11,-1
 169 656 l 1,0,-1
EndSplineSet
EndChar

StartChar: OE
Encoding: 338 338 269
Width: 2299
GlyphClass: 2
Flags: W
LayerCount: 2
Fore
SplineSet
1181 1118 m 1,0,1
 1055 1253 1055 1253 826 1253 c 0,2,3
 722 1253 722 1253 637.5 1207.5 c 128,-1,4
 553 1162 553 1162 500.5 1086.5 c 128,-1,5
 448 1011 448 1011 420 917 c 128,-1,6
 392 823 392 823 392 722 c 128,-1,7
 392 621 392 621 420 529.5 c 128,-1,8
 448 438 448 438 501 365.5 c 128,-1,9
 554 293 554 293 638 250 c 128,-1,10
 722 207 722 207 826 207 c 0,11,12
 1055 207 1055 207 1181 333 c 1,13,-1
 1181 1118 l 1,0,1
458.5 1381.5 m 128,-1,15
 623 1478 623 1478 821.5 1478 c 128,-1,16
 1020 1478 1020 1478 1181 1374 c 1,17,-1
 1181 1450 l 1,18,-1
 2159 1450 l 1,19,-1
 2141 1228 l 1,20,-1
 1464 1228 l 1,21,-1
 1464 869 l 1,22,-1
 2113 869 l 1,23,-1
 2113 651 l 1,24,-1
 1464 651 l 1,25,-1
 1464 226 l 1,26,-1
 2189 226 l 1,27,-1
 2171 5 l 1,28,-1
 1181 5 l 1,29,-1
 1181 86 l 1,30,31
 1023 -18 1023 -18 849 -18 c 128,-1,32
 675 -18 675 -18 541.5 38.5 c 128,-1,33
 408 95 408 95 312.5 193 c 128,-1,34
 217 291 217 291 161.5 430 c 128,-1,35
 106 569 106 569 106 755 c 128,-1,36
 106 941 106 941 200 1113 c 128,-1,14
 294 1285 294 1285 458.5 1381.5 c 128,-1,15
EndSplineSet
EndChar

StartChar: oe
Encoding: 339 339 270
Width: 1848
GlyphClass: 2
Flags: W
LayerCount: 2
Fore
SplineSet
1758 105 m 1,0,1
 1678 44 1678 44 1593 12 c 128,-1,2
 1508 -20 1508 -20 1384 -20 c 0,3,4
 1083 -20 1083 -20 972 165 c 1,5,6
 920 81 920 81 821 30.5 c 128,-1,7
 722 -20 722 -20 591 -20 c 128,-1,8
 460 -20 460 -20 358 24 c 128,-1,9
 256 68 256 68 194 146 c 0,10,11
 68 303 68 303 67.5 541 c 128,-1,12
 67 779 67 779 197 941 c 128,-1,13
 327 1103 327 1103 591 1103 c 0,14,15
 719 1103 719 1103 816 1048.5 c 128,-1,16
 913 994 913 994 974 905 c 1,17,18
 1027 997 1027 997 1122.5 1050 c 128,-1,19
 1218 1103 1218 1103 1330 1103 c 0,20,21
 1619 1103 1619 1103 1724 882 c 0,22,23
 1789 744 1789 744 1789 563 c 1,24,-1
 1787 475 l 1,25,-1
 1101 475 l 1,26,27
 1110 184 1110 184 1391 184 c 0,28,29
 1556 184 1556 184 1679 278 c 1,30,-1
 1758 105 l 1,0,1
409 275.5 m 128,-1,32
 479 186 479 186 591.5 186 c 128,-1,33
 704 186 704 186 774.5 274 c 128,-1,34
 845 362 845 362 845 538 c 128,-1,35
 845 714 845 714 775 804 c 128,-1,36
 705 894 705 894 591 894 c 128,-1,37
 477 894 477 894 408 802.5 c 128,-1,38
 339 711 339 711 339 538 c 128,-1,31
 339 365 339 365 409 275.5 c 128,-1,32
1104 631 m 1,39,-1
 1532 631 l 1,40,-1
 1532 640 l 2,41,42
 1532 895 1532 895 1330 895 c 0,43,44
 1253 895 1253 895 1183.5 839 c 128,-1,45
 1114 783 1114 783 1104 631 c 1,39,-1
EndSplineSet
EndChar

StartChar: florin
Encoding: 402 402 311
Width: 1048
GlyphClass: 2
Flags: W
LayerCount: 2
Fore
SplineSet
486 1071 m 2,0,1
 539 1441 539 1441 846 1441 c 0,2,3
 912 1441 912 1441 990 1421 c 2,4,-1
 1013 1415 l 1,5,-1
 1000 1200 l 1,6,-1
 961 1216 l 2,7,8
 911 1236 911 1236 857 1236 c 128,-1,9
 803 1236 803 1236 775 1206.5 c 128,-1,10
 747 1177 747 1177 733 1106 c 2,11,-1
 704 952 l 1,12,-1
 894 952 l 1,13,-1
 880 759 l 1,14,-1
 669 759 l 1,15,-1
 544 127 l 1,16,17
 498 -114 498 -114 426 -205 c 0,18,19
 328 -329 328 -329 188 -329 c 0,20,21
 125 -329 125 -329 58 -311 c 1,22,-1
 34 -305 l 1,23,-1
 52 -102 l 1,24,-1
 89 -116 l 2,25,26
 128 -130 128 -130 154 -130 c 0,27,28
 209 -130 209 -130 245 -69 c 128,-1,29
 281 -8 281 -8 320.5 183 c 128,-1,30
 360 374 360 374 390 534 c 128,-1,31
 420 694 420 694 433 761 c 1,32,-1
 281 761 l 1,33,-1
 295 952 l 1,34,-1
 469 952 l 1,35,-1
 486 1071 l 2,0,1
EndSplineSet
EndChar

StartChar: dotlessj
Encoding: 567 567 359
Width: 548
GlyphClass: 2
Flags: W
LayerCount: 2
Fore
SplineSet
430 1051 m 1,0,-1
 430 165 l 2,1,2
 430 37 430 37 412.5 -47.5 c 0,3,4
 394 -132 394 -132 348 -196 c 0,5,6
 259 -318 259 -318 5 -318 c 2,7,-1
 -31 -318 l 1,8,-1
 -31 -105 l 1,9,-1
 -2 -105 l 2,10,11
 56 -105 56 -105 89.5 -96 c 128,-1,12
 123 -87 123 -87 147 -52 c 128,-1,13
 171 -17 171 -17 171 107 c 2,14,-1
 171 1051 l 1,15,-1
 430 1051 l 1,0,-1
EndSplineSet
EndChar

StartChar: uni0259
Encoding: 601 601 360
Width: 1109
GlyphClass: 2
Flags: W
LayerCount: 2
Fore
SplineSet
776 608 m 1,0,1
 768 899 768 899 457 899 c 0,2,3
 297 899 297 899 172 805 c 1,4,-1
 93 978 l 1,5,6
 257 1103 257 1103 487 1103 c 0,7,8
 759 1103 759 1103 907 953 c 128,-1,9
 1055 803 1055 803 1055 542 c 0,10,11
 1055 384 1055 384 994.5 257.5 c 128,-1,12
 934 131 934 131 814.5 55.5 c 128,-1,13
 695 -20 695 -20 556 -20 c 0,14,15
 299 -20 299 -20 180.5 138.5 c 128,-1,16
 62 297 62 297 62 520 c 1,17,-1
 64 608 l 1,18,-1
 776 608 l 1,0,1
773 456 m 1,19,-1
 319 456 l 1,20,21
 319 327 319 327 374 257.5 c 128,-1,22
 429 188 429 188 520 188 c 128,-1,23
 611 188 611 188 687 247 c 128,-1,24
 763 306 763 306 773 456 c 1,19,-1
EndSplineSet
EndChar

StartChar: circumflex
Encoding: 710 710 362
Width: 743
GlyphClass: 2
Flags: W
LayerCount: 2
Fore
SplineSet
25 1133 m 1,0,-1
 288 1515 l 1,1,-1
 488 1515 l 1,2,-1
 751 1133 l 1,3,-1
 557 1133 l 1,4,-1
 384 1334 l 1,5,-1
 214 1133 l 1,6,-1
 25 1133 l 1,0,-1
EndSplineSet
EndChar

StartChar: caron
Encoding: 711 711 363
Width: 739
GlyphClass: 2
Flags: W
LayerCount: 2
Fore
SplineSet
16 1515 m 1,0,-1
 230 1515 l 1,1,-1
 385 1357 l 1,2,-1
 545 1515 l 1,3,-1
 765 1515 l 1,4,-1
 487 1174 l 1,5,-1
 294 1174 l 1,6,-1
 16 1515 l 1,0,-1
EndSplineSet
EndChar

StartChar: breve
Encoding: 728 728 364
Width: 688
GlyphClass: 2
Flags: W
LayerCount: 2
Fore
SplineSet
338 1206 m 128,-1,1
 197 1206 197 1206 117.5 1268 c 128,-1,2
 38 1330 38 1330 38 1455 c 1,3,-1
 222 1455 l 1,4,5
 222 1411 222 1411 247.5 1392.5 c 128,-1,6
 273 1374 273 1374 338 1374 c 128,-1,7
 403 1374 403 1374 428.5 1392.5 c 128,-1,8
 454 1411 454 1411 454 1455 c 1,9,-1
 638 1455 l 1,10,11
 638 1330 638 1330 558.5 1268 c 128,-1,0
 479 1206 479 1206 338 1206 c 128,-1,1
EndSplineSet
EndChar

StartChar: dotaccent
Encoding: 729 729 365
Width: 582
GlyphClass: 2
Flags: W
LayerCount: 2
Fore
SplineSet
169 1455 m 1,0,-1
 381 1455 l 1,1,-1
 381 1232 l 1,2,-1
 169 1232 l 1,3,-1
 169 1455 l 1,0,-1
EndSplineSet
EndChar

StartChar: ring
Encoding: 730 730 366
Width: 664
GlyphClass: 2
Flags: W
LayerCount: 2
Fore
SplineSet
160 1480 m 128,-1,1
 219 1541 219 1541 326.5 1541 c 128,-1,2
 434 1541 434 1541 493 1480.5 c 128,-1,3
 552 1420 552 1420 552 1335.5 c 128,-1,4
 552 1251 552 1251 492 1188 c 128,-1,5
 432 1125 432 1125 326 1125 c 128,-1,6
 220 1125 220 1125 160.5 1187.5 c 128,-1,7
 101 1250 101 1250 101 1334.5 c 128,-1,0
 101 1419 101 1419 160 1480 c 128,-1,1
248 1257 m 128,-1,9
 276 1224 276 1224 326.5 1224 c 128,-1,10
 377 1224 377 1224 405 1256.5 c 128,-1,11
 433 1289 433 1289 433 1334.5 c 128,-1,12
 433 1380 433 1380 404.5 1413 c 128,-1,13
 376 1446 376 1446 326 1446 c 128,-1,14
 276 1446 276 1446 248 1413 c 128,-1,15
 220 1380 220 1380 220 1335 c 128,-1,8
 220 1290 220 1290 248 1257 c 128,-1,9
EndSplineSet
EndChar

StartChar: ogonek
Encoding: 731 731 367
Width: 565
GlyphClass: 2
Flags: W
LayerCount: 2
Fore
SplineSet
109 -226 m 0,0,1
 109 -90 109 -90 299 8 c 1,2,-1
 402 8 l 1,3,4
 300 -62 300 -62 300 -160 c 0,5,6
 300 -188 300 -188 320.5 -211.5 c 128,-1,7
 341 -235 341 -235 386 -235 c 0,8,9
 431 -235 431 -235 496 -210 c 1,10,-1
 517 -201 l 1,11,-1
 517 -344 l 1,12,13
 419 -383 419 -383 322.5 -383 c 128,-1,14
 226 -383 226 -383 167.5 -343.5 c 128,-1,15
 109 -304 109 -304 109 -226 c 0,0,1
EndSplineSet
EndChar

StartChar: tilde
Encoding: 732 732 368
Width: 741
GlyphClass: 2
Flags: W
LayerCount: 2
Fore
SplineSet
226 1297 m 0,0,1
 178 1297 178 1297 178 1209 c 1,2,-1
 22 1209 l 1,3,4
 22 1303 22 1303 37 1351 c 0,5,6
 52 1399 52 1399 89 1427 c 128,-1,7
 126 1455 126 1455 187 1455 c 128,-1,8
 248 1455 248 1455 316.5 1434.5 c 128,-1,9
 385 1414 385 1414 438.5 1394 c 128,-1,10
 492 1374 492 1374 513 1374 c 0,11,12
 559 1374 559 1374 559 1455 c 1,13,-1
 718 1455 l 1,14,15
 718 1364 718 1364 702 1316 c 0,16,17
 686 1268 686 1268 651 1238.5 c 128,-1,18
 616 1209 616 1209 558.5 1209 c 128,-1,19
 501 1209 501 1209 427 1231 c 128,-1,20
 353 1253 353 1253 295 1275 c 128,-1,21
 237 1297 237 1297 226 1297 c 0,0,1
EndSplineSet
EndChar

StartChar: hungarumlaut
Encoding: 733 733 369
Width: 1010
GlyphClass: 2
Flags: W
LayerCount: 2
Fore
SplineSet
974 1490 m 1,0,-1
 619 1120 l 1,1,-1
 478 1120 l 1,2,-1
 732 1490 l 1,3,-1
 974 1490 l 1,0,-1
648 1490 m 1,4,-1
 293 1120 l 1,5,-1
 152 1120 l 1,6,-1
 406 1490 l 1,7,-1
 648 1490 l 1,4,-1
EndSplineSet
EndChar

StartChar: dotaccentcmb
Encoding: 775 775 370
Width: 549
GlyphClass: 2
Flags: W
LayerCount: 2
Fore
SplineSet
169 1419 m 1,0,-1
 381 1419 l 1,1,-1
 381 1196 l 1,2,-1
 169 1196 l 1,3,-1
 169 1419 l 1,0,-1
EndSplineSet
EndChar

StartChar: uni030F
Encoding: 783 783 371
Width: 994
GlyphClass: 2
Flags: W
LayerCount: 2
Fore
SplineSet
675 1176 m 1,0,-1
 372 1516 l 1,1,-1
 655 1516 l 1,2,-1
 885 1176 l 1,3,-1
 675 1176 l 1,0,-1
291 1176 m 1,4,-1
 -34 1516 l 1,5,-1
 272 1516 l 1,6,-1
 479 1176 l 1,7,-1
 291 1176 l 1,4,-1
EndSplineSet
EndChar

StartChar: uni0311
Encoding: 785 785 372
Width: 688
GlyphClass: 2
Flags: W
LayerCount: 2
Fore
SplineSet
454 1206 m 1,0,-1
 454 1233 l 2,1,2
 454 1257 454 1257 424 1272 c 128,-1,3
 394 1287 394 1287 338 1287 c 128,-1,4
 282 1287 282 1287 252 1272 c 128,-1,5
 222 1257 222 1257 222 1233 c 2,6,-1
 222 1206 l 1,7,-1
 38 1206 l 1,8,-1
 38 1235 l 2,9,10
 38 1338 38 1338 124.5 1396.5 c 128,-1,11
 211 1455 211 1455 338 1455 c 128,-1,12
 465 1455 465 1455 551.5 1396 c 128,-1,13
 638 1337 638 1337 638 1235 c 2,14,-1
 638 1206 l 1,15,-1
 454 1206 l 1,0,-1
EndSplineSet
EndChar

StartChar: uni0326
Encoding: 806 806 373
Width: 563
GlyphClass: 2
Flags: W
LayerCount: 2
Fore
SplineSet
67 -675 m 1,0,-1
 182 -152 l 1,1,-1
 426 -152 l 1,2,-1
 251 -675 l 1,3,-1
 67 -675 l 1,0,-1
EndSplineSet
EndChar

StartChar: Omega
Encoding: 937 937 374
Width: 1586
GlyphClass: 2
Flags: W
LayerCount: 2
Fore
SplineSet
936 16 m 1,0,-1
 929 173 l 1,1,-1
 948 184 l 1,2,3
 1235 397 1235 397 1235 753 c 0,4,5
 1236 1055 1236 1055 1044 1180 c 0,6,7
 944 1245 944 1245 800 1245 c 0,8,9
 583 1245 583 1245 467.5 1111 c 128,-1,10
 352 977 352 977 352 757 c 0,11,12
 352 384 352 384 660 174 c 1,13,-1
 664 16 l 1,14,-1
 114 16 l 1,15,-1
 99 204 l 1,16,-1
 374 203 l 1,17,-1
 356 220 l 2,18,19
 121 441 121 441 121 779 c 0,20,21
 121 1078 121 1078 308.5 1261 c 128,-1,22
 496 1444 496 1444 805 1444 c 0,23,24
 955 1444 955 1444 1079 1394 c 128,-1,25
 1203 1344 1203 1344 1287 1256 c 0,26,27
 1464 1070 1464 1070 1464 763 c 128,-1,28
 1464 456 1464 456 1223 220 c 1,29,-1
 1205 203 l 1,30,-1
 1468 204 l 1,31,-1
 1455 16 l 1,32,-1
 936 16 l 1,0,-1
EndSplineSet
EndChar

StartChar: mu
Encoding: 956 956 375
Width: 1220
GlyphClass: 2
Flags: W
LayerCount: 2
Fore
SplineSet
609 -18 m 0,0,1
 472 -18 472 -18 358 53 c 1,2,-1
 358 -196 l 1,3,-1
 141 -196 l 1,4,-1
 141 1036 l 1,5,-1
 385 1036 l 1,6,-1
 385 412 l 2,7,8
 385 314 385 314 445 255 c 128,-1,9
 505 196 505 196 609 196 c 128,-1,10
 713 196 713 196 773.5 255.5 c 128,-1,11
 834 315 834 315 834 411 c 2,12,-1
 834 1035 l 1,13,-1
 1077 1035 l 1,14,-1
 1077 407 l 2,15,16
 1077 214 1077 214 948.5 98 c 128,-1,17
 820 -18 820 -18 609 -18 c 0,0,1
EndSplineSet
EndChar

StartChar: pi
Encoding: 960 960 376
Width: 1383
GlyphClass: 2
Flags: W
LayerCount: 2
Fore
SplineSet
310 885 m 1,0,1
 175 877 175 877 51 809 c 1,2,-1
 23 991 l 1,3,4
 91 1040 91 1040 172.5 1054 c 128,-1,5
 254 1068 254 1068 402 1068 c 2,6,-1
 1302 1068 l 1,7,-1
 1302 875 l 1,8,-1
 1108 875 l 1,9,-1
 1108 318 l 2,10,11
 1108 253 1108 253 1120 229 c 128,-1,12
 1132 205 1132 205 1166 205 c 128,-1,13
 1200 205 1200 205 1280 230 c 1,14,-1
 1263 7 l 1,15,16
 1186 -7 1186 -7 1120 -7 c 0,17,18
 979 -7 979 -7 929 80.5 c 128,-1,19
 879 168 879 168 879 303 c 2,20,-1
 882 878 l 1,21,-1
 554 878 l 1,22,23
 527 256 527 256 386 1 c 1,24,-1
 155 1 l 1,25,26
 292 276 292 276 310 864 c 1,27,-1
 310 885 l 1,0,1
EndSplineSet
EndChar

StartChar: afii10051
Encoding: 1026 1026 379
Width: 1896
GlyphClass: 2
Flags: W
LayerCount: 2
Fore
SplineSet
1636 442 m 1,0,-1
 1636 234 l 2,1,2
 1636 -66 1636 -66 1478 -156 c 0,3,4
 1415 -192 1415 -192 1345 -197.5 c 128,-1,5
 1275 -203 1275 -203 1222 -203 c 2,6,-1
 1217 -203 l 1,7,-1
 1217 15 l 1,8,-1
 1222 15 l 2,9,10
 1336 15 1336 15 1362.5 47.5 c 128,-1,11
 1389 80 1389 80 1392 130.5 c 128,-1,12
 1395 181 1395 181 1395 232 c 2,13,-1
 1395 444 l 2,14,15
 1395 541 1395 541 1369 575.5 c 128,-1,16
 1343 610 1343 610 1320 625 c 0,17,18
 1263 662 1263 662 1089 662 c 2,19,-1
 908 662 l 1,20,-1
 908 16 l 1,21,-1
 644 16 l 1,22,-1
 620 1222 l 1,23,-1
 188 1222 l 1,24,-1
 188 1440 l 1,25,-1
 1289 1440 l 1,26,-1
 1289 1221 l 1,27,-1
 892 1221 l 1,28,-1
 893 880 l 1,29,-1
 1031 880 l 2,30,31
 1272 880 1272 880 1385.5 833.5 c 128,-1,32
 1499 787 1499 787 1561.5 695 c 128,-1,33
 1624 603 1624 603 1636 442 c 1,0,-1
EndSplineSet
EndChar

StartChar: uni0403
Encoding: 1027 1027 380
Width: 1582
GlyphClass: 2
Flags: W
LayerCount: 2
Fore
SplineSet
1132 1230 m 1,0,-1
 440 1230 l 1,1,-1
 440 15 l 1,2,-1
 188 15 l 1,3,-1
 188 1440 l 1,4,-1
 1132 1440 l 1,5,-1
 1132 1230 l 1,0,-1
EndSplineSet
EndChar

StartChar: afii10053
Encoding: 1028 1028 381
Width: 1412
GlyphClass: 2
Flags: W
LayerCount: 2
Fore
SplineSet
394 641 m 1,0,1
 422 433 422 433 545.5 320 c 128,-1,2
 669 207 669 207 844 207 c 0,3,4
 1019 207 1019 207 1206 329 c 1,5,-1
 1293 115 l 1,6,7
 1049 -18 1049 -18 819 -18 c 0,8,9
 676 -18 676 -18 546 36 c 128,-1,10
 416 90 416 90 318.5 186.5 c 128,-1,11
 221 283 221 283 163.5 425 c 128,-1,12
 106 567 106 567 106 734 c 0,13,14
 106 901 106 901 165.5 1043 c 128,-1,15
 225 1185 225 1185 325 1279 c 128,-1,16
 425 1373 425 1373 555 1425.5 c 128,-1,17
 685 1478 685 1478 826 1478 c 0,18,19
 1067 1478 1067 1478 1295 1338 c 1,20,-1
 1207 1122 l 1,21,22
 1021 1253 1021 1253 851 1253 c 0,23,24
 681 1253 681 1253 560 1146 c 128,-1,25
 439 1039 439 1039 400 859 c 1,26,-1
 1062 859 l 1,27,-1
 1062 641 l 1,28,-1
 394 641 l 1,0,1
EndSplineSet
EndChar

StartChar: uni0405
Encoding: 1029 1029 382
Width: 1292
GlyphClass: 2
Flags: W
LayerCount: 2
Fore
SplineSet
674 1253 m 0,0,1
 399 1253 399 1253 399 1071 c 0,2,3
 400 962 400 962 534 916 c 0,4,5
 558 908 558 908 597 896 c 2,6,-1
 784 840 l 1,7,8
 1021 765 1021 765 1109 665 c 0,9,10
 1197 564 1197 564 1197 415 c 0,11,12
 1197 199 1197 199 1044 90 c 0,13,14
 891 -18 891 -18 632 -18 c 128,-1,15
 373 -18 373 -18 157 112 c 1,16,-1
 135 125 l 1,17,-1
 223 347 l 1,18,-1
 254 324 l 1,19,20
 411 211 411 211 663 211 c 0,21,22
 943 211 943 211 943 413 c 0,23,24
 943 509 943 509 873 553 c 0,25,26
 803 597 803 597 693 629 c 2,27,-1
 513 683 l 1,28,29
 316 739 316 739 232 837 c 0,30,31
 149 935 149 935 149 1068 c 0,32,33
 149 1306 149 1306 365 1414 c 0,34,35
 495 1479 495 1479 674 1479 c 0,36,37
 956 1479 956 1479 1128 1362 c 1,38,-1
 1149 1347 l 1,39,-1
 1064 1150 l 1,40,-1
 1061 1144 l 1,41,42
 884 1253 884 1253 674 1253 c 0,0,1
EndSplineSet
EndChar

StartChar: uni0406
Encoding: 1030 1030 383
Width: 638
GlyphClass: 2
Flags: W
LayerCount: 2
Fore
SplineSet
445 1440 m 1,0,-1
 445 15 l 1,1,-1
 194 15 l 1,2,-1
 194 1440 l 1,3,-1
 445 1440 l 1,0,-1
EndSplineSet
EndChar

StartChar: uni0408
Encoding: 1032 1032 385
Width: 755
GlyphClass: 2
Flags: W
LayerCount: 2
Fore
SplineSet
65 183 m 1,0,-1
 144 185 l 2,1,2
 254 188 254 188 287.5 229 c 128,-1,3
 321 270 321 270 321 390 c 2,4,-1
 321 1430 l 1,5,-1
 572 1431 l 1,6,-1
 572 439 l 2,7,8
 572 314 572 314 551.5 231.5 c 128,-1,9
 531 149 531 149 480 91 c 0,10,11
 384 -18 384 -18 125 -18 c 2,12,-1
 65 -18 l 1,13,-1
 65 183 l 1,0,-1
EndSplineSet
EndChar

StartChar: uni0409
Encoding: 1033 1033 386
Width: 1861
GlyphClass: 2
Flags: W
LayerCount: 2
Fore
SplineSet
1308 663 m 2,0,-1
 1161 663 l 1,1,-1
 1161 233 l 1,2,-1
 1308 233 l 2,3,4
 1659 233 1659 233 1659 450 c 0,5,6
 1659 558 1659 558 1566 610.5 c 128,-1,7
 1473 663 1473 663 1308 663 c 2,0,-1
1135 1440 m 1,8,-1
 1135 881 l 1,9,-1
 1283 881 l 2,10,11
 1544 882 1544 882 1715 782 c 0,12,13
 1802 732 1802 732 1851.5 644.5 c 0,14,15
 1901 556 1901 556 1901 442 c 0,16,17
 1901 213 1901 213 1729.5 109.5 c 128,-1,18
 1558 6 1558 6 1287 6 c 2,19,-1
 911 6 l 1,20,-1
 869 1223 l 1,21,-1
 591 1223 l 1,22,-1
 609 441 l 1,23,24
 609 316 609 316 586.5 232.5 c 128,-1,25
 564 149 564 149 508 91 c 0,26,27
 404 -18 404 -18 127 -18 c 2,28,-1
 65 -18 l 1,29,-1
 65 185 l 1,30,-1
 146 187 l 2,31,32
 256 190 256 190 290.5 232.5 c 128,-1,33
 325 275 325 275 325 395 c 2,34,-1
 323 1440 l 1,35,-1
 1135 1440 l 1,8,-1
EndSplineSet
EndChar

StartChar: uni040A
Encoding: 1034 1034 387
Width: 1790
GlyphClass: 2
Flags: W
LayerCount: 2
Fore
SplineSet
1286 15 m 2,0,-1
 909 15 l 1,1,-1
 909 663 l 1,2,-1
 574 663 l 1,3,-1
 574 16 l 1,4,-1
 323 16 l 1,5,-1
 323 1440 l 1,6,-1
 574 1440 l 1,7,-1
 574 881 l 1,8,-1
 909 881 l 1,9,-1
 909 1440 l 1,10,-1
 1160 1440 l 1,11,-1
 1160 880 l 1,12,-1
 1299 880 l 2,13,14
 1827 880 1827 880 1827 449 c 2,15,-1
 1827 446 l 2,16,17
 1828 187 1828 187 1596 77 c 0,18,19
 1466 15 1466 15 1286 15 c 2,0,-1
1303 231 m 2,20,21
 1436 231 1436 231 1510.5 284.5 c 128,-1,22
 1585 338 1585 338 1585 448 c 0,23,24
 1585 662 1585 662 1303 662 c 2,25,-1
 1160 662 l 1,26,-1
 1160 232 l 1,27,-1
 1303 231 l 2,20,21
EndSplineSet
EndChar

StartChar: afii10060
Encoding: 1035 1035 388
Width: 1866
GlyphClass: 2
Flags: W
LayerCount: 2
Fore
SplineSet
879 880 m 1,0,-1
 1020 880 l 2,1,2
 1390 880 1390 880 1494 767 c 0,3,4
 1534 724 1534 724 1558 681 c 0,5,6
 1606 595 1606 595 1606 448 c 2,7,-1
 1606 16 l 1,8,-1
 1365 16 l 1,9,-1
 1365 447 l 2,10,11
 1365 584 1365 584 1293 623 c 128,-1,12
 1221 662 1221 662 1059 662 c 2,13,-1
 878 662 l 1,14,-1
 878 16 l 1,15,-1
 614 16 l 1,16,-1
 614 1222 l 1,17,-1
 188 1222 l 1,18,-1
 188 1440 l 1,19,-1
 1285 1440 l 1,20,-1
 1285 1221 l 1,21,-1
 878 1221 l 1,22,-1
 879 880 l 1,0,-1
EndSplineSet
EndChar

StartChar: afii10062
Encoding: 1038 1038 390
Width: 1290
GlyphClass: 2
Flags: W
LayerCount: 2
Fore
SplineSet
694 668 m 1,0,-1
 980 1430 l 1,1,-1
 1254 1430 l 1,2,-1
 875 546 l 2,3,4
 756 266 756 266 676 164 c 128,-1,5
 596 62 596 62 502 17 c 128,-1,6
 408 -28 408 -28 277 -28 c 2,7,-1
 131 -28 l 1,8,-1
 131 184 l 1,9,-1
 158 184 l 2,10,11
 341 184 341 184 381 201 c 0,12,13
 422 218 422 218 450 237 c 0,14,15
 502 272 502 272 540 355 c 2,16,-1
 587 456 l 1,17,18
 533 551 533 551 340 897 c 128,-1,19
 147 1243 147 1243 41 1430 c 1,20,-1
 310 1430 l 1,21,-1
 694 668 l 1,0,-1
671 1758 m 128,-1,23
 780 1758 780 1758 780 1812 c 2,24,-1
 780 1839 l 1,25,-1
 953 1839 l 1,26,-1
 953 1810 l 2,27,28
 953 1707 953 1707 871.5 1648.5 c 128,-1,29
 790 1590 790 1590 671 1590 c 128,-1,30
 552 1590 552 1590 470.5 1649 c 128,-1,31
 389 1708 389 1708 389 1810 c 2,32,-1
 389 1839 l 1,33,-1
 562 1839 l 1,34,-1
 562 1812 l 2,35,22
 562 1758 562 1758 671 1758 c 128,-1,23
EndSplineSet
EndChar

StartChar: afii10145
Encoding: 1039 1039 391
Width: 1557
GlyphClass: 2
Flags: W
LayerCount: 2
Fore
SplineSet
1104 1440 m 1,0,-1
 1335 1440 l 1,1,-1
 1335 15 l 1,2,-1
 813 15 l 1,3,-1
 813 -297 l 1,4,-1
 648 -297 l 1,5,-1
 648 15 l 1,6,-1
 162 15 l 1,7,-1
 162 1440 l 1,8,-1
 393 1440 l 1,9,-1
 393 205 l 1,10,-1
 1104 205 l 1,11,-1
 1104 1440 l 1,0,-1
EndSplineSet
EndChar

StartChar: uni0410
Encoding: 1040 1040 392
Width: 1354
GlyphClass: 2
Flags: W
LayerCount: 2
Fore
SplineSet
520 649 m 1,0,-1
 870 649 l 1,1,-1
 698 1181 l 1,2,-1
 520 649 l 1,0,-1
1099 15 m 1,3,-1
 943 444 l 1,4,-1
 446 444 l 1,5,-1
 291 15 l 1,6,-1
 33 15 l 1,7,-1
 579 1440 l 1,8,-1
 813 1440 l 1,9,-1
 1359 15 l 1,10,-1
 1099 15 l 1,3,-1
EndSplineSet
EndChar

StartChar: uni0411
Encoding: 1041 1041 393
Width: 1321
GlyphClass: 2
Flags: W
LayerCount: 2
Fore
SplineSet
708 232 m 2,0,1
 1028 232 1028 232 1028 447 c 128,-1,2
 1028 662 1028 662 707 662 c 2,3,-1
 433 662 l 1,4,-1
 433 232 l 1,5,-1
 708 232 l 2,0,1
182 1440 m 1,6,-1
 1193 1440 l 1,7,-1
 1193 1222 l 1,8,-1
 434 1222 l 1,9,-1
 433 880 l 1,10,-1
 688 880 l 2,11,12
 1004 880 1004 880 1158 734 c 0,13,14
 1272 627 1272 627 1271 448 c 0,15,16
 1270 185 1270 185 1030 78 c 0,17,18
 888 15 888 15 689 15 c 2,19,-1
 182 15 l 1,20,-1
 182 1440 l 1,6,-1
EndSplineSet
EndChar

StartChar: uni0412
Encoding: 1042 1042 394
Width: 1321
GlyphClass: 2
Flags: W
LayerCount: 2
Fore
SplineSet
690 235 m 2,0,1
 1029 235 1029 235 1029 440 c 128,-1,2
 1029 645 1029 645 690 645 c 2,3,-1
 434 645 l 1,4,-1
 434 235 l 1,5,-1
 690 235 l 2,0,1
434 1224 m 1,6,-1
 434 863 l 1,7,-1
 690 864 l 1,8,9
 1014 864 1014 864 1014 1046 c 0,10,11
 1014 1136 1014 1136 925 1180 c 128,-1,12
 836 1224 836 1224 683 1224 c 2,13,-1
 434 1224 l 1,6,-1
182 15 m 1,14,-1
 182 1442 l 1,15,-1
 662 1442 l 2,16,17
 1113 1442 1113 1442 1225 1203 c 0,18,19
 1257 1135 1257 1135 1257 1041 c 0,20,21
 1257 868 1257 868 1077 752 c 1,22,23
 1271 636 1271 636 1271 435 c 0,24,25
 1271 120 1271 120 903 38 c 0,26,27
 797 14 797 14 669 15 c 2,28,-1
 182 15 l 1,14,-1
EndSplineSet
EndChar

StartChar: uni0413
Encoding: 1043 1043 395
Width: 1582
GlyphClass: 2
Flags: W
LayerCount: 2
Fore
SplineSet
1132 1230 m 1,0,-1
 440 1230 l 1,1,-1
 440 15 l 1,2,-1
 188 15 l 1,3,-1
 188 1440 l 1,4,-1
 1132 1440 l 1,5,-1
 1132 1230 l 1,0,-1
EndSplineSet
EndChar

StartChar: uni0414
Encoding: 1044 1044 396
Width: 1553
GlyphClass: 2
Flags: W
LayerCount: 2
Fore
SplineSet
607 231 m 1,0,-1
 594 215 l 1,1,-1
 1051 215 l 1,2,-1
 1051 1216 l 1,3,-1
 898 1216 l 1,4,-1
 738 578 l 1,5,6
 687 401 687 401 607 231 c 1,0,-1
102 215 m 1,7,-1
 161 215 l 2,8,9
 339 215 339 215 415 353 c 0,10,11
 456 426 456 426 487 550 c 2,12,-1
 713 1430 l 1,13,-1
 1310 1430 l 1,14,-1
 1310 215 l 1,15,-1
 1397 215 l 1,16,-1
 1397 -177 l 1,17,-1
 1145 -177 l 1,18,-1
 1145 5 l 1,19,-1
 352 5 l 1,20,-1
 352 -177 l 1,21,-1
 102 -177 l 1,22,-1
 102 215 l 1,7,-1
EndSplineSet
EndChar

StartChar: uni0415
Encoding: 1045 1045 397
Width: 1268
GlyphClass: 2
Flags: W
LayerCount: 2
Fore
SplineSet
1081 869 m 1,0,-1
 1081 651 l 1,1,-1
 463 651 l 1,2,-1
 463 233 l 1,3,-1
 1157 233 l 1,4,-1
 1139 15 l 1,5,-1
 182 15 l 1,6,-1
 182 1440 l 1,7,-1
 1127 1440 l 1,8,-1
 1109 1222 l 1,9,-1
 463 1222 l 1,10,-1
 463 869 l 1,11,-1
 1081 869 l 1,0,-1
EndSplineSet
EndChar

StartChar: afii10024
Encoding: 1046 1046 398
Width: 1339
GlyphClass: 2
Flags: W
LayerCount: 2
Fore
SplineSet
52 1440 m 1,0,-1
 354 1440 l 1,1,2
 355 1439 355 1439 355.5 1438 c 128,-1,3
 356 1437 356 1437 357 1436 c 2,4,-1
 789 917 l 1,5,-1
 789 1440 l 1,6,-1
 1029 1440 l 1,7,-1
 1029 905 l 1,8,-1
 1330 1440 l 1,9,-1
 1612 1440 l 1,10,-1
 1137 742 l 1,11,-1
 1649 15 l 1,12,-1
 1365 15 l 1,13,-1
 1029 550 l 1,14,-1
 1029 15 l 1,15,-1
 789 15 l 1,16,-1
 789 546 l 1,17,-1
 300 15 l 1,18,-1
 16 15 l 1,19,-1
 634 742 l 1,20,-1
 52 1440 l 1,0,-1
EndSplineSet
EndChar

StartChar: afii10025
Encoding: 1047 1047 399
Width: 1260
GlyphClass: 2
Flags: W
LayerCount: 2
Fore
SplineSet
629 1243 m 0,0,1
 413 1243 413 1243 285 1141 c 1,2,-1
 182 1335 l 1,3,4
 348 1480 348 1480 641 1480 c 0,5,6
 772 1480 772 1480 890 1433 c 128,-1,7
 1008 1386 1008 1386 1085 1294 c 128,-1,8
 1162 1202 1162 1202 1162 1069.5 c 128,-1,9
 1162 937 1162 937 1121.5 862.5 c 128,-1,10
 1081 788 1081 788 999 745 c 1,11,12
 1091 697 1091 697 1144 607 c 128,-1,13
 1197 517 1197 517 1197 416 c 0,14,15
 1197 210 1197 210 1057.5 96 c 128,-1,16
 918 -18 918 -18 639 -18 c 0,17,18
 485 -18 485 -18 346.5 22 c 128,-1,19
 208 62 208 62 141 137 c 1,20,21
 158 166 158 166 243 336 c 1,22,23
 432 211 432 211 629 211 c 0,24,25
 826 211 826 211 884 272 c 0,26,27
 943 333 943 333 943 429 c 0,28,29
 943 487 943 487 897 535.5 c 128,-1,30
 851 584 851 584 786 609 c 128,-1,31
 721 634 721 634 658 634 c 2,32,-1
 451 634 l 1,33,-1
 451 858 l 1,34,-1
 658 858 l 2,35,36
 892 858 892 858 892 1048 c 0,37,38
 892 1122 892 1122 818.5 1182.5 c 128,-1,39
 745 1243 745 1243 629 1243 c 0,0,1
EndSplineSet
EndChar

StartChar: afii10026
Encoding: 1048 1048 400
Width: 1569
GlyphClass: 2
Flags: W
LayerCount: 2
Fore
SplineSet
404 364 m 1,0,-1
 417 351 l 1,1,-1
 417 337 l 1,2,-1
 436 369 l 2,3,4
 437 370 437 370 447 388 c 1,5,6
 900 987 900 987 1152 1317 c 1,7,-1
 1152 1440 l 1,8,-1
 1388 1440 l 1,9,-1
 1387 15 l 1,10,-1
 1152 15 l 1,11,-1
 1152 1008 l 1,12,-1
 430 15 l 1,13,-1
 182 15 l 1,14,-1
 182 1440 l 1,15,-1
 417 1440 l 1,16,-1
 417 381 l 1,17,18
 405 367 405 367 404 364 c 1,0,-1
437 375 m 1,19,-1
 436 374 l 1,20,21
 436 372 436 372 435 372 c 2,22,-1
 419 384 l 1,23,-1
 421 387 l 1,24,-1
 437 375 l 1,19,-1
EndSplineSet
EndChar

StartChar: afii10027
Encoding: 1049 1049 401
Width: 1569
GlyphClass: 2
Flags: W
LayerCount: 2
Fore
SplineSet
404 364 m 1,0,-1
 417 351 l 1,1,-1
 417 337 l 1,2,-1
 436 369 l 2,3,4
 437 370 437 370 447 388 c 1,5,6
 900 987 900 987 1152 1317 c 1,7,-1
 1152 1440 l 1,8,-1
 1388 1440 l 1,9,-1
 1387 15 l 1,10,-1
 1152 15 l 1,11,-1
 1152 1008 l 1,12,-1
 430 15 l 1,13,-1
 182 15 l 1,14,-1
 182 1440 l 1,15,-1
 417 1440 l 1,16,-1
 417 381 l 1,17,18
 405 367 405 367 404 364 c 1,0,-1
785 1758 m 128,-1,20
 894 1758 894 1758 894 1812 c 2,21,-1
 894 1839 l 1,22,-1
 1066 1839 l 1,23,-1
 1066 1810 l 2,24,25
 1066 1707 1066 1707 985 1648.5 c 128,-1,26
 904 1590 904 1590 785.5 1590 c 128,-1,27
 667 1590 667 1590 586 1649 c 128,-1,28
 505 1708 505 1708 505 1810 c 2,29,-1
 505 1839 l 1,30,-1
 676 1839 l 1,31,-1
 676 1812 l 2,32,19
 676 1758 676 1758 785 1758 c 128,-1,20
437 375 m 1,33,-1
 436 374 l 1,34,35
 436 372 436 372 435 372 c 2,36,-1
 419 384 l 1,37,-1
 421 387 l 1,38,-1
 437 375 l 1,33,-1
EndSplineSet
EndChar

StartChar: afii10028
Encoding: 1050 1050 402
Width: 1313
GlyphClass: 2
Flags: W
LayerCount: 2
Fore
SplineSet
433 804 m 1,0,-1
 451 824 l 1,1,2
 900 1337 900 1337 989 1440 c 1,3,-1
 1303 1440 l 1,4,-1
 687 773 l 1,5,-1
 1376 15 l 1,6,-1
 1056 15 l 1,7,-1
 509 676 l 1,8,-1
 433 607 l 1,9,-1
 433 15 l 1,10,-1
 182 15 l 1,11,-1
 182 1440 l 1,12,-1
 433 1439 l 1,13,-1
 433 804 l 1,0,-1
EndSplineSet
EndChar

StartChar: uni041B
Encoding: 1051 1051 403
Width: 1427
GlyphClass: 2
Flags: W
LayerCount: 2
Fore
SplineSet
1232 1430 m 1,0,-1
 1232 5 l 1,1,-1
 980 5 l 1,2,-1
 980 1250 l 1,3,-1
 456 1251 l 1,4,-1
 456 447 l 2,5,6
 456 320 456 320 434 235.5 c 0,7,8
 412 150 412 150 358 92 c 0,9,10
 256 -18 256 -18 -14 -18 c 2,11,-1
 -74 -18 l 1,12,-1
 -74 223 l 1,13,-1
 6 224 l 2,14,15
 117 226 117 226 150 273 c 0,16,17
 182 320 182 320 182 439 c 2,18,-1
 182 1430 l 1,19,-1
 1232 1430 l 1,0,-1
EndSplineSet
EndChar

StartChar: uni041C
Encoding: 1052 1052 404
Width: 1814
GlyphClass: 2
Flags: W
LayerCount: 2
Fore
SplineSet
1391 15 m 1,0,-1
 1391 1016 l 1,1,-1
 1018 176 l 1,2,-1
 803 176 l 1,3,-1
 422 1025 l 1,4,-1
 422 15 l 1,5,-1
 182 15 l 1,6,-1
 182 1440 l 1,7,-1
 450 1440 l 1,8,-1
 913 417 l 1,9,-1
 1371 1440 l 1,10,-1
 1633 1440 l 1,11,-1
 1633 15 l 1,12,-1
 1391 15 l 1,0,-1
EndSplineSet
EndChar

StartChar: uni041D
Encoding: 1053 1053 405
Width: 1562
GlyphClass: 2
Flags: W
LayerCount: 2
Fore
SplineSet
1098 1447 m 1,0,-1
 1376 1447 l 1,1,-1
 1376 15 l 1,2,-1
 1098 15 l 1,3,-1
 1098 645 l 1,4,-1
 462 645 l 1,5,-1
 462 15 l 1,6,-1
 184 15 l 1,7,-1
 184 1447 l 1,8,-1
 462 1447 l 1,9,-1
 462 855 l 1,10,-1
 1098 855 l 1,11,-1
 1098 1447 l 1,0,-1
EndSplineSet
EndChar

StartChar: uni041E
Encoding: 1054 1054 406
Width: 1662
GlyphClass: 2
Flags: W
LayerCount: 2
Fore
SplineSet
200.5 345 m 128,-1,1
 106 516 106 516 106 728.5 c 128,-1,2
 106 941 106 941 200.5 1113 c 128,-1,3
 295 1285 295 1285 460.5 1381.5 c 128,-1,4
 626 1478 626 1478 831 1478 c 128,-1,5
 1036 1478 1036 1478 1202 1381.5 c 128,-1,6
 1368 1285 1368 1285 1462.5 1113 c 128,-1,7
 1557 941 1557 941 1557 755 c 128,-1,8
 1557 569 1557 569 1501.5 430 c 128,-1,9
 1446 291 1446 291 1349.5 193 c 128,-1,10
 1253 95 1253 95 1118.5 38.5 c 128,-1,11
 984 -18 984 -18 805.5 -18 c 128,-1,12
 627 -18 627 -18 461 78 c 128,-1,0
 295 174 295 174 200.5 345 c 128,-1,1
1270 722 m 128,-1,14
 1270 823 1270 823 1241.5 917 c 128,-1,15
 1213 1011 1213 1011 1160 1086.5 c 128,-1,16
 1107 1162 1107 1162 1021.5 1207.5 c 128,-1,17
 936 1253 936 1253 831 1253 c 128,-1,18
 726 1253 726 1253 640.5 1207.5 c 128,-1,19
 555 1162 555 1162 502 1086 c 0,20,21
 393 931 393 931 393 722 c 0,22,23
 392 426 392 426 590 282 c 0,24,25
 692 208 692 208 814 207.5 c 128,-1,26
 936 207 936 207 1021 250 c 128,-1,27
 1106 293 1106 293 1159.5 365.5 c 128,-1,28
 1213 438 1213 438 1241.5 529.5 c 128,-1,13
 1270 621 1270 621 1270 722 c 128,-1,14
EndSplineSet
EndChar

StartChar: uni041F
Encoding: 1055 1055 407
Width: 1556
GlyphClass: 2
Flags: W
LayerCount: 2
Fore
SplineSet
1123 1230 m 1,0,-1
 433 1230 l 1,1,-1
 433 15 l 1,2,-1
 182 15 l 1,3,-1
 182 1440 l 1,4,-1
 1374 1440 l 1,5,-1
 1374 15 l 1,6,-1
 1123 15 l 1,7,-1
 1123 1230 l 1,0,-1
EndSplineSet
EndChar

StartChar: uni0420
Encoding: 1056 1056 408
Width: 1320
GlyphClass: 2
Flags: W
LayerCount: 2
Fore
SplineSet
703 775 m 2,0,1
 852 775 852 775 940 835 c 128,-1,2
 1028 895 1028 895 1028 1003 c 0,3,4
 1028 1222 1028 1222 678 1222 c 2,5,-1
 432 1222 l 1,6,-1
 433 775 l 1,7,-1
 703 775 l 2,0,1
432 563 m 1,8,-1
 432 15 l 1,9,-1
 182 15 l 1,10,-1
 182 1440 l 1,11,-1
 657 1440 l 2,12,13
 1128 1440 1128 1440 1240 1171 c 0,14,15
 1270 1098 1270 1098 1271 1006 c 0,16,17
 1270 864 1270 864 1192 762 c 0,18,19
 1039 563 1039 563 684 563 c 2,20,-1
 432 563 l 1,8,-1
EndSplineSet
EndChar

StartChar: uni0421
Encoding: 1057 1057 409
Width: 1417
GlyphClass: 2
Flags: W
LayerCount: 2
Fore
SplineSet
1211 329 m 1,0,-1
 1298 115 l 1,1,2
 1054 -18 1054 -18 824 -18 c 0,3,4
 681 -18 681 -18 550.5 36 c 128,-1,5
 420 90 420 90 321.5 186.5 c 128,-1,6
 223 283 223 283 164.5 425 c 128,-1,7
 106 567 106 567 106 734 c 128,-1,8
 106 901 106 901 166.5 1043 c 128,-1,9
 227 1185 227 1185 327.5 1279 c 128,-1,10
 428 1373 428 1373 559 1425.5 c 128,-1,11
 690 1478 690 1478 831 1478 c 0,12,13
 1072 1478 1072 1478 1300 1338 c 1,14,-1
 1212 1122 l 1,15,16
 1026 1253 1026 1253 844 1253 c 128,-1,17
 662 1253 662 1253 527.5 1110 c 128,-1,18
 393 967 393 967 393 727 c 0,19,20
 393 606 393 606 430 505 c 128,-1,21
 467 404 467 404 530 340 c 0,22,23
 659 208 659 208 842 207 c 1,24,25
 960 216 960 216 1211 329 c 1,0,-1
EndSplineSet
EndChar

StartChar: uni0422
Encoding: 1058 1058 410
Width: 1221
GlyphClass: 2
Flags: W
LayerCount: 2
Fore
SplineSet
761 1222 m 1,0,-1
 770 15 l 1,1,-1
 492 15 l 1,2,-1
 472 1222 l 1,3,-1
 45 1222 l 1,4,-1
 45 1440 l 1,5,-1
 1189 1440 l 1,6,-1
 1189 1222 l 1,7,-1
 761 1222 l 1,0,-1
EndSplineSet
EndChar

StartChar: afii10037
Encoding: 1059 1059 411
Width: 1285
GlyphClass: 2
Flags: W
LayerCount: 2
Fore
SplineSet
228 1470 m 1,0,-1
 629 529 l 1,1,-1
 1008 1470 l 1,2,-1
 1264 1470 l 1,3,-1
 755 340 l 1,4,-1
 755 196 l 2,5,6
 755 -231 755 -231 416 -344 c 0,7,8
 314 -378 314 -378 188 -378 c 2,9,-1
 171 -378 l 1,10,-1
 171 -186 l 1,11,-1
 188 -186 l 2,12,13
 340 -186 340 -186 419 -94 c 0,14,15
 499 -2 499 -2 499 236 c 1,16,-1
 500 338 l 1,17,-1
 -22 1470 l 1,18,-1
 228 1470 l 1,0,-1
EndSplineSet
EndChar

StartChar: uni0424
Encoding: 1060 1060 412
Width: 1814
GlyphClass: 2
Flags: W
LayerCount: 2
Fore
SplineSet
765 172 m 1,0,-1
 762 172 l 2,1,2
 568 172 568 172 410 247.5 c 128,-1,3
 252 323 252 323 162 457 c 128,-1,4
 72 591 72 591 72 754 c 128,-1,5
 72 917 72 917 162 1045.5 c 128,-1,6
 252 1174 252 1174 409.5 1246 c 128,-1,7
 567 1318 567 1318 762 1318 c 2,8,-1
 765 1318 l 1,9,-1
 765 1445 l 1,10,-1
 1053 1445 l 1,11,-1
 1053 1318 l 1,12,13
 1247 1318 1247 1318 1404.5 1246 c 128,-1,14
 1562 1174 1562 1174 1652 1045.5 c 128,-1,15
 1742 917 1742 917 1742 754 c 128,-1,16
 1742 591 1742 591 1652 457 c 128,-1,17
 1562 323 1562 323 1404.5 247.5 c 128,-1,18
 1247 172 1247 172 1053 172 c 1,19,-1
 1053 0 l 1,20,-1
 765 0 l 1,21,-1
 765 172 l 1,0,-1
765 1093 m 1,22,-1
 762 1093 l 2,23,24
 565 1093 565 1093 462 989 c 0,25,26
 359 885 359 885 359 747 c 0,27,28
 359 609 359 609 463 503 c 0,29,30
 567 397 567 397 762 397 c 2,31,-1
 765 397 l 1,32,-1
 765 1093 l 1,22,-1
1053 1093 m 1,33,-1
 1053 397 l 1,34,35
 1242 398 1242 398 1348.5 501.5 c 128,-1,36
 1455 605 1455 605 1455 745 c 0,37,38
 1455 885 1455 885 1351 989 c 0,39,40
 1247 1093 1247 1093 1053 1093 c 1,33,-1
EndSplineSet
EndChar

StartChar: uni0425
Encoding: 1061 1061 413
Width: 1313
GlyphClass: 2
Flags: W
LayerCount: 2
Fore
SplineSet
1361 15 m 1,0,-1
 1066 15 l 1,1,-1
 685 603 l 1,2,-1
 299 15 l 1,3,-1
 14 15 l 1,4,-1
 546 742 l 1,5,-1
 51 1440 l 1,6,-1
 342 1440 l 1,7,-1
 699 882 l 1,8,-1
 1074 1440 l 1,9,-1
 1353 1440 l 1,10,-1
 842 742 l 1,11,-1
 1361 15 l 1,0,-1
EndSplineSet
EndChar

StartChar: afii10040
Encoding: 1062 1062 414
Width: 1540
GlyphClass: 2
Flags: W
LayerCount: 2
Fore
SplineSet
1097 205 m 1,0,-1
 1097 1440 l 1,1,-1
 1317 1440 l 1,2,-1
 1317 89 l 1,3,-1
 1490 89 l 1,4,-1
 1490 -297 l 1,5,-1
 1314 -297 l 1,6,-1
 1314 15 l 1,7,-1
 162 15 l 1,8,-1
 162 1440 l 1,9,-1
 393 1440 l 1,10,-1
 393 205 l 1,11,-1
 1097 205 l 1,0,-1
EndSplineSet
EndChar

StartChar: afii10041
Encoding: 1063 1063 415
Width: 1976
GlyphClass: 2
Flags: W
LayerCount: 2
Fore
SplineSet
1097 794 m 1,0,-1
 1097 1440 l 1,1,-1
 1361 1440 l 1,2,-1
 1361 15 l 1,3,-1
 1097 15 l 1,4,-1
 1096 576 l 1,5,-1
 846 576 l 2,6,7
 554 576 554 576 429 622 c 0,8,9
 303 668 303 668 246 760 c 0,10,11
 188 852 188 852 188 1008 c 2,12,-1
 188 1440 l 1,13,-1
 429 1440 l 1,14,-1
 429 1009 l 2,15,16
 429 902 429 902 489 848 c 0,17,18
 549 794 549 794 798 794 c 2,19,-1
 1097 794 l 1,0,-1
EndSplineSet
EndChar

StartChar: uni0428
Encoding: 1064 1064 416
Width: 1924
GlyphClass: 2
Flags: W
LayerCount: 2
Fore
SplineSet
433 225 m 1,0,-1
 833 225 l 1,1,-1
 833 1440 l 1,2,-1
 1084 1440 l 1,3,-1
 1084 225 l 1,4,-1
 1492 225 l 1,5,-1
 1492 1440 l 1,6,-1
 1743 1440 l 1,7,-1
 1743 15 l 1,8,-1
 182 15 l 1,9,-1
 182 1440 l 1,10,-1
 433 1440 l 1,11,-1
 433 225 l 1,0,-1
EndSplineSet
EndChar

StartChar: afii10043
Encoding: 1065 1065 417
Width: 1924
GlyphClass: 2
Flags: W
LayerCount: 2
Fore
SplineSet
1720 -307 m 1,0,-1
 1720 5 l 1,1,-1
 182 5 l 1,2,-1
 182 1430 l 1,3,-1
 433 1430 l 1,4,-1
 433 215 l 1,5,-1
 833 215 l 1,6,-1
 833 1430 l 1,7,-1
 1084 1430 l 1,8,-1
 1084 215 l 1,9,-1
 1492 215 l 1,10,-1
 1492 1430 l 1,11,-1
 1743 1430 l 1,12,-1
 1743 171 l 1,13,-1
 1916 171 l 1,14,-1
 1916 -307 l 1,15,-1
 1720 -307 l 1,0,-1
EndSplineSet
EndChar

StartChar: uni042A
Encoding: 1066 1066 418
Width: 1558
GlyphClass: 2
Flags: W
LayerCount: 2
Fore
SplineSet
1157.5 301 m 128,-1,1
 1236 370 1236 370 1236 486.5 c 128,-1,2
 1236 603 1236 603 1148.5 672.5 c 128,-1,3
 1061 742 1061 742 920 742 c 2,4,-1
 623 742 l 1,5,-1
 623 232 l 1,6,-1
 932 232 l 2,7,0
 1079 232 1079 232 1157.5 301 c 128,-1,1
364 15 m 1,8,-1
 364 1222 l 1,9,-1
 45 1222 l 1,10,-1
 45 1440 l 1,11,-1
 623 1440 l 1,12,-1
 623 960 l 1,13,-1
 901 960 l 2,14,15
 1138 960 1138 960 1300 855 c 0,16,17
 1382 802 1382 802 1428.5 711.5 c 128,-1,18
 1475 621 1475 621 1475 502 c 0,19,20
 1475 255 1475 255 1337 135 c 128,-1,21
 1199 15 1199 15 912 15 c 2,22,-1
 364 15 l 1,8,-1
EndSplineSet
EndChar

StartChar: uni042B
Encoding: 1067 1067 419
Width: 1838
GlyphClass: 2
Flags: W
LayerCount: 2
Fore
SplineSet
1656 1440 m 1,0,-1
 1657 15 l 1,1,-1
 1406 15 l 1,2,-1
 1404 1440 l 1,3,-1
 1656 1440 l 1,0,-1
711 960 m 2,4,5
 1014 960 1014 960 1161 801 c 0,6,7
 1267 687 1267 687 1267 513.5 c 0,8,9
 1268 340 1268 340 1194 230 c 0,10,11
 1049 15 1049 15 709 15 c 2,12,-1
 182 15 l 1,13,-1
 182 1440 l 1,14,-1
 432 1440 l 1,15,-1
 432 960 l 1,16,-1
 711 960 l 2,4,5
941 301 m 128,-1,18
 1015 370 1015 370 1015 488 c 128,-1,19
 1015 606 1015 606 941 674 c 128,-1,20
 867 742 867 742 729 742 c 2,21,-1
 432 742 l 1,22,-1
 432 232 l 1,23,-1
 727 232 l 2,24,17
 867 232 867 232 941 301 c 128,-1,18
EndSplineSet
EndChar

StartChar: uni042C
Encoding: 1068 1068 420
Width: 1321
GlyphClass: 2
Flags: W
LayerCount: 2
Fore
SplineSet
432 742 m 1,0,-1
 432 232 l 1,1,-1
 735 232 l 2,2,3
 876 232 876 232 951.5 301 c 128,-1,4
 1027 370 1027 370 1027 488 c 128,-1,5
 1027 606 1027 606 951 674 c 128,-1,6
 875 742 875 742 734 742 c 2,7,-1
 432 742 l 1,0,-1
432 1440 m 1,8,-1
 432 960 l 1,9,-1
 716 960 l 2,10,11
 1056 960 1056 960 1198 747 c 0,12,13
 1270 639 1270 639 1270.5 487.5 c 0,14,15
 1270 336 1270 336 1198 228 c 0,16,17
 1055 15 1055 15 717 15 c 2,18,-1
 182 15 l 1,19,-1
 182 1440 l 1,20,-1
 432 1440 l 1,8,-1
EndSplineSet
EndChar

StartChar: afii10047
Encoding: 1069 1069 421
Width: 1412
GlyphClass: 2
Flags: W
LayerCount: 2
Fore
SplineSet
582 -18 m 0,0,1
 352 -18 352 -18 108 115 c 1,2,-1
 195 329 l 1,3,4
 382 207 382 207 557 207 c 0,5,6
 732 207 732 207 855.5 320 c 128,-1,7
 979 433 979 433 1007 641 c 1,8,-1
 339 641 l 1,9,-1
 339 859 l 1,10,-1
 1001 859 l 1,11,12
 962 1039 962 1039 841 1146 c 128,-1,13
 720 1253 720 1253 550 1253 c 0,14,15
 380 1253 380 1253 194 1122 c 1,16,-1
 106 1338 l 1,17,18
 334 1478 334 1478 575 1478 c 0,19,20
 716 1478 716 1478 846 1425.5 c 128,-1,21
 976 1373 976 1373 1076 1279 c 128,-1,22
 1176 1185 1176 1185 1235.5 1043 c 128,-1,23
 1295 901 1295 901 1295 734 c 0,24,25
 1295 567 1295 567 1237.5 425 c 128,-1,26
 1180 283 1180 283 1082.5 186.5 c 128,-1,27
 985 90 985 90 855 36 c 128,-1,28
 725 -18 725 -18 582 -18 c 0,0,1
EndSplineSet
EndChar

StartChar: uni042E
Encoding: 1070 1070 422
Width: 1526
GlyphClass: 2
Flags: W
LayerCount: 2
Fore
SplineSet
1019.5 1104.5 m 128,-1,1
 929 956 929 956 929 735 c 2,2,-1
 929 725 l 1,3,4
 931 502 931 502 1021.5 354.5 c 128,-1,5
 1112 207 1112 207 1306.5 207 c 128,-1,6
 1501 207 1501 207 1591.5 358 c 128,-1,7
 1682 509 1682 509 1682 733.5 c 128,-1,8
 1682 958 1682 958 1590.5 1105.5 c 128,-1,9
 1499 1253 1499 1253 1304.5 1253 c 128,-1,0
 1110 1253 1110 1253 1019.5 1104.5 c 128,-1,1
1295 -18 m 1,10,11
 1159 -18 1159 -18 1039 33.5 c 0,12,13
 919 86 919 86 839 176 c 0,14,15
 677 359 677 359 651 645 c 1,16,-1
 433 645 l 1,17,-1
 433 15 l 1,18,-1
 182 15 l 1,19,-1
 182 1440 l 1,20,-1
 433 1440 l 1,21,-1
 433 855 l 1,22,-1
 656 855 l 1,23,24
 690 1124 690 1124 855.5 1301 c 128,-1,25
 1021 1478 1021 1478 1306 1478 c 0,26,27
 1462 1478 1462 1478 1586 1419.5 c 0,28,29
 1710 1360 1710 1360 1788 1258 c 0,30,31
 1948 1048 1948 1048 1949 727 c 0,32,33
 1948 332 1948 332 1716 124 c 0,34,35
 1556 -18 1556 -18 1295 -18 c 1,10,11
EndSplineSet
EndChar

StartChar: uni042F
Encoding: 1071 1071 423
Width: 1447
GlyphClass: 2
Flags: W
LayerCount: 2
Fore
SplineSet
465 1006 m 0,0,1
 465 793 465 793 876 793 c 2,2,-1
 1173 793 l 1,3,-1
 1173 1223 l 1,4,-1
 876 1224 l 1,5,6
 465 1224 465 1224 465 1006 c 0,0,1
1173 15 m 1,7,-1
 1173 574 l 1,8,-1
 901 574 l 2,9,10
 855 574 855 574 783 578 c 1,11,-1
 384 14 l 1,12,-1
 119 16 l 1,13,-1
 468 643 l 1,14,15
 208 752 208 752 208 1011 c 0,16,17
 208 1336 208 1336 620 1416 c 0,18,19
 744 1440 744 1440 901 1440 c 2,20,-1
 1424 1440 l 1,21,-1
 1424 15 l 1,22,-1
 1173 15 l 1,7,-1
EndSplineSet
EndChar

StartChar: afii10066
Encoding: 1073 1073 425
Width: 1101
GlyphClass: 2
Flags: W
LayerCount: 2
Fore
SplineSet
101 1063 m 1,0,-1
 914 1063 l 1,1,-1
 914 855 l 1,2,-1
 353 855 l 1,3,-1
 353 725 l 1,4,-1
 629 725 l 2,5,6
 777 726 777 726 895 632 c 0,7,8
 951 588 951 588 985 518 c 128,-1,9
 1019 448 1019 448 1019 365 c 0,10,11
 1019 198 1019 198 915 99.5 c 128,-1,12
 811 1 811 1 642 1 c 2,13,-1
 101 1 l 1,14,-1
 101 1063 l 1,0,-1
619 529 m 2,15,-1
 354 529 l 1,16,-1
 354 201 l 1,17,-1
 619 201 l 2,18,19
 697 201 697 201 741 249 c 128,-1,20
 785 297 785 297 785 363 c 128,-1,21
 785 429 785 429 740 479 c 128,-1,22
 695 529 695 529 619 529 c 2,15,-1
EndSplineSet
EndChar

StartChar: uni0432
Encoding: 1074 1074 426
Width: 1171
GlyphClass: 2
Flags: W
LayerCount: 2
Fore
SplineSet
687 639 m 2,0,1
 811 639 811 639 811 741 c 0,2,3
 811 834 811 834 687 834 c 2,4,-1
 410 834 l 1,5,-1
 410 639 l 1,6,-1
 687 639 l 2,0,1
698 215 m 2,7,8
 841 215 841 215 841 324 c 0,9,10
 841 377 841 377 805 406.5 c 128,-1,11
 769 436 769 436 698 436 c 2,12,-1
 410 436 l 1,13,-1
 410 215 l 1,14,-1
 698 215 l 2,7,8
888 555 m 1,15,16
 978 543 978 543 1033 470 c 128,-1,17
 1088 397 1088 397 1088 313 c 0,18,19
 1088 147 1088 147 977.5 73 c 128,-1,20
 867 -1 867 -1 691 -1 c 2,21,-1
 127 -1 l 1,22,-1
 127 1063 l 1,23,-1
 663 1063 l 2,24,25
 844 1063 844 1063 952 991 c 128,-1,26
 1060 919 1060 919 1060 770 c 0,27,28
 1060 694 1060 694 1014 635 c 128,-1,29
 968 576 968 576 888 555 c 1,15,16
EndSplineSet
EndChar

StartChar: uni0433
Encoding: 1075 1075 427
Width: 907
GlyphClass: 2
Flags: W
LayerCount: 2
Fore
SplineSet
752 848 m 1,0,-1
 449 848 l 1,1,-1
 449 0 l 1,2,-1
 166 0 l 1,3,-1
 166 1063 l 1,4,-1
 752 1063 l 1,5,-1
 752 848 l 1,0,-1
EndSplineSet
EndChar

StartChar: uni0434
Encoding: 1076 1076 428
Width: 1217
GlyphClass: 2
Flags: W
LayerCount: 2
Fore
SplineSet
452 206 m 1,0,-1
 838 206 l 1,1,-1
 838 847 l 1,2,-1
 562 847 l 1,3,-1
 562 744 l 1,4,5
 508 310 508 310 452 206 c 1,0,-1
314 0 m 1,6,-1
 301 -362 l 1,7,-1
 54 -362 l 1,8,-1
 54 206 l 1,9,-1
 132 206 l 2,10,11
 184 206 184 206 231.5 353.5 c 128,-1,12
 279 501 279 501 279 699 c 2,13,-1
 279 1063 l 1,14,-1
 1121 1063 l 1,15,-1
 1121 206 l 1,16,-1
 1253 206 l 1,17,-1
 1253 -362 l 1,18,-1
 1014 -362 l 1,19,-1
 992 0 l 1,20,-1
 314 0 l 1,6,-1
EndSplineSet
EndChar

StartChar: afii10072
Encoding: 1078 1078 430
Width: 1557
GlyphClass: 2
Flags: W
LayerCount: 2
Fore
SplineSet
649 609 m 1,0,-1
 649 1063 l 1,1,-1
 912 1063 l 1,2,-1
 912 609 l 1,3,-1
 1191 1063 l 1,4,-1
 1514 1063 l 1,5,-1
 1137 532 l 1,6,-1
 1534 0 l 1,7,-1
 1225 0 l 1,8,-1
 912 453 l 1,9,-1
 912 0 l 1,10,-1
 649 0 l 1,11,-1
 649 453 l 1,12,-1
 336 0 l 1,13,-1
 27 0 l 1,14,-1
 424 532 l 1,15,-1
 47 1063 l 1,16,-1
 370 1063 l 1,17,-1
 649 609 l 1,0,-1
EndSplineSet
EndChar

StartChar: uni0437
Encoding: 1079 1079 431
Width: 995
GlyphClass: 2
Flags: W
LayerCount: 2
Fore
SplineSet
115 271 m 1,0,1
 251 186 251 186 470 186 c 128,-1,2
 689 186 689 186 689 320 c 0,3,4
 689 384 689 384 640 415.5 c 128,-1,5
 591 447 591 447 508 447 c 2,6,-1
 283 447 l 1,7,-1
 283 651 l 1,8,-1
 508 651 l 2,9,10
 660 651 660 651 660 760 c 0,11,12
 660 827 660 827 608.5 857.5 c 128,-1,13
 557 888 557 888 451 888 c 0,14,15
 225 888 225 888 117 823 c 1,16,-1
 68 1009 l 1,17,18
 215 1103 215 1103 471 1103 c 0,19,20
 647 1103 647 1103 770.5 1034 c 128,-1,21
 894 965 894 965 906 803 c 0,22,23
 907 793 907 793 907 784 c 0,24,25
 907 713 907 713 868 653 c 0,26,27
 824 585 824 585 749 561 c 1,28,29
 826 534 826 534 880 458 c 0,30,31
 932 386 932 386 933 304 c 0,32,33
 932 300 932 300 932 296 c 0,34,35
 927 120 927 120 799 50 c 128,-1,36
 671 -20 671 -20 479 -20 c 0,37,38
 222 -20 222 -20 76 86 c 1,39,-1
 115 271 l 1,0,1
EndSplineSet
EndChar

StartChar: uni0438
Encoding: 1080 1080 432
Width: 1189
GlyphClass: 2
Flags: W
LayerCount: 2
Fore
SplineSet
1088 0 m 1,0,-1
 830 0 l 1,1,-1
 830 592 l 1,2,-1
 345 0 l 1,3,-1
 101 0 l 1,4,-1
 101 1063 l 1,5,-1
 364 1063 l 1,6,-1
 364 382 l 1,7,-1
 830 949 l 1,8,-1
 830 1063 l 1,9,-1
 1088 1063 l 1,10,-1
 1088 0 l 1,0,-1
EndSplineSet
EndChar

StartChar: uni0439
Encoding: 1081 1081 433
Width: 1189
GlyphClass: 2
Flags: W
LayerCount: 2
Fore
SplineSet
620 1281 m 128,-1,1
 509 1281 509 1281 509 1227 c 2,2,-1
 509 1200 l 1,3,-1
 332 1200 l 1,4,-1
 332 1229 l 2,5,6
 332 1332 332 1332 415 1390.5 c 128,-1,7
 498 1449 498 1449 620 1449 c 128,-1,8
 742 1449 742 1449 826.5 1390 c 128,-1,9
 911 1331 911 1331 911 1229 c 2,10,-1
 911 1200 l 1,11,-1
 731 1200 l 1,12,-1
 731 1227 l 2,13,0
 731 1281 731 1281 620 1281 c 128,-1,1
1088 0 m 1,14,-1
 830 0 l 1,15,-1
 830 592 l 1,16,-1
 345 0 l 1,17,-1
 101 0 l 1,18,-1
 101 1063 l 1,19,-1
 364 1063 l 1,20,-1
 364 382 l 1,21,-1
 830 949 l 1,22,-1
 830 1063 l 1,23,-1
 1088 1063 l 1,24,-1
 1088 0 l 1,14,-1
EndSplineSet
EndChar

StartChar: uni043A
Encoding: 1082 1082 434
Width: 1190
GlyphClass: 2
Flags: W
LayerCount: 2
Fore
SplineSet
952 1073 m 0,0,1
 1015 1073 1015 1073 1087 1056 c 1,2,-1
 1087 835 l 1,3,4
 1003 851 1003 851 986.5 851 c 128,-1,5
 970 851 970 851 963 850 c 128,-1,6
 956 849 956 849 948.5 846 c 128,-1,7
 941 843 941 843 936 841.5 c 128,-1,8
 931 840 931 840 924 834 c 128,-1,9
 917 828 917 828 913.5 826 c 128,-1,10
 910 824 910 824 902 815.5 c 128,-1,11
 894 807 894 807 892 805 c 128,-1,12
 890 803 890 803 857 765 c 0,13,14
 824 727 824 727 685 596 c 1,15,-1
 608 519 l 1,16,-1
 1185 0 l 1,17,-1
 832 0 l 1,18,-1
 410 406 l 1,19,-1
 410 0 l 1,20,-1
 127 0 l 1,21,-1
 127 1063 l 1,22,-1
 410 1063 l 1,23,-1
 410 642 l 1,24,-1
 547 779 l 1,25,26
 662 902 662 902 729 975 c 0,27,28
 820 1073 820 1073 952 1073 c 0,0,1
EndSplineSet
EndChar

StartChar: uni043B
Encoding: 1083 1083 435
Width: 1283
GlyphClass: 2
Flags: W
LayerCount: 2
Fore
SplineSet
446 361 m 2,0,1
 446 66 446 66 159 -7 c 0,2,3
 73 -29 73 -29 -36 -29 c 1,4,-1
 -36 183 l 1,5,-1
 -9 187 l 1,6,7
 51 194 51 194 82.5 203.5 c 128,-1,8
 114 213 114 213 133.5 238.5 c 128,-1,9
 153 264 153 264 158 299 c 128,-1,10
 163 334 163 334 163 401 c 2,11,-1
 163 1063 l 1,12,-1
 1125 1063 l 1,13,-1
 1125 0 l 1,14,-1
 842 0 l 1,15,-1
 842 845 l 1,16,-1
 446 845 l 1,17,-1
 446 361 l 2,0,1
EndSplineSet
EndChar

StartChar: uni043C
Encoding: 1084 1084 436
Width: 1317
GlyphClass: 2
Flags: W
LayerCount: 2
Fore
SplineSet
711 324 m 1,0,-1
 605 324 l 1,1,-1
 364 668 l 1,2,-1
 364 0 l 1,3,-1
 101 0 l 1,4,-1
 101 1063 l 1,5,-1
 362 1063 l 1,6,-1
 659 628 l 1,7,-1
 957 1063 l 1,8,-1
 1216 1063 l 1,9,-1
 1216 0 l 1,10,-1
 958 0 l 1,11,-1
 958 669 l 1,12,-1
 711 324 l 1,0,-1
EndSplineSet
EndChar

StartChar: uni043D
Encoding: 1085 1085 437
Width: 1260
GlyphClass: 2
Flags: W
LayerCount: 2
Fore
SplineSet
127 1063 m 1,0,-1
 410 1063 l 1,1,-1
 410 680 l 1,2,-1
 847 680 l 1,3,-1
 847 1063 l 1,4,-1
 1130 1063 l 1,5,-1
 1130 0 l 1,6,-1
 847 0 l 1,7,-1
 847 468 l 1,8,-1
 410 468 l 1,9,-1
 410 0 l 1,10,-1
 127 0 l 1,11,-1
 127 1063 l 1,0,-1
EndSplineSet
EndChar

StartChar: uni043F
Encoding: 1087 1087 439
Width: 1260
GlyphClass: 2
Flags: W
LayerCount: 2
Fore
SplineSet
127 1063 m 1,0,-1
 1120 1063 l 1,1,-1
 1120 0 l 1,2,-1
 837 0 l 1,3,-1
 837 849 l 1,4,-1
 410 849 l 1,5,-1
 410 0 l 1,6,-1
 127 0 l 1,7,-1
 127 1063 l 1,0,-1
EndSplineSet
EndChar

StartChar: uni0442
Encoding: 1090 1090 442
Width: 895
GlyphClass: 2
Flags: W
LayerCount: 2
Fore
SplineSet
-1 1063 m 1,0,-1
 896 1063 l 1,1,-1
 896 872 l 1,2,-1
 593 872 l 1,3,-1
 593 0 l 1,4,-1
 310 0 l 1,5,-1
 310 872 l 1,6,-1
 -1 872 l 1,7,-1
 -1 1063 l 1,0,-1
EndSplineSet
EndChar

StartChar: uni0443
Encoding: 1091 1091 443
Width: 1079
GlyphClass: 2
Flags: W
LayerCount: 2
Fore
SplineSet
549 355 m 1,0,-1
 790 1063 l 1,1,-1
 1084 1063 l 1,2,-1
 647 -72 l 2,3,4
 569 -274 569 -274 469 -342 c 0,5,6
 369 -410 369 -410 194 -410 c 2,7,-1
 57 -410 l 1,8,-1
 30 -206 l 1,9,-1
 104 -206 l 2,10,11
 223 -206 223 -206 250 -201 c 0,12,13
 313 -190 313 -190 346 -136 c 128,-1,14
 379 -82 379 -82 412 34 c 1,15,-1
 -17 1063 l 1,16,-1
 268 1063 l 1,17,-1
 549 355 l 1,0,-1
EndSplineSet
EndChar

StartChar: uni0444
Encoding: 1092 1092 444
Width: 1490
GlyphClass: 2
Flags: W
LayerCount: 2
Fore
SplineSet
507 187 m 2,0,-1
 603 187 l 1,1,-1
 603 874 l 1,2,3
 526 874 l 2,4,5
 469 874 469 874 424 818 c 0,6,7
 335 708 335 708 335 521.5 c 128,-1,8
 335 335 335 335 409 239 c 0,9,10
 449 187 449 187 507 187 c 2,0,-1
965 875 m 2,11,-1
 886 875 l 1,12,-1
 886 187 l 1,13,-1
 983 187 l 2,14,15
 1042 188 1042 188 1082 240 c 0,16,17
 1156 337 1156 337 1156 523.5 c 128,-1,18
 1156 710 1156 710 1067 820 c 0,19,20
 1022 876 1022 876 965 875 c 2,11,-1
603 1238 m 1,21,-1
 886 1238 l 1,22,-1
 886 1063 l 1,23,-1
 966 1063 l 2,24,25
 1196 1064 1196 1064 1329 824 c 0,26,27
 1406 685 1406 685 1406 508 c 0,28,29
 1406 332 1406 332 1298 172 c 0,30,31
 1246 96 1246 96 1165.5 48 c 128,-1,32
 1085 0 1085 0 988 0 c 2,33,-1
 886 0 l 1,34,-1
 886 -182 l 1,35,-1
 603 -182 l 1,36,-1
 603 0 l 1,37,-1
 503 0 l 2,38,39
 406 0 406 0 324.5 48 c 128,-1,40
 243 96 243 96 191.5 173 c 128,-1,41
 140 250 140 250 112 342.5 c 128,-1,42
 84 435 84 435 84 529 c 128,-1,43
 84 623 84 623 115.5 717.5 c 128,-1,44
 147 812 147 812 202 889 c 128,-1,45
 257 966 257 966 342 1014.5 c 128,-1,46
 427 1063 427 1063 525 1063 c 2,47,-1
 603 1063 l 1,48,-1
 603 1238 l 1,21,-1
EndSplineSet
EndChar

StartChar: afii10088
Encoding: 1094 1094 446
Width: 1227
GlyphClass: 2
Flags: W
LayerCount: 2
Fore
SplineSet
784 215 m 1,0,-1
 784 1063 l 1,1,-1
 1067 1063 l 1,2,-1
 1067 96 l 1,3,-1
 1198 96 l 1,4,-1
 1198 -362 l 1,5,-1
 959 -362 l 1,6,-1
 937 0 l 1,7,-1
 101 0 l 1,8,-1
 101 1063 l 1,9,-1
 384 1063 l 1,10,-1
 384 215 l 1,11,-1
 784 215 l 1,0,-1
EndSplineSet
EndChar

StartChar: uni0447
Encoding: 1095 1095 447
Width: 1203
GlyphClass: 2
Flags: W
LayerCount: 2
Fore
SplineSet
343 850 m 2,0,1
 343 741 343 741 365 686 c 0,2,3
 410 572 410 572 551.5 572 c 128,-1,4
 693 572 693 572 756 622.5 c 128,-1,5
 819 673 819 673 819 710 c 2,6,-1
 819 1062 l 1,7,-1
 1102 1062 l 1,8,-1
 1102 0 l 1,9,-1
 819 0 l 1,10,-1
 819 455 l 1,11,12
 715 351 715 351 513 351 c 1,13,14
 280 354 280 354 170 469.5 c 128,-1,15
 60 585 60 585 60 791 c 2,16,-1
 60 1063 l 1,17,-1
 343 1063 l 1,18,-1
 343 850 l 2,0,1
EndSplineSet
EndChar

StartChar: uni0448
Encoding: 1096 1096 448
Width: 1513
GlyphClass: 2
Flags: W
LayerCount: 2
Fore
SplineSet
364 215 m 1,0,-1
 627 215 l 1,1,-1
 627 1063 l 1,2,-1
 890 1063 l 1,3,-1
 890 215 l 1,4,-1
 1154 215 l 1,5,-1
 1154 1063 l 1,6,-1
 1412 1063 l 1,7,-1
 1412 0 l 1,8,-1
 101 0 l 1,9,-1
 101 1063 l 1,10,-1
 364 1063 l 1,11,-1
 364 215 l 1,0,-1
EndSplineSet
EndChar

StartChar: afii10091
Encoding: 1097 1097 449
Width: 1579
GlyphClass: 2
Flags: W
LayerCount: 2
Fore
SplineSet
1281 0 m 1,0,-1
 101 0 l 1,1,-1
 101 1063 l 1,2,-1
 364 1063 l 1,3,-1
 364 215 l 1,4,-1
 627 215 l 1,5,-1
 627 1063 l 1,6,-1
 890 1063 l 1,7,-1
 890 215 l 1,8,-1
 1154 215 l 1,9,-1
 1154 1063 l 1,10,-1
 1412 1063 l 1,11,-1
 1412 96 l 1,12,-1
 1542 96 l 1,13,-1
 1542 -362 l 1,14,-1
 1303 -362 l 1,15,-1
 1281 0 l 1,0,-1
EndSplineSet
EndChar

StartChar: uni044A
Encoding: 1098 1098 450
Width: 1262
GlyphClass: 2
Flags: W
LayerCount: 2
Fore
SplineSet
739 490 m 2,0,-1
 515 490 l 1,1,-1
 515 222 l 1,2,-1
 739 222 l 2,3,4
 836 222 836 222 875.5 256.5 c 128,-1,5
 915 291 915 291 915 356 c 0,6,7
 915 490 915 490 739 490 c 2,0,-1
515 1061 m 1,8,-1
 515 691 l 1,9,-1
 737 691 l 2,10,11
 936 691 936 691 1043 605.5 c 128,-1,12
 1150 520 1150 520 1150 353.5 c 128,-1,13
 1150 187 1150 187 1042.5 101 c 128,-1,14
 935 15 935 15 761 15 c 2,15,-1
 263 15 l 1,16,-1
 263 854 l 1,17,-1
 -24 854 l 1,18,-1
 -24 1061 l 1,19,-1
 515 1061 l 1,8,-1
EndSplineSet
EndChar

StartChar: afii10093
Encoding: 1099 1099 451
Width: 1635
GlyphClass: 2
Flags: W
LayerCount: 2
Fore
SplineSet
485 483 m 1,0,-1
 485 222 l 1,1,-1
 729 222 l 2,2,3
 810 222 810 222 856 258.5 c 128,-1,4
 902 295 902 295 902 355.5 c 128,-1,5
 902 416 902 416 855 449.5 c 128,-1,6
 808 483 808 483 729 483 c 2,7,-1
 485 483 l 1,0,-1
484 691 m 1,8,-1
 741 691 l 2,9,10
 950 690 950 690 1071 544 c 0,11,12
 1135 466 1135 466 1147 358 c 1,13,14
 1147 194 1147 194 1036 104.5 c 128,-1,15
 925 15 925 15 751 15 c 2,16,-1
 233 15 l 1,17,-1
 233 1061 l 1,18,-1
 484 1061 l 1,19,-1
 484 691 l 1,8,-1
1504 1061 m 1,20,-1
 1529 15 l 1,21,-1
 1270 15 l 1,22,-1
 1245 1061 l 1,23,-1
 1504 1061 l 1,20,-1
EndSplineSet
EndChar

StartChar: uni044C
Encoding: 1100 1100 452
Width: 1233
GlyphClass: 2
Flags: W
LayerCount: 2
Fore
SplineSet
485 483 m 1,0,-1
 485 222 l 1,1,-1
 740 222 l 2,2,3
 823 222 823 222 870 258.5 c 128,-1,4
 917 295 917 295 917 355.5 c 128,-1,5
 917 416 917 416 869 449.5 c 128,-1,6
 821 483 821 483 740 483 c 2,7,-1
 485 483 l 1,0,-1
763 15 m 2,8,-1
 233 15 l 1,9,-1
 233 1061 l 1,10,-1
 484 1061 l 1,11,-1
 484 691 l 1,12,-1
 749 691 l 2,13,14
 899 691 899 691 1020 611 c 0,15,16
 1079 572 1079 572 1115 506 c 128,-1,17
 1151 440 1151 440 1151 358 c 0,18,19
 1151 194 1151 194 1043 104.5 c 128,-1,20
 935 15 935 15 763 15 c 2,8,-1
EndSplineSet
EndChar

StartChar: afii10095
Encoding: 1101 1101 453
Width: 1180
GlyphClass: 2
Flags: W
LayerCount: 2
Fore
SplineSet
203 318 m 1,0,1
 325 183 325 183 494 183 c 0,2,3
 602 183 602 183 683.5 253.5 c 128,-1,4
 765 324 765 324 786 459 c 1,5,-1
 348 459 l 1,6,-1
 348 627 l 1,7,-1
 785 627 l 1,8,9
 764 759 764 759 679.5 828.5 c 128,-1,10
 595 898 595 898 486 898 c 0,11,12
 314 898 314 898 203 762 c 1,13,-1
 76 936 l 1,14,15
 270 1099 270 1099 493.5 1099 c 0,16,17
 718 1100 718 1100 882 956 c 0,18,19
 960 888 960 888 1007.5 780 c 128,-1,20
 1055 672 1055 672 1055 554 c 0,21,22
 1055 233 1055 233 822 78 c 0,23,24
 677 -18 677 -18 499 -18 c 0,25,26
 269 -18 269 -18 74 146 c 1,27,-1
 203 318 l 1,0,1
EndSplineSet
EndChar

StartChar: uni044E
Encoding: 1102 1102 454
Width: 1568
GlyphClass: 2
Flags: W
LayerCount: 2
Fore
SplineSet
895 240 m 128,-1,1
 946 193 946 193 1019.5 193 c 0,2,3
 1094 192 1094 192 1144 240 c 0,4,5
 1236 327 1236 327 1236 533 c 0,6,7
 1236 691 1236 691 1182 789 c 128,-1,8
 1128 887 1128 887 1018.5 887 c 128,-1,9
 909 887 909 887 853.5 785 c 128,-1,10
 798 683 798 683 798 560 c 128,-1,11
 798 437 798 437 821 362 c 128,-1,0
 844 287 844 287 895 240 c 128,-1,1
1456 754 m 128,-1,13
 1485 653 1485 653 1485 537 c 128,-1,14
 1485 421 1485 421 1454 321.5 c 128,-1,15
 1423 222 1423 222 1365.5 146 c 128,-1,16
 1308 70 1308 70 1217.5 26 c 0,17,18
 1126 -18 1126 -18 1018 -18 c 0,19,20
 803 -18 803 -18 683 112 c 128,-1,21
 563 242 563 242 532 436 c 1,22,-1
 403 436 l 1,23,-1
 403 15 l 1,24,-1
 160 15 l 1,25,-1
 160 1061 l 1,26,-1
 403 1061 l 1,27,-1
 403 632 l 1,28,-1
 533 632 l 1,29,30
 563 834 563 834 686.5 966.5 c 128,-1,31
 810 1099 810 1099 1019 1099 c 0,32,33
 1133 1099 1133 1099 1223.5 1054.5 c 128,-1,34
 1314 1010 1314 1010 1370.5 932.5 c 128,-1,12
 1427 855 1427 855 1456 754 c 128,-1,13
EndSplineSet
EndChar

StartChar: uni044F
Encoding: 1103 1103 455
Width: 1139
GlyphClass: 2
Flags: W
LayerCount: 2
Fore
SplineSet
373 733 m 0,0,1
 381 621 381 621 518 621 c 2,2,-1
 755 621 l 1,3,-1
 755 851 l 1,4,-1
 518 851 l 2,5,6
 441 851 441 851 405 819 c 0,7,8
 373 790 373 790 373 744 c 0,9,10
 373 738 373 738 373 733 c 0,0,1
324 449 m 1,11,12
 224 487 224 487 162 560.5 c 128,-1,13
 100 634 100 634 100 739 c 0,14,15
 100 894 100 894 209 978.5 c 128,-1,16
 318 1063 318 1063 486 1063 c 2,17,-1
 1038 1063 l 1,18,-1
 1038 0 l 1,19,-1
 755 0 l 1,20,-1
 755 417 l 1,21,-1
 594 417 l 1,22,-1
 384 0 l 1,23,-1
 80 0 l 1,24,-1
 324 449 l 1,11,12
EndSplineSet
EndChar

StartChar: afii10101
Encoding: 1108 1108 459
Width: 1180
GlyphClass: 2
Flags: W
LayerCount: 2
Fore
SplineSet
842 637 m 1,0,-1
 234 637 l 1,1,-1
 234 449 l 1,2,-1
 842 449 l 1,3,-1
 842 637 l 1,0,-1
919 74 m 1,4,5
 777 -21 777 -21 606 -21 c 1,6,7
 366 -21 366 -21 214 123.5 c 128,-1,8
 62 268 62 268 62 567 c 128,-1,9
 62 866 62 866 285 1016 c 0,10,11
 413 1102 413 1102 595 1102 c 0,12,-1
 599 1102 l 0,13,14
 783 1101 783 1101 907 1008 c 1,15,-1
 862 819 l 1,16,17
 823 847 823 847 753.5 871 c 128,-1,18
 684 895 684 895 620 895 c 0,19,20
 494 895 494 895 414 807.5 c 128,-1,21
 334 720 334 720 334 539.5 c 128,-1,22
 334 359 334 359 411 272 c 128,-1,23
 488 185 488 185 621 185 c 128,-1,24
 754 185 754 185 866 264 c 1,25,-1
 919 74 l 1,4,5
EndSplineSet
EndChar

StartChar: afii10106
Encoding: 1113 1113 463
Width: 1743
GlyphClass: 2
Flags: W
LayerCount: 2
Fore
SplineSet
1311 691 m 2,0,1
 1530 690 1530 690 1632 568 c 0,2,3
 1686 504 1686 504 1686 412 c 0,4,5
 1686 383 1686 383 1682 359 c 1,6,-1
 1682 358 l 1,7,8
 1681 194 1681 194 1575 104.5 c 128,-1,9
 1469 15 1469 15 1304 15 c 2,10,-1
 866 15 l 1,11,-1
 866 852 l 1,12,-1
 405 852 l 1,13,-1
 405 15 l 1,14,-1
 162 15 l 1,15,-1
 162 1061 l 1,16,-1
 1109 1061 l 1,17,-1
 1109 691 l 1,18,-1
 1311 691 l 2,0,1
1109 483 m 1,19,-1
 1109 222 l 1,20,-1
 1282 222 l 2,21,22
 1360 222 1360 222 1404 259 c 128,-1,23
 1448 296 1448 296 1448 355.5 c 128,-1,24
 1448 415 1448 415 1403 449 c 128,-1,25
 1358 483 1358 483 1282 483 c 2,26,-1
 1109 483 l 1,19,-1
EndSplineSet
EndChar

StartChar: afii10107
Encoding: 1114 1114 464
Width: 1743
GlyphClass: 2
Flags: W
LayerCount: 2
Fore
SplineSet
1311 688 m 2,0,1
 1532 688 1532 688 1632 566 c 0,2,3
 1686 502 1686 502 1686 410 c 0,4,5
 1686 382 1686 382 1682 358 c 1,6,-1
 1682 357 l 1,7,8
 1681 193 1681 193 1575 104 c 128,-1,9
 1469 15 1469 15 1304 15 c 2,10,-1
 866 15 l 1,11,-1
 866 475 l 1,12,-1
 405 475 l 1,13,-1
 405 15 l 1,14,-1
 162 15 l 1,15,-1
 162 1061 l 1,16,-1
 405 1061 l 1,17,-1
 405 684 l 1,18,-1
 866 684 l 1,19,-1
 866 1061 l 1,20,-1
 1109 1061 l 1,21,-1
 1109 688 l 1,22,-1
 1311 688 l 2,0,1
1109 493 m 1,23,-1
 1109 222 l 1,24,-1
 1282 222 l 2,25,26
 1359 222 1359 222 1403.5 260.5 c 128,-1,27
 1448 299 1448 299 1448 360.5 c 128,-1,28
 1448 422 1448 422 1403 457.5 c 128,-1,29
 1358 493 1358 493 1282 493 c 2,30,-1
 1109 493 l 1,23,-1
EndSplineSet
EndChar

StartChar: afii10193
Encoding: 1119 1119 467
Width: 1176
GlyphClass: 2
Flags: W
LayerCount: 2
Fore
SplineSet
463 0 m 1,0,-1
 101 0 l 1,1,-1
 101 1063 l 1,2,-1
 384 1063 l 1,3,-1
 384 215 l 1,4,-1
 792 215 l 1,5,-1
 792 1063 l 1,6,-1
 1075 1063 l 1,7,-1
 1075 0 l 1,8,-1
 731 0 l 1,9,-1
 716 -362 l 1,10,-1
 477 -362 l 1,11,-1
 463 0 l 1,0,-1
EndSplineSet
EndChar

StartChar: endash
Encoding: 8211 8211 468
Width: 1220
GlyphClass: 2
Flags: W
LayerCount: 2
Fore
SplineSet
1150 636 m 1,0,-1
 1150 439 l 1,1,-1
 70 439 l 1,2,-1
 70 636 l 1,3,-1
 1150 636 l 1,0,-1
EndSplineSet
EndChar

StartChar: emdash
Encoding: 8212 8212 469
Width: 1994
GlyphClass: 2
Flags: W
LayerCount: 2
Fore
SplineSet
1990 636 m 1,0,-1
 1990 439 l 1,1,-1
 -7 439 l 1,2,-1
 -7 636 l 1,3,-1
 1990 636 l 1,0,-1
EndSplineSet
EndChar

StartChar: quoteleft
Encoding: 8216 8216 470
Width: 420
GlyphClass: 2
Flags: W
LayerCount: 2
Fore
SplineSet
386 983 m 1,0,-1
 201 983 l 1,1,-1
 35 1483 l 1,2,-1
 272 1483 l 1,3,-1
 386 983 l 1,0,-1
EndSplineSet
EndChar

StartChar: quoteright
Encoding: 8217 8217 471
Width: 421
GlyphClass: 2
Flags: W
LayerCount: 2
Fore
SplineSet
220 983 m 1,0,-1
 36 983 l 1,1,-1
 149 1483 l 1,2,-1
 387 1483 l 1,3,-1
 220 983 l 1,0,-1
EndSplineSet
EndChar

StartChar: quotesinglbase
Encoding: 8218 8218 472
Width: 575
GlyphClass: 2
Flags: W
LayerCount: 2
Fore
SplineSet
113 -288 m 1,0,-1
 226 211 l 1,1,-1
 465 211 l 1,2,-1
 298 -288 l 1,3,-1
 113 -288 l 1,0,-1
EndSplineSet
EndChar

StartChar: quotedblleft
Encoding: 8220 8220 473
Width: 714
GlyphClass: 2
Flags: W
LayerCount: 2
Fore
SplineSet
202 983 m 1,0,-1
 35 1483 l 1,1,-1
 274 1483 l 1,2,-1
 376 983 l 1,3,-1
 202 983 l 1,0,-1
493 983 m 1,4,-1
 341 1483 l 1,5,-1
 568 1483 l 1,6,-1
 680 983 l 1,7,-1
 493 983 l 1,4,-1
EndSplineSet
EndChar

StartChar: quotedblright
Encoding: 8221 8221 474
Width: 1005
GlyphClass: 2
Flags: W
LayerCount: 2
Fore
SplineSet
495 983 m 1,0,-1
 597 1483 l 1,1,-1
 835 1483 l 1,2,-1
 668 983 l 1,3,-1
 495 983 l 1,0,-1
190 983 m 1,4,-1
 303 1483 l 1,5,-1
 530 1483 l 1,6,-1
 378 983 l 1,7,-1
 190 983 l 1,4,-1
EndSplineSet
EndChar

StartChar: quotedblbase
Encoding: 8222 8222 475
Width: 1044
GlyphClass: 2
Flags: W
LayerCount: 2
Fore
SplineSet
518 -288 m 1,0,-1
 641 211 l 1,1,-1
 879 211 l 1,2,-1
 713 -288 l 1,3,-1
 518 -288 l 1,0,-1
164 -288 m 1,4,-1
 277 211 l 1,5,-1
 524 211 l 1,6,-1
 349 -288 l 1,7,-1
 164 -288 l 1,4,-1
EndSplineSet
EndChar

StartChar: dagger
Encoding: 8224 8224 476
Width: 992
GlyphClass: 2
Flags: W
LayerCount: 2
Fore
SplineSet
377 113 m 1,0,-1
 377 909 l 1,1,-1
 64 909 l 1,2,-1
 64 1101 l 1,3,-1
 377 1101 l 1,4,-1
 377 1461 l 1,5,-1
 597 1461 l 1,6,-1
 597 1101 l 1,7,-1
 928 1101 l 1,8,-1
 928 909 l 1,9,-1
 584 909 l 1,10,-1
 584 113 l 1,11,-1
 377 113 l 1,0,-1
EndSplineSet
EndChar

StartChar: daggerdbl
Encoding: 8225 8225 477
Width: 994
GlyphClass: 2
Flags: W
LayerCount: 2
Fore
SplineSet
394 597 m 1,0,-1
 394 958 l 1,1,-1
 69 958 l 1,2,-1
 69 1150 l 1,3,-1
 397 1150 l 1,4,-1
 372 1461 l 1,5,-1
 601 1461 l 1,6,-1
 601 1150 l 1,7,-1
 931 1150 l 1,8,-1
 931 958 l 1,9,-1
 594 958 l 1,10,-1
 594 597 l 1,11,-1
 924 597 l 1,12,-1
 924 410 l 1,13,-1
 596 410 l 1,14,-1
 622 113 l 1,15,-1
 370 113 l 1,16,-1
 392 410 l 1,17,-1
 64 410 l 1,18,-1
 64 597 l 1,19,-1
 394 597 l 1,0,-1
EndSplineSet
EndChar

StartChar: bullet
Encoding: 8226 8226 478
Width: 1038
GlyphClass: 2
Flags: W
LayerCount: 2
Fore
SplineSet
792.5 924 m 128,-1,1
 897 828 897 828 897 679.5 c 128,-1,2
 897 531 897 531 790 433 c 128,-1,3
 683 335 683 335 518.5 335 c 128,-1,4
 354 335 354 335 249.5 430.5 c 128,-1,5
 145 526 145 526 145 674 c 128,-1,6
 145 822 145 822 253 921 c 128,-1,7
 361 1020 361 1020 524.5 1020 c 128,-1,0
 688 1020 688 1020 792.5 924 c 128,-1,1
EndSplineSet
EndChar

StartChar: ellipsis
Encoding: 8230 8230 479
Width: 1587
GlyphClass: 2
Flags: W
LayerCount: 2
Fore
SplineSet
1172 209 m 1,0,-1
 1438 209 l 1,1,-1
 1438 -61 l 1,2,-1
 1172 -61 l 1,3,-1
 1172 209 l 1,0,-1
652 209 m 1,4,-1
 934 209 l 1,5,-1
 934 -61 l 1,6,-1
 652 -61 l 1,7,-1
 652 209 l 1,4,-1
147 209 m 1,8,-1
 413 209 l 1,9,-1
 413 -61 l 1,10,-1
 147 -61 l 1,11,-1
 147 209 l 1,8,-1
EndSplineSet
EndChar

StartChar: perthousand
Encoding: 8240 8240 480
Width: 2305
GlyphClass: 2
Flags: W
LayerCount: 2
Fore
SplineSet
265 1114 m 1,0,-1
 265 1089 l 2,1,2
 265 996 265 996 300.5 942 c 128,-1,3
 336 888 336 888 406.5 888 c 128,-1,4
 477 888 477 888 512.5 942.5 c 128,-1,5
 548 997 548 997 548 1087.5 c 128,-1,6
 548 1178 548 1178 512 1231.5 c 128,-1,7
 476 1285 476 1285 408 1285 c 0,8,9
 276 1285 276 1285 265 1114 c 1,0,-1
2029 345 m 0,10,11
 2029 542 2029 542 1887 542 c 0,12,13
 1815 542 1815 542 1779 488.5 c 128,-1,14
 1743 435 1743 435 1743 345 c 0,15,16
 1743 146 1743 146 1888 146 c 0,17,18
 1958 146 1958 146 1993.5 200.5 c 128,-1,19
 2029 255 2029 255 2029 345 c 0,10,11
1007 346 m 2,20,-1
 1007 345 l 2,21,22
 1007 253 1007 253 1043 199.5 c 128,-1,23
 1079 146 1079 146 1150.5 146 c 128,-1,24
 1222 146 1222 146 1258 200 c 128,-1,25
 1294 254 1294 254 1294 344 c 0,26,27
 1294 542 1294 542 1151 542 c 0,28,29
 1080 542 1080 542 1043.5 488.5 c 128,-1,30
 1007 435 1007 435 1007 346 c 2,20,-1
1346 1452 m 1,31,-1
 425 -25 l 1,32,-1
 207 -25 l 1,33,-1
 1129 1452 l 1,34,-1
 1346 1452 l 1,31,-1
1639 613 m 128,-1,36
 1738 716 1738 716 1900.5 716 c 128,-1,37
 2063 716 2063 716 2147 634.5 c 128,-1,38
 2231 553 2231 553 2231 417 c 0,39,40
 2231 382 2231 382 2225 344 c 1,41,-1
 2225 343 l 2,42,43
 2225 180 2225 180 2132.5 76.5 c 128,-1,44
 2040 -27 2040 -27 1881.5 -27 c 128,-1,45
 1723 -27 1723 -27 1631.5 76.5 c 128,-1,46
 1540 180 1540 180 1540 345 c 128,-1,35
 1540 510 1540 510 1639 613 c 128,-1,36
750 1085 m 2,47,-1
 750 1084 l 2,48,49
 750 921 750 921 656 818 c 128,-1,50
 562 715 562 715 402.5 715 c 128,-1,51
 243 715 243 715 154 818 c 128,-1,52
 65 921 65 921 65 1086 c 128,-1,53
 65 1251 65 1251 156.5 1354.5 c 128,-1,54
 248 1458 248 1458 408.5 1458 c 128,-1,55
 569 1458 569 1458 659.5 1355.5 c 128,-1,56
 750 1253 750 1253 750 1085 c 2,47,-1
1403 614 m 0,57,58
 1495 512 1495 512 1495 347 c 0,59,60
 1495 179 1495 179 1401 76 c 0,61,62
 1308 -27 1308 -27 1147 -27 c 128,-1,63
 986 -27 986 -27 894.5 76.5 c 128,-1,64
 803 180 803 180 803 346 c 2,65,-1
 803 347 l 1,66,67
 799 375 799 375 799 408 c 0,68,69
 799 549 799 549 890.5 632.5 c 128,-1,70
 982 716 982 716 1146.5 716 c 128,-1,71
 1311 716 1311 716 1403 614 c 0,57,58
EndSplineSet
EndChar

StartChar: guilsinglleft
Encoding: 8249 8249 481
Width: 572
GlyphClass: 2
Flags: W
LayerCount: 2
Fore
SplineSet
315 924 m 1,0,-1
 538 924 l 1,1,-1
 267 546 l 1,2,-1
 531 171 l 1,3,-1
 309 171 l 1,4,-1
 33 546 l 1,5,-1
 315 924 l 1,0,-1
EndSplineSet
EndChar

StartChar: guilsinglright
Encoding: 8250 8250 482
Width: 573
GlyphClass: 2
Flags: W
LayerCount: 2
Fore
SplineSet
540 547 m 1,0,-1
 254 171 l 1,1,-1
 33 171 l 1,2,-1
 303 547 l 1,3,-1
 41 924 l 1,4,-1
 261 924 l 1,5,-1
 540 547 l 1,0,-1
EndSplineSet
EndChar

StartChar: fraction
Encoding: 8260 8260 483
Width: 1158
GlyphClass: 2
Flags: W
LayerCount: 2
Fore
SplineSet
912 1446 m 1,0,-1
 1124 1446 l 1,1,-1
 247 0 l 1,2,-1
 33 0 l 1,3,-1
 912 1446 l 1,0,-1
EndSplineSet
EndChar

StartChar: foursuperior
Encoding: 8308 8308 484
Width: 889
GlyphClass: 2
Flags: W
LayerCount: 2
Fore
SplineSet
318 1150 m 1,0,-1
 191 945 l 1,1,-1
 318 945 l 1,2,-1
 318 1150 l 1,0,-1
495 778 m 1,3,-1
 494 615 l 1,4,-1
 320 615 l 1,5,-1
 320 778 l 1,6,-1
 -28 778 l 1,7,-1
 -28 904 l 1,8,9
 175 1206 175 1206 322 1422 c 1,10,-1
 496 1422 l 1,11,-1
 496 945 l 1,12,-1
 597 945 l 1,13,-1
 612 778 l 1,14,-1
 495 778 l 1,3,-1
EndSplineSet
EndChar

StartChar: Euro
Encoding: 8364 8364 485
Width: 1184
GlyphClass: 2
Flags: W
LayerCount: 2
Fore
SplineSet
974 691 m 1,0,-1
 947 493 l 1,1,-1
 448 493 l 1,2,3
 477 345 477 345 549.5 266 c 128,-1,4
 622 187 622 187 766 187 c 0,5,6
 845 187 845 187 910 218 c 128,-1,7
 975 249 975 249 1044 307 c 1,8,-1
 1094 350 l 1,9,-1
 1093 91 l 1,10,11
 936 -19 936 -19 750 -19 c 0,12,13
 460 -19 460 -19 318 193 c 0,14,15
 235 316 235 316 207 493 c 1,16,-1
 70 493 l 1,17,-1
 98 691 l 1,18,-1
 188 691 l 1,19,-1
 188 759 l 1,20,-1
 67 759 l 1,21,-1
 96 957 l 1,22,-1
 212 957 l 1,23,24
 259 1171 259 1171 398 1314 c 0,25,26
 537 1458 537 1458 762 1458 c 128,-1,27
 987 1458 987 1458 1116 1320 c 1,28,-1
 1066 1040 l 1,29,-1
 1024 1105 l 1,30,31
 929 1254 929 1254 782 1254 c 0,32,33
 635 1254 635 1254 562 1169 c 0,34,35
 488 1084 488 1084 453 958 c 1,36,-1
 1006 958 l 1,37,-1
 978 760 l 1,38,-1
 425 760 l 1,39,-1
 425 715 l 1,40,-1
 426 701 l 1,41,-1
 426 691 l 1,42,-1
 974 691 l 1,0,-1
EndSplineSet
EndChar

StartChar: trademark
Encoding: 8482 8482 486
Width: 1792
GlyphClass: 2
Flags: W
LayerCount: 2
Fore
SplineSet
61 1461 m 1,0,-1
 719 1461 l 1,1,-1
 719 1300 l 1,2,-1
 487 1300 l 1,3,-1
 487 686 l 1,4,-1
 303 686 l 1,5,-1
 303 1300 l 1,6,-1
 62 1300 l 1,7,-1
 61 1461 l 1,0,-1
766 1461 m 1,8,-1
 1000 1461 l 1,9,-1
 1195 956 l 1,10,-1
 1398 1461 l 1,11,-1
 1614 1461 l 1,12,-1
 1614 686 l 1,13,-1
 1438 686 l 1,14,-1
 1438 1171 l 1,15,-1
 1241 686 l 1,16,-1
 1134 686 l 1,17,-1
 948 1163 l 1,18,-1
 948 686 l 1,19,-1
 766 686 l 1,20,-1
 766 1461 l 1,8,-1
EndSplineSet
EndChar

StartChar: partialdiff
Encoding: 8706 8706 487
Width: 1148
GlyphClass: 2
Flags: W
LayerCount: 2
Fore
SplineSet
828 663 m 1,0,1
 802 447 802 447 709 309 c 128,-1,2
 616 171 616 171 492 171 c 0,3,4
 393 171 393 171 344 243.5 c 128,-1,5
 295 316 295 316 295 429.5 c 128,-1,6
 295 543 295 543 329.5 634.5 c 128,-1,7
 364 726 364 726 435 785 c 128,-1,8
 506 844 506 844 596 844 c 128,-1,9
 686 844 686 844 743 794 c 128,-1,10
 800 744 800 744 828 663 c 1,0,1
743 28 m 1,11,12
 636 -44 636 -44 510 -44 c 0,13,14
 278 -44 278 -44 166.5 93.5 c 128,-1,15
 55 231 55 231 55 456 c 0,16,17
 54 680 54 680 188 862 c 0,18,19
 252 948 252 948 350.5 1001 c 128,-1,20
 449 1054 449 1054 567 1057 c 1,21,-1
 568 1058 l 1,22,-1
 578 1058 l 2,23,24
 718 1058 718 1058 823 969 c 1,25,26
 804 1329 804 1329 558 1329 c 0,27,28
 439 1329 439 1329 295 1218 c 1,29,-1
 258 1191 l 1,30,-1
 240 1447 l 1,31,-1
 264 1462 l 1,32,33
 401 1563 401 1563 580 1563 c 0,34,35
 694 1563 694 1563 784 1523 c 0,36,37
 1086 1388 1086 1388 1086 855 c 0,38,39
 1086 618 1086 618 1022.5 424.5 c 128,-1,40
 959 231 959 231 836 103 c 1,41,-1
 822 117 l 1,42,43
 941 241 941 241 1003.5 431 c 128,-1,44
 1066 621 1066 621 1066 854 c 0,45,46
 1066 1376 1066 1376 776 1505 c 0,47,48
 690 1543 690 1543 603 1543 c 128,-1,49
 516 1543 516 1543 453.5 1525.5 c 128,-1,50
 391 1508 391 1508 353.5 1489 c 128,-1,51
 316 1470 316 1470 260 1437 c 1,52,-1
 276 1229 l 1,53,54
 404 1322 404 1322 459.5 1335.5 c 128,-1,55
 515 1349 515 1349 566.5 1349 c 128,-1,56
 618 1349 618 1349 666 1328 c 0,57,58
 835 1254 835 1254 844 946 c 1,59,-1
 845 922 l 1,60,-1
 827 939 l 1,61,62
 725 1038 725 1038 578 1038 c 2,63,-1
 576 1038 l 1,64,-1
 575 1037 l 1,65,66
 460 1035 460 1035 364 985 c 0,67,68
 268 934 268 934 206 852 c 0,69,70
 76 680 76 680 75 439 c 0,71,72
 75 158 75 158 261 38 c 0,73,74
 356 -24 356 -24 487 -24 c 128,-1,75
 618 -24 618 -24 732 45 c 1,76,-1
 743 28 l 1,11,12
EndSplineSet
EndChar

StartChar: uni2206
Encoding: 8710 8710 488
Width: 1268
GlyphClass: 2
Flags: W
LayerCount: 2
Fore
SplineSet
1247 117 m 1,0,-1
 1247 -20 l 1,1,-1
 14 -20 l 1,2,-1
 14 116 l 1,3,-1
 515 1459 l 1,4,-1
 748 1459 l 1,5,-1
 1247 117 l 1,0,-1
600 1260 m 1,6,7
 597 1271 597 1271 584 1271 c 128,-1,8
 571 1271 571 1271 571 1256 c 128,-1,9
 571 1241 571 1241 577 1222 c 128,-1,10
 583 1203 583 1203 595.5 1170 c 128,-1,11
 608 1137 608 1137 614 1119 c 1,12,-1
 617 1120 l 1,13,-1
 626 1149 l 1,14,-1
 706 909 l 2,15,16
 726 850 726 850 766 739.5 c 128,-1,17
 806 629 806 629 820 588 c 1,18,-1
 816 586 l 1,19,-1
 902 332 l 1,20,21
 909 325 909 325 914 325 c 128,-1,22
 919 325 919 325 919 331 c 0,23,24
 919 377 919 377 775 782 c 128,-1,25
 631 1187 631 1187 600 1260 c 1,6,7
EndSplineSet
EndChar

StartChar: product
Encoding: 8719 8719 489
Width: 1523
GlyphClass: 2
Flags: W
LayerCount: 2
Fore
SplineSet
98 1433 m 1,0,-1
 1429 1433 l 1,1,-1
 1408 1232 l 1,2,3
 1408 1228 l 1,4,-1
 1302 1228 l 1,5,-1
 1302 -329 l 1,6,-1
 1068 -329 l 1,7,-1
 1068 1228 l 1,8,-1
 468 1228 l 1,9,-1
 468 -329 l 1,10,-1
 236 -329 l 1,11,-1
 236 1228 l 1,12,-1
 119 1228 l 1,13,-1
 98 1433 l 1,0,-1
EndSplineSet
EndChar

StartChar: summation
Encoding: 8721 8721 490
Width: 1226
GlyphClass: 2
Flags: W
LayerCount: 2
Fore
SplineSet
1192 -121 m 1,0,-1
 1192 -329 l 1,1,-1
 50 -329 l 1,2,-1
 50 -202 l 1,3,-1
 640 557 l 1,4,-1
 71 1301 l 1,5,-1
 71 1433 l 1,6,-1
 1149 1433 l 1,7,-1
 1149 1231 l 1,8,-1
 390 1231 l 1,9,-1
 895 565 l 1,10,-1
 362 -121 l 1,11,-1
 1192 -121 l 1,0,-1
EndSplineSet
EndChar

StartChar: minus
Encoding: 8722 8722 491
Width: 1422
GlyphClass: 2
Flags: W
LayerCount: 2
Fore
SplineSet
183 643 m 1,0,-1
 1227 643 l 1,1,-1
 1227 446 l 1,2,-1
 183 446 l 1,3,-1
 183 643 l 1,0,-1
EndSplineSet
EndChar

StartChar: radical
Encoding: 8730 8730 492
Width: 1276
GlyphClass: 2
Flags: W
LayerCount: 2
Fore
SplineSet
657 200 m 1,0,1
 741 560 741 560 855 1004 c 128,-1,2
 969 1448 969 1448 1008 1606 c 1,3,-1
 1197 1606 l 1,4,-1
 744 -152 l 1,5,-1
 580 -152 l 1,6,-1
 274 662 l 1,7,-1
 105 634 l 1,8,-1
 76 804 l 1,9,-1
 406 865 l 1,10,-1
 625 238 l 1,11,-1
 648 164 l 1,12,-1
 657 200 l 1,0,1
EndSplineSet
EndChar

StartChar: infinity
Encoding: 8734 8734 493
Width: 1621
GlyphClass: 2
Flags: W
LayerCount: 2
Fore
SplineSet
809 470 m 1,0,1
 684 298 684 298 568 256 c 0,2,3
 514 236 514 236 450 236 c 0,4,5
 290 236 290 236 188.5 345.5 c 128,-1,6
 87 455 87 455 87 607.5 c 128,-1,7
 87 760 87 760 193 857.5 c 128,-1,8
 299 955 299 955 445 955 c 2,9,-1
 452 955 l 1,10,-1
 475 953 l 2,11,12
 636 938 636 938 762 784 c 0,13,14
 784 758 784 758 809 722 c 1,15,16
 935 895 935 895 1050 935 c 0,17,18
 1105 954 1105 954 1169 954 c 0,19,20
 1330 954 1330 954 1429.5 856 c 128,-1,21
 1529 758 1529 758 1529 601 c 128,-1,22
 1529 444 1529 444 1426.5 340 c 128,-1,23
 1324 236 1324 236 1160 236 c 128,-1,24
 996 236 996 236 862 401 c 0,25,26
 838 430 838 430 809 470 c 1,0,1
712 595 m 1,27,28
 652 682 652 682 591 731 c 128,-1,29
 530 780 530 780 445 780 c 128,-1,30
 360 780 360 780 315 730 c 128,-1,31
 270 680 270 680 270 599.5 c 128,-1,32
 270 519 270 519 319.5 467.5 c 128,-1,33
 369 416 369 416 454.5 416 c 128,-1,34
 540 416 540 416 598.5 469 c 128,-1,35
 657 522 657 522 712 595 c 1,27,28
1336 624 m 1,36,37
 1331 696 1331 696 1287 738 c 128,-1,38
 1243 780 1243 780 1183 780 c 0,39,40
 1079 780 1079 780 1018 725.5 c 128,-1,41
 957 671 957 671 905 598 c 1,42,43
 991 484 991 484 1047.5 449.5 c 128,-1,44
 1104 415 1104 415 1169 415 c 0,45,46
 1334 415 1334 415 1334 620 c 2,47,-1
 1334 623 l 1,48,-1
 1336 624 l 1,36,37
EndSplineSet
EndChar

StartChar: integral
Encoding: 8747 8747 494
Width: 764
GlyphClass: 2
Flags: W
LayerCount: 2
Fore
SplineSet
112 -173 m 1,0,-1
 155 -191 l 2,1,2
 188 -204 188 -204 256 -204 c 128,-1,3
 324 -204 324 -204 348 -163.5 c 128,-1,4
 372 -123 372 -123 372 -22 c 2,5,-1
 372 1246 l 2,6,7
 372 1417 372 1417 455 1529 c 0,8,9
 538 1641 538 1641 732 1641 c 0,10,11
 776 1641 776 1641 867 1620 c 2,12,-1
 889 1615 l 1,13,-1
 893 1416 l 1,14,-1
 851 1434 l 1,15,16
 818 1447 818 1447 749.5 1447 c 128,-1,17
 681 1447 681 1447 656 1406.5 c 128,-1,18
 631 1366 631 1366 631 1265 c 2,19,-1
 631 -3 l 2,20,21
 631 -174 631 -174 550 -286 c 0,22,23
 469 -399 469 -399 274 -399 c 0,24,25
 216 -399 216 -399 137 -376 c 1,26,-1
 115 -370 l 1,27,-1
 112 -173 l 1,0,-1
EndSplineSet
EndChar

StartChar: approxequal
Encoding: 8776 8776 495
Width: 1315
GlyphClass: 2
Flags: W
LayerCount: 2
Fore
SplineSet
445 583 m 1,0,-1
 449 583 l 2,1,2
 546 584 546 584 643 538 c 0,3,4
 676 522 676 522 728.5 493.5 c 128,-1,5
 781 465 781 465 810.5 451 c 128,-1,6
 840 437 840 437 880.5 437 c 128,-1,7
 921 437 921 437 950 473.5 c 128,-1,8
 979 510 979 510 1005 583 c 1,9,-1
 1014 605 l 2,10,11
 1014 606 1014 606 1014.5 607 c 128,-1,12
 1015 608 1015 608 1015 609 c 2,13,-1
 1174 567 l 1,14,-1
 1168 539 l 2,15,16
 1141 415 1141 415 1067.5 337 c 128,-1,17
 994 259 994 259 876 259 c 0,18,19
 758 259 758 259 628 331 c 0,20,21
 499 403 499 403 444 403 c 128,-1,22
 389 403 389 403 358.5 372 c 128,-1,23
 328 341 328 341 311 284 c 2,24,-1
 303 256 l 1,25,-1
 138 295 l 1,26,-1
 146 322 l 1,27,28
 175 434 175 434 248.5 505 c 128,-1,29
 322 576 322 576 445 581 c 1,30,-1
 445 583 l 1,0,-1
771.5 810 m 128,-1,32
 824 788 824 788 872.5 788 c 128,-1,33
 921 788 921 788 950 818.5 c 128,-1,34
 979 849 979 849 1002 910 c 1,35,-1
 1011 936 l 1,36,-1
 1171 897 l 1,37,-1
 1165 870 l 2,38,39
 1140 756 1140 756 1066 683.5 c 128,-1,40
 992 611 992 611 872 611 c 0,41,42
 752 611 752 611 622 681 c 0,43,44
 492 751 492 751 440 751 c 128,-1,45
 388 751 388 751 358 714 c 128,-1,46
 328 677 328 677 312 608 c 1,47,-1
 305 580 l 1,48,-1
 137 621 l 1,49,-1
 143 648 l 2,50,51
 180 816 180 816 297 888 c 0,52,53
 362 928 362 928 436.5 928 c 128,-1,54
 511 928 511 928 573.5 906 c 128,-1,55
 636 884 636 884 677.5 858 c 128,-1,31
 719 832 719 832 771.5 810 c 128,-1,32
EndSplineSet
EndChar

StartChar: notequal
Encoding: 8800 8800 496
Width: 1321
GlyphClass: 2
Flags: W
LayerCount: 2
Fore
SplineSet
694 884 m 1,0,-1
 826 1134 l 1,1,-1
 994 1111 l 2,2,3
 995 1111 995 1111 997.5 1110.5 c 128,-1,4
 1000 1110 1000 1110 1001 1110 c 2,5,-1
 885 883 l 1,6,-1
 1158 883 l 1,7,-1
 1173 702 l 1,8,-1
 802 702 l 1,9,-1
 692 479 l 1,10,-1
 1159 479 l 1,11,-1
 1173 299 l 1,12,-1
 608 299 l 1,13,-1
 475 43 l 1,14,-1
 301 68 l 1,15,-1
 420 300 l 1,16,-1
 160 300 l 1,17,-1
 149 480 l 1,18,-1
 505 480 l 1,19,-1
 613 703 l 1,20,-1
 160 703 l 1,21,-1
 147 884 l 1,22,-1
 694 884 l 1,0,-1
EndSplineSet
EndChar

StartChar: lessequal
Encoding: 8804 8804 497
Width: 1322
GlyphClass: 2
Flags: W
LayerCount: 2
Fore
SplineSet
1136 192 m 1,0,-1
 1163 193 l 1,1,-1
 1163 10 l 1,2,-1
 149 10 l 1,3,-1
 149 192 l 1,4,-1
 1065 192 l 1,5,-1
 183 634 l 1,6,-1
 183 751 l 1,7,-1
 1136 1248 l 1,8,-1
 1136 1043 l 1,9,-1
 443 696 l 1,10,-1
 1136 365 l 1,11,-1
 1136 192 l 1,0,-1
EndSplineSet
EndChar

StartChar: greaterequal
Encoding: 8805 8805 498
Width: 1323
GlyphClass: 2
Flags: W
LayerCount: 2
Fore
SplineSet
876 694 m 1,0,-1
 182 1044 l 1,1,-1
 182 1250 l 1,2,-1
 1141 751 l 1,3,-1
 1141 635 l 1,4,-1
 245 191 l 1,5,-1
 1159 191 l 1,6,-1
 1159 9 l 1,7,-1
 149 9 l 1,8,-1
 149 191 l 1,9,-1
 178 191 l 1,10,-1
 178 367 l 1,11,-1
 876 694 l 1,0,-1
EndSplineSet
EndChar

StartChar: lozenge
Encoding: 9674 9674 499
Width: 1223
GlyphClass: 2
Flags: W
LayerCount: 2
Fore
SplineSet
680 1479 m 1,0,-1
 1124 716 l 1,1,-1
 671 -46 l 1,2,-1
 540 -46 l 1,3,-1
 98 715 l 1,4,-1
 548 1479 l 1,5,-1
 680 1479 l 1,0,-1
616 1268 m 1,6,7
 593 1224 593 1224 310 717 c 1,8,9
 362 617 362 617 462 432 c 128,-1,10
 562 247 562 247 606 164 c 1,11,-1
 912 716 l 1,12,13
 869 798 869 798 768.5 983.5 c 128,-1,14
 668 1169 668 1169 616 1268 c 1,6,7
EndSplineSet
EndChar

StartChar: fi
Encoding: 64257 64257 500
Width: 1199
GlyphClass: 2
Flags: W
LayerCount: 2
Fore
SplineSet
799 1478 m 1,0,-1
 1083 1478 l 1,1,-1
 1083 1246 l 1,2,-1
 799 1246 l 1,3,-1
 799 1478 l 1,0,-1
178 0 m 1,4,-1
 178 894 l 1,5,-1
 7 894 l 1,6,-1
 7 1063 l 1,7,-1
 178 1063 l 1,8,-1
 178 1096 l 2,9,10
 178 1285 178 1285 209 1364 c 128,-1,11
 240 1443 240 1443 280.5 1471 c 0,12,13
 321 1498 321 1498 380 1522 c 128,-1,14
 439 1546 439 1546 579 1546 c 2,15,-1
 644 1546 l 1,16,-1
 665 1336 l 1,17,-1
 605 1336 l 2,18,19
 515 1336 515 1336 488 1296.5 c 128,-1,20
 461 1257 461 1257 461 1152 c 2,21,-1
 461 1063 l 1,22,-1
 1082 1063 l 1,23,-1
 1082 0 l 1,24,-1
 799 0 l 1,25,-1
 799 894 l 1,26,-1
 461 894 l 1,27,-1
 461 0 l 1,28,-1
 178 0 l 1,4,-1
EndSplineSet
EndChar

StartChar: fl
Encoding: 64258 64258 501
Width: 1421
GlyphClass: 2
Flags: W
LayerCount: 2
Fore
SplineSet
1243 208 m 128,-1,1
 1276 198 1276 198 1326 198 c 128,-1,2
 1376 198 1376 198 1392 202 c 1,3,-1
 1404 1 l 1,4,5
 1350 -13 1350 -13 1256 -13 c 0,6,7
 1076 -13 1076 -13 979.5 78.5 c 128,-1,8
 883 170 883 170 883 455 c 2,9,-1
 883 1322 l 1,10,11
 776 1341 776 1341 689.5 1341 c 128,-1,12
 603 1341 603 1341 562.5 1330.5 c 128,-1,13
 522 1320 522 1320 500 1296 c 0,14,15
 462 1254 462 1254 461 1152 c 2,16,-1
 461 1063 l 1,17,-1
 687 1063 l 1,18,-1
 687 894 l 1,19,-1
 461 894 l 1,20,-1
 461 0 l 1,21,-1
 178 0 l 1,22,-1
 178 894 l 1,23,-1
 7 894 l 1,24,-1
 7 1063 l 1,25,-1
 178 1063 l 1,26,-1
 178 1118 l 2,27,28
 178 1337 178 1337 279.5 1443 c 128,-1,29
 381 1549 381 1549 603 1549 c 128,-1,30
 825 1549 825 1549 1079 1511 c 2,31,-1
 1166 1498 l 1,32,-1
 1166 415 l 2,33,34
 1166 292 1166 292 1188 255 c 128,-1,0
 1210 218 1210 218 1243 208 c 128,-1,1
EndSplineSet
EndChar

StartChar: periodcentered.001
Encoding: 65539 -1 503
Width: 471
GlyphClass: 2
Flags: W
LayerCount: 2
Fore
SplineSet
67 733 m 1,0,-1
 333 733 l 1,1,-1
 333 463 l 1,2,-1
 67 463 l 1,3,-1
 67 733 l 1,0,-1
EndSplineSet
EndChar

StartChar: Scommaaccent
Encoding: 65541 -1 505
Width: 1173
GlyphClass: 2
Flags: W
LayerCount: 2
Fore
SplineSet
600 -674 m 1,0,-1
 436 -674 l 1,1,-1
 539 -151 l 1,2,-1
 758 -151 l 1,3,-1
 600 -674 l 1,0,-1
631 206 m 0,4,5
 897 206 897 206 897 413 c 0,6,7
 897 518 897 518 800 572 c 0,8,9
 750 600 750 600 662 628 c 2,10,-1
 488 682 l 1,11,12
 232 758 232 758 160 918 c 0,13,14
 130 985 130 985 130 1078 c 128,-1,15
 130 1171 130 1171 171 1251.5 c 128,-1,16
 212 1332 212 1332 283 1382 c 0,17,18
 428 1484 428 1484 640 1484 c 0,19,20
 906 1484 906 1484 1081 1367 c 1,21,-1
 1102 1352 l 1,22,-1
 1017 1155 l 1,23,-1
 1014 1149 l 1,24,25
 838 1258 838 1258 640 1258 c 0,26,27
 379 1258 379 1258 379 1075 c 0,28,29
 379 997 379 997 429.5 961.5 c 128,-1,30
 480 926 480 926 568 897 c 2,31,-1
 746 841 l 1,32,33
 1022 753 1022 753 1104 605 c 0,34,35
 1150 523 1150 523 1150 424 c 0,36,37
 1150 159 1150 159 938 48 c 0,38,39
 804 -23 804 -23 623 -23 c 0,40,41
 354 -23 354 -23 138 107 c 1,42,-1
 116 120 l 1,43,-1
 205 342 l 1,44,-1
 236 319 l 1,45,46
 396 206 396 206 631 206 c 0,4,5
EndSplineSet
EndChar

StartChar: commaaccent
Encoding: 65543 -1 507
Width: 657
GlyphClass: 2
Flags: W
LayerCount: 2
Fore
SplineSet
282 -653 m 1,0,-1
 97 -653 l 1,1,-1
 213 -130 l 1,2,-1
 457 -130 l 1,3,-1
 282 -653 l 1,0,-1
277 0 m 0,4,-1
EndSplineSet
EndChar

StartChar: macron
Encoding: 65544 -1 508
Width: 788
GlyphClass: 2
Flags: W
LayerCount: 2
Fore
SplineSet
674 1258 m 1,0,-1
 71 1258 l 1,1,-1
 71 1455 l 1,2,-1
 674 1455 l 1,3,-1
 674 1258 l 1,0,-1
372 1059 m 0,4,-1
EndSplineSet
EndChar

StartChar: scommaaccent
Encoding: 65545 -1 509
Width: 1016
GlyphClass: 2
Flags: W
LayerCount: 2
Fore
SplineSet
513 -625 m 1,0,-1
 326 -625 l 1,1,-1
 444 -102 l 1,2,-1
 697 -102 l 1,3,-1
 513 -625 l 1,0,-1
200 249 m 1,4,5
 291 143 291 143 497.5 143 c 128,-1,6
 704 143 704 143 704 271 c 0,7,8
 704 331 704 331 633.5 364.5 c 128,-1,9
 563 398 563 398 426.5 435.5 c 128,-1,10
 290 473 290 473 199 544 c 128,-1,11
 108 615 108 615 108 760.5 c 128,-1,12
 108 906 108 906 224.5 980.5 c 128,-1,13
 341 1055 341 1055 497 1055 c 0,14,15
 734 1055 734 1055 845 973 c 1,16,-1
 862 959 l 1,17,-1
 805 777 l 1,18,-1
 771 798 l 1,19,20
 677 861 677 861 506 861 c 0,21,22
 427 861 427 861 377.5 832.5 c 128,-1,23
 328 804 328 804 328 753 c 0,24,25
 328 676 328 676 480 630 c 0,26,27
 504 622 504 622 553 609 c 0,28,29
 601 595 601 595 671 571 c 0,30,31
 923 484 923 484 923 277 c 0,32,33
 923 196 923 196 886 132 c 128,-1,34
 849 68 849 68 786 30 c 0,35,36
 659 -48 659 -48 484 -48 c 0,37,38
 230 -48 230 -48 108 82 c 1,39,-1
 164 293 l 1,40,-1
 200 249 l 1,4,5
EndSplineSet
EndChar

StartChar: Hbar
Encoding: 294 294 515
Width: 1474
Flags: W
LayerCount: 2
Fore
SplineSet
1055 645 m 1,0,-1
 419 645 l 1,1,-1
 419 1 l 1,2,-1
 121 1 l 1,3,-1
 121 1168 l 1,4,-1
 12 1168 l 1,5,-1
 12 1322 l 1,6,-1
 121 1322 l 1,7,-1
 121 1445 l 1,8,-1
 419 1445 l 1,9,-1
 419 1322 l 1,10,-1
 1055 1322 l 1,11,-1
 1055 1445 l 1,12,-1
 1353 1445 l 1,13,-1
 1353 1322 l 1,14,-1
 1459 1322 l 1,15,-1
 1459 1168 l 1,16,-1
 1353 1168 l 1,17,-1
 1353 0 l 1,18,-1
 1055 0 l 1,19,-1
 1055 645 l 1,0,-1
419 1168 m 1,20,-1
 419 855 l 1,21,-1
 1055 855 l 1,22,-1
 1055 1168 l 1,23,-1
 419 1168 l 1,20,-1
EndSplineSet
EndChar

StartChar: Tbar
Encoding: 358 358 516
Width: 1090
Flags: W
LayerCount: 2
Fore
SplineSet
838 536 m 1
 243 536 l 1
 243 690 l 1
 838 690 l 1
 838 536 l 1
EndSplineSet
Refer: 55 84 N 1 0 0 1 0 0 2
EndChar

StartChar: tbar
Encoding: 359 359 517
Width: 773
Flags: W
LayerCount: 2
Fore
SplineSet
658 534 m 1
 63 534 l 1
 63 688 l 1
 658 688 l 1
 658 534 l 1
EndSplineSet
Refer: 87 116 N 1 0 0 1 0 0 2
EndChar

StartChar: dcroat
Encoding: 273 273 567
Width: 1237
Flags: W
LayerCount: 2
Fore
SplineSet
549 -20 m 1,0,1
 324 -15 324 -15 193 143.5 c 128,-1,2
 62 302 62 302 62 540 c 128,-1,3
 62 778 62 778 188 940 c 0,4,5
 314 1103 314 1103 548 1103 c 0,6,7
 666 1103 666 1103 742 1056.5 c 128,-1,8
 818 1010 818 1010 853 942 c 1,9,-1
 853 1197 l 1,10,-1
 641 1197 l 1,11,-1
 641 1351 l 1,12,-1
 853 1351 l 1,13,-1
 853 1496 l 1,14,-1
 1136 1516 l 1,15,-1
 1136 1351 l 1,16,-1
 1236 1351 l 1,17,-1
 1236 1197 l 1,18,-1
 1136 1197 l 1,19,-1
 1136 0 l 1,20,-1
 859 0 l 1,21,-1
 853 149 l 1,22,23
 763 -20 763 -20 549 -20 c 1,0,1
504 206 m 0,24,25
 548 189 548 189 600 189 c 0,26,27
 707 189 707 189 782 265 c 128,-1,28
 857 341 857 341 857 538 c 0,29,30
 856 809 856 809 694 876 c 0,31,32
 650 894 650 894 600 894 c 0,33,34
 498 894 498 894 416 818 c 128,-1,35
 334 742 334 742 334 538 c 0,36,37
 334 271 334 271 504 206 c 0,24,25
EndSplineSet
EndChar
